<svg width="60" height="60" viewBox="0 0 60 60" fill="none" xmlns="http://www.w3.org/2000/svg">
<path d="M22 8.73205C23.8564 7.66025 26.1436 7.66025 28 8.73205L38.4545 14.7679C40.3109 15.8397 41.4545 17.8205 41.4545 19.9641V32.0359C41.4545 34.1795 40.3109 36.1603 38.4545 37.232L28 43.2679C26.1436 44.3397 23.8564 44.3397 22 43.2679L11.5455 37.232C9.68911 36.1603 8.54552 34.1795 8.54552 32.0359V19.9641C8.54552 17.8205 9.68911 15.8397 11.5455 14.7679L22 8.73205Z" fill="#3C70F4"/>
<path d="M20.8172 36C20.8172 36 19.6356 34.7273 18.5448 33.7273C17.3632 33.4545 16.1816 33.0909 15 32.8182L17.3632 28.8182C18.6357 30.4545 20.8172 31.8182 22.9077 32.2727L20.8172 36ZM31.7244 33.4545C30.6337 34.4545 29.2703 36 29.2703 36L27.0888 32.2727C29.1794 31.7273 31.179 30.3636 32.4515 28.8182L34.9966 32.8182C35.0875 32.8182 33.3605 33.0909 31.7244 33.4545ZM25.0892 16C20.9081 16 17.3632 19.7273 17.3632 23.7273C17.3632 27.7273 20.9081 31.0909 25.0892 31.0909C29.2703 31.0909 32.8151 27.6364 32.8151 23.5455C32.8151 19.4545 29.2703 16 25.0892 16ZM29.543 23.2727L28.1796 24.6364C27.9978 24.8182 27.9069 25.0909 27.9978 25.3636L28.2704 27.1818C28.2704 27.3636 28.2704 27.5455 28.1796 27.7273C27.9069 28.1818 27.4524 28.2727 26.9979 28.0909L25.4527 27.2727C25.1801 27.1818 24.9074 27.1818 24.6347 27.2727L23.0895 28.0909C22.9077 28.1818 22.7259 28.1818 22.5442 28.1818C22.0897 28.0909 21.7261 27.6364 21.817 27.1818L22.1806 25.2727C22.1806 25 22.1806 24.8182 21.9988 24.6364L20.6354 23.2727C20.5445 23.1818 20.4536 23 20.3627 22.8182C20.2718 22.3636 20.6354 21.9091 21.0899 21.9091L22.8168 21.6364C23.0895 21.6364 23.3622 21.4545 23.4531 21.1818L24.2711 19.5455C24.4529 19.2727 24.7256 19.0909 25.0892 19.0909C25.4527 19.0909 25.7254 19.2727 25.9072 19.5455L26.7253 21.1818C26.8161 21.4545 27.0888 21.6364 27.3615 21.6364L29.0885 21.9091C29.2703 21.9091 29.4521 22 29.543 22.1818C29.9065 22.3636 29.9065 22.9091 29.543 23.2727Z" fill="white"/>
<g filter="url(#filter0_b_807_5700)">
<path d="M31.0976 28C32.808 28 34.3612 28.5839 35.5092 29.5344L35.5059 49.9986C35.5059 48.5317 34.1363 47.3424 32.4491 47.3424H22.9958C22.7317 47.3424 22.4784 47.2512 22.2917 47.0888C22.1049 46.9265 22 46.7063 22 46.4767V28.8657C22 28.3883 22.4466 28.0014 22.9958 28.0014H31.0976V28ZM50.0042 28C50.5005 28 50.909 28.3149 50.9868 28.7262L51 28.8657V46.4767C51 46.6818 50.9162 46.8804 50.7635 47.0368C50.6108 47.1933 50.3992 47.2975 50.1663 47.3309L50.0042 47.3424H40.5526C38.9448 47.3424 37.6281 48.421 37.5057 49.7915L37.4974 50L37.4925 49.9986V29.5359C38.5867 28.627 40.0176 28.0865 41.5285 28.0115L41.904 28.0014H50.0059L50.0042 28Z" fill="#3C70F4" fill-opacity="0.28"/>
<path d="M35.0091 29.7757L35.0062 47.8034C34.3484 47.204 33.43 46.8424 32.4491 46.8424H22.9958C22.8434 46.8424 22.709 46.7892 22.6197 46.7115C22.5326 46.6358 22.5 46.5493 22.5 46.4767V28.8657C22.5 28.7288 22.6536 28.5014 22.9958 28.5014H31.0976H31.2396C32.691 28.5309 34.0052 29.0107 35.0091 29.7757ZM40.5526 46.8424C39.5676 46.8424 38.6492 47.2047 37.9925 47.8061V29.7767C38.9722 29.0285 40.2225 28.5781 41.5477 28.5112L41.9107 28.5014H50.0059H50.0495C50.3096 28.5182 50.4586 28.6776 50.4918 28.803L50.5 28.8894V46.4767V46.4767C50.5 46.5422 50.4738 46.6178 50.4057 46.6876C50.3386 46.7563 50.2362 46.8125 50.1105 46.8336L49.9865 46.8424H40.5526Z" stroke="url(#paint0_linear_807_5700)"/>
</g>
<defs>
<filter id="filter0_b_807_5700" x="18" y="24" width="37" height="30" filterUnits="userSpaceOnUse" color-interpolation-filters="sRGB">
<feFlood flood-opacity="0" result="BackgroundImageFix"/>
<feGaussianBlur in="BackgroundImageFix" stdDeviation="2"/>
<feComposite in2="SourceAlpha" operator="in" result="effect1_backgroundBlur_807_5700"/>
<feBlend mode="normal" in="SourceGraphic" in2="effect1_backgroundBlur_807_5700" result="shape"/>
</filter>
<linearGradient id="paint0_linear_807_5700" x1="52" y1="46" x2="20.4883" y2="38.7789" gradientUnits="userSpaceOnUse">
<stop stop-color="#3C70F4" stop-opacity="0"/>
<stop offset="1" stop-color="white" stop-opacity="0.72"/>
</linearGradient>
</defs>
</svg>
