<svg width="60" height="60" viewBox="0 0 60 60" fill="none" xmlns="http://www.w3.org/2000/svg">
<path d="M19 8.73205C20.8564 7.66025 23.1436 7.66025 25 8.73205L35.4545 14.7679C37.3109 15.8397 38.4545 17.8205 38.4545 19.9641V32.0359C38.4545 34.1795 37.3109 36.1603 35.4545 37.232L25 43.2679C23.1436 44.3397 20.8564 44.3397 19 43.2679L8.54552 37.232C6.68911 36.1603 5.54552 34.1795 5.54552 32.0359V19.9641C5.54552 17.8205 6.68911 15.8397 8.54552 14.7679L19 8.73205Z" fill="#3C70F4"/>
<path d="M22 25.1425C23.5488 25.1522 25.0944 24.9994 26.6125 24.6865C28.043 24.3826 29.1709 23.9339 29.9963 23.3405V25.1454C29.9963 25.6336 29.6386 26.0861 28.9234 26.5028C28.2081 26.9196 27.2376 27.2492 26.0117 27.4917C24.689 27.7442 23.3456 27.8666 22 27.8575C20.6544 27.8665 19.311 27.7441 17.9883 27.4917C16.7618 27.2467 15.7909 26.9161 15.0757 26.5C14.3604 26.0839 14.0025 25.6314 14.0019 25.1425V23.3376C14.8278 23.9316 15.9561 24.3803 17.3866 24.6837C18.9049 24.9975 20.4508 25.1512 22 25.1425ZM22 33.2846C23.5488 33.2942 25.0944 33.1414 26.6125 32.8286C28.043 32.5259 29.1709 32.0772 29.9963 31.4825V33.2874C29.9963 33.7757 29.6386 34.2282 28.9234 34.6449C28.2081 35.0616 27.2376 35.3912 26.0117 35.6338C24.689 35.8862 23.3456 36.0087 22 35.9995C20.6544 36.0086 19.311 35.8861 17.9883 35.6338C16.7587 35.3906 15.7869 35.06 15.0729 34.642C14.3589 34.2241 14.0012 33.7719 14 33.2855V31.4806C14.826 32.0746 15.9539 32.5236 17.3838 32.8276C18.903 33.1409 20.4499 33.2941 22 33.2846ZM22 29.215C23.5488 29.2242 25.0944 29.0714 26.6125 28.759C28.043 28.455 29.1709 28.006 29.9963 27.4119V29.2169C29.9963 29.7039 29.6386 30.156 28.9234 30.5734C28.2081 30.9907 27.2376 31.3207 26.0117 31.5632C24.689 31.8153 23.3456 31.9375 22 31.928C20.6544 31.9371 19.311 31.8146 17.9883 31.5623C16.7587 31.3191 15.7869 30.9885 15.0729 30.5705C14.3589 30.1526 14.0012 29.7001 14 29.2131V27.4081C14.8272 28.006 15.9561 28.4559 17.3866 28.758C18.9049 29.0712 20.4509 29.2243 22 29.215ZM22 17.0005C23.3456 16.9914 24.689 17.1139 26.0117 17.3662C27.2413 17.6094 28.2131 17.94 28.9271 18.358C29.6411 18.7759 29.9988 19.2284 30 19.7154V21.072C30 21.5602 29.6424 22.0127 28.9271 22.4294C28.2119 22.8462 27.24 23.1767 26.0117 23.4212C24.689 23.6732 23.3456 23.7953 22 23.786C20.6544 23.795 19.311 23.6726 17.9883 23.4202C16.7606 23.1764 15.7897 22.8458 15.0757 22.4285C14.3617 22.0112 14.004 21.5587 14.0028 21.071V19.7154C14.0028 19.2272 14.3607 18.7747 15.0766 18.358C15.7925 17.9412 16.7631 17.6107 17.9883 17.3662C19.311 17.1139 20.6544 16.9914 22 17.0005Z" fill="white"/>
<g filter="url(#filter0_b_807_5737)">
<path d="M53.994 42.6712C53.9251 41.0479 53.2814 39.4978 52.1723 38.2841C51.0632 37.0704 49.557 36.2678 47.9094 36.0126C46.2618 35.7573 44.5742 36.0651 43.1331 36.8837C41.692 37.7023 40.5861 38.9813 40.0033 40.5036C39.9485 40.6188 39.8509 40.7095 39.7303 40.7575C39.6097 40.8055 39.4748 40.8073 39.3529 40.7625C39.231 40.7177 39.131 40.6296 39.073 40.5159C39.015 40.4023 39.0033 40.2715 39.0403 40.1498C39.6138 38.6566 40.6304 37.3633 41.9609 36.4345C43.2913 35.5056 44.8754 34.9832 46.5117 34.9336C46.0069 32.9528 44.8354 31.1937 43.1841 29.937C41.5328 28.6803 39.4969 27.9984 37.4011 28C35.3054 28.0016 33.2705 28.6867 31.6213 29.946C29.9721 31.2053 28.8035 32.9662 28.3019 34.9477C28.1202 34.9336 27.9385 34.9247 27.7568 34.9247C25.7409 34.9205 23.8029 35.6824 22.3549 37.0483C20.9069 38.4141 20.0633 40.2762 20.0034 42.2384C19.9435 44.2007 20.6721 46.1082 22.0342 47.5554C23.3964 49.0026 25.2845 49.8752 27.2971 49.9876V50H47.0804C48.9929 49.9209 50.7951 49.1061 52.0913 47.7344C53.3875 46.3626 54.0718 44.5461 53.994 42.6835V42.6712Z" fill="#3C70F4" fill-opacity="0.28"/>
<path d="M45.8567 34.4761C44.353 34.6297 42.9111 35.1613 41.6746 36.0245C40.2636 37.0096 39.1833 38.3827 38.5735 39.9705L38.5671 39.9872L38.5619 40.0044C38.4871 40.2503 38.511 40.5147 38.6276 40.7432C38.744 40.9712 38.9427 41.1444 39.1804 41.2318C39.4179 41.3191 39.68 41.3156 39.9152 41.2221C40.1506 41.1283 40.3447 40.9498 40.4547 40.7185L40.4632 40.7008L40.4702 40.6824C41.0109 39.2703 42.0379 38.0809 43.38 37.3185C44.7224 36.5559 46.2959 36.2686 47.8328 36.5067C49.3697 36.7448 50.7721 37.493 51.8032 38.6214C52.8317 39.7469 53.4278 41.1814 53.494 42.682V42.6835V42.694L53.4945 42.7044C53.5665 44.4303 52.9327 46.1159 51.7279 47.391C50.5249 48.664 48.8505 49.4238 47.0699 49.5H27.5328L27.325 49.4884C25.4384 49.383 23.6712 48.5651 22.3983 47.2127C21.1259 45.8608 20.4474 44.0815 20.5032 42.2537C20.559 40.4258 21.3448 38.6884 22.698 37.412C24.0516 36.1351 25.866 35.4208 27.7558 35.4247H27.7568C27.9225 35.4247 28.0908 35.4328 28.2631 35.4462L28.6832 35.4789L28.7866 35.0704C29.26 33.2 30.3637 31.5353 31.9247 30.3434C33.486 29.1513 35.4141 28.5015 37.4015 28.5C39.3889 28.4985 41.3181 29.1452 42.8813 30.3349C44.2804 31.3997 45.3137 32.8439 45.8567 34.4761Z" stroke="url(#paint0_linear_807_5737)"/>
</g>
<defs>
<filter id="filter0_b_807_5737" x="16" y="24" width="42" height="30" filterUnits="userSpaceOnUse" color-interpolation-filters="sRGB">
<feFlood flood-opacity="0" result="BackgroundImageFix"/>
<feGaussianBlur in="BackgroundImageFix" stdDeviation="2"/>
<feComposite in2="SourceAlpha" operator="in" result="effect1_backgroundBlur_807_5737"/>
<feBlend mode="normal" in="SourceGraphic" in2="effect1_backgroundBlur_807_5737" result="shape"/>
</filter>
<linearGradient id="paint0_linear_807_5737" x1="49.5652" y1="30.8696" x2="34.1503" y2="52.5906" gradientUnits="userSpaceOnUse">
<stop stop-color="#3C70F4" stop-opacity="0"/>
<stop offset="1" stop-color="white" stop-opacity="0.58"/>
</linearGradient>
</defs>
</svg>
