<svg width="33" height="32" viewBox="0 0 33 32" fill="none" xmlns="http://www.w3.org/2000/svg">
<rect x="0.333313" width="32" height="32" rx="6" fill="#2253E6" fill-opacity="0.15"/>
<path d="M22.2214 8.254C22.2214 8.24915 22.2201 8.24371 22.2201 8.2389C22.1934 8.23528 22.1667 8.23106 22.1369 8.23106H20.435C20.4515 8.32218 20.4618 8.41449 20.4618 8.50864C20.463 9.20918 19.9532 9.89825 19.3487 9.89825H14.1222C13.4854 9.89825 12.9757 9.20916 12.9757 8.50864C12.9769 8.41572 12.9872 8.3222 13.0036 8.23106H11.2811C11.2659 8.23106 11.2538 8.23409 11.2386 8.23468C11.2392 8.24133 11.238 8.24856 11.2386 8.25582C10.3029 8.31553 9.55798 9.08307 9.55798 10.0268V21.9119C9.55798 22.8943 10.363 23.6944 11.3528 23.6944H22.1235C23.1133 23.6944 23.9183 22.8943 23.9183 21.9119V10.0268C23.9183 9.07704 23.1649 8.30587 22.2213 8.254H22.2214ZM20.8136 14.7279L16.6704 18.7573C16.4146 19.0059 15.9644 19.0053 15.708 18.7579L13.3007 16.4185C13.1731 16.2948 13.1027 16.1289 13.1027 15.9521C13.1027 15.7759 13.1731 15.6106 13.3007 15.4875C13.4289 15.3632 13.6003 15.2938 13.7826 15.2938C13.9642 15.2938 14.1356 15.3632 14.2638 15.4869L16.1892 17.3574L19.8511 13.7962C20.1069 13.547 20.5572 13.5476 20.8136 13.7962C20.9412 13.9193 21.0116 14.0852 21.0116 14.2614C21.0122 14.4382 20.9412 14.6035 20.8136 14.7278L20.8136 14.7279ZM18.6517 7.33905H14.898C14.895 7.33905 14.8922 7.33925 14.8892 7.33929H18.6604C18.6575 7.33925 18.6546 7.33905 18.6517 7.33905Z" fill="#2253E6"/>
<path d="M18.6604 7.33932H14.8892C14.4747 7.34449 14.1452 7.714 14.1452 8.17178C14.1452 8.63218 14.4806 9.00628 14.898 9.00628H18.6735C19.0709 9.00628 19.4069 8.6334 19.4069 8.17178C19.4069 7.714 19.0768 7.34449 18.6604 7.33932Z" fill="#2253E6"/>
</svg>
