<svg width="16" height="16" viewBox="0 0 16 16" fill="none" xmlns="http://www.w3.org/2000/svg">
<rect width="16" height="16" fill="black"/>
<path d="M-2009 -10495C-2009 -10496.1 -2008.1 -10497 -2007 -10497H18418C18419.1 -10497 18420 -10496.1 18420 -10495V1217C18420 1218.1 18419.1 1219 18418 1219H-2007C-2008.11 1219 -2009 1218.1 -2009 1217V-10495Z" fill="#404040"/>
<path d="M-1941 -594C-1941 -595.105 -1940.1 -596 -1939 -596H4335C4336.1 -596 4337 -595.105 4337 -594V776C4337 777.105 4336.1 778 4335 778H-1939C-1940.1 778 -1941 777.105 -1941 776V-594Z" fill="#353535"/>
<g clip-path="url(#clip0_1626_24365)">
<rect width="1440" height="800" transform="translate(-320 -185)" fill="#F2F3F5"/>
<rect x="-96" y="-109" width="1192" height="551" rx="2" fill="white"/>
<rect width="440" height="124" transform="translate(-72 -2)" fill="white" fill-opacity="0.01"/>
<rect width="440" height="20" transform="translate(-72 -2)" fill="white" fill-opacity="0.01"/>
<rect width="16" height="16" fill="white" fill-opacity="0.01"/>
<path fill-rule="evenodd" clip-rule="evenodd" d="M8.00001 14.6663C11.6819 14.6663 14.6667 11.6816 14.6667 7.99967C14.6667 4.31778 11.6819 1.33301 8.00001 1.33301C4.31811 1.33301 1.33334 4.31778 1.33334 7.99967C1.33334 11.6816 4.31811 14.6663 8.00001 14.6663ZM9.96028 4.91543C9.48934 4.51982 8.87713 4.33301 8.12363 4.33301C7.2524 4.33301 6.56955 4.56378 6.07507 5.0363C5.58058 5.49784 5.33334 6.12422 5.33334 6.92641H6.56955C6.56955 6.4429 6.67551 6.06927 6.88743 5.80554C7.1229 5.48685 7.51142 5.33301 8.04122 5.33301C8.46506 5.33301 8.80649 5.4429 9.04195 5.66268C9.26565 5.88246 9.38338 6.17916 9.38338 6.56378C9.38338 6.84949 9.26565 7.11323 9.05373 7.36598L8.85358 7.57477C8.12363 8.17916 7.67624 8.62971 7.52319 8.9374C7.35836 9.22312 7.28772 9.57477 7.28772 9.98136V10.1682H8.54747V9.98136C8.54747 9.71762 8.60634 9.47587 8.73585 9.25609C8.84181 9.05828 9.00663 8.86048 9.23033 8.68466C9.78367 8.23411 10.1133 7.94839 10.2193 7.82751C10.5136 7.47587 10.6667 7.02532 10.6667 6.48685C10.6667 5.82751 10.4312 5.30004 9.96028 4.91543ZM8.5357 10.9814C8.37087 10.8275 8.15895 10.7616 7.91171 10.7616C7.67624 10.7616 7.46432 10.8275 7.2995 10.9814C7.13467 11.1242 7.05225 11.311 7.05225 11.5418C7.05225 11.7616 7.13467 11.9484 7.2995 12.1022C7.46432 12.2561 7.67624 12.333 7.91171 12.333C8.14718 12.333 8.3591 12.2561 8.52393 12.1132C8.68875 11.9594 8.78294 11.7726 8.78294 11.5418C8.78294 11.311 8.70053 11.1242 8.5357 10.9814Z" fill="#86909C"/>
<g filter="url(#filter0_d_1626_24365)">
</g>
</g>
<path d="M-1939 -594H4335V-598H-1939V-594ZM4335 -594V776H4339V-594H4335ZM4335 776H-1939V780H4335V776ZM-1939 776V-594H-1943V776H-1939ZM-1939 776L-1939 776H-1943C-1943 778.209 -1941.21 780 -1939 780V776ZM4335 776L4335 776V780C4337.21 780 4339 778.209 4339 776H4335ZM4335 -594L4335 -594H4339C4339 -596.209 4337.21 -598 4335 -598V-594ZM-1939 -598C-1941.21 -598 -1943 -596.209 -1943 -594H-1939L-1939 -594V-598Z" fill="#0066FF" fill-opacity="0.36"/>
<path d="M-2007 -10496H18418V-10498H-2007V-10496ZM18419 -10495V1217H18421V-10495H18419ZM18418 1218H-2007V1220H18418V1218ZM-2008 1217V-10495H-2010V1217H-2008ZM-2007 1218C-2007.55 1218 -2008 1217.55 -2008 1217H-2010C-2010 1218.66 -2008.66 1220 -2007 1220V1218ZM18419 1217C18419 1217.55 18418.6 1218 18418 1218V1220C18419.7 1220 18421 1218.66 18421 1217H18419ZM18418 -10496C18418.6 -10496 18419 -10495.6 18419 -10495H18421C18421 -10496.7 18419.7 -10498 18418 -10498V-10496ZM-2007 -10498C-2008.66 -10498 -2010 -10496.7 -2010 -10495H-2008C-2008 -10495.6 -2007.55 -10496 -2007 -10496V-10498Z" fill="white" fill-opacity="0.1"/>
<defs>
<filter id="filter0_d_1626_24365" x="9.82843" y="-58" width="431.172" height="140" filterUnits="userSpaceOnUse" color-interpolation-filters="sRGB">
<feFlood flood-opacity="0" result="BackgroundImageFix"/>
<feColorMatrix in="SourceAlpha" type="matrix" values="0 0 0 0 0 0 0 0 0 0 0 0 0 0 0 0 0 0 127 0" result="hardAlpha"/>
<feOffset dy="4"/>
<feGaussianBlur stdDeviation="5"/>
<feColorMatrix type="matrix" values="0 0 0 0 0.113725 0 0 0 0 0.129412 0 0 0 0 0.160784 0 0 0 0.1 0"/>
<feBlend mode="normal" in2="BackgroundImageFix" result="effect1_dropShadow_1626_24365"/>
<feBlend mode="normal" in="SourceGraphic" in2="effect1_dropShadow_1626_24365" result="shape"/>
</filter>
<clipPath id="clip0_1626_24365">
<rect width="1440" height="800" fill="white" transform="translate(-320 -185)"/>
</clipPath>
</defs>
</svg>
