<svg width="32" height="32" viewBox="0 0 32 32" fill="none" xmlns="http://www.w3.org/2000/svg">
<rect width="32" height="32" rx="6" fill="#2253E6" fill-opacity="0.15"/>
<rect x="10" y="9" width="12" height="13" rx="1" fill="#2253E6"/>
<path d="M15.2569 20C15.2319 20 15.2131 19.9934 15.2006 19.9812C15.113 19.9559 15.0818 19.9064 15.1068 19.8314L15.6884 16.4044H13.1555C13.0929 16.4044 13.0491 16.3794 13.0241 16.3295C12.9866 16.28 12.9929 16.2238 13.0429 16.161L16.9455 11.0673C16.9955 10.9923 17.0518 10.9803 17.1143 11.0298C17.1769 11.0423 17.2082 11.0926 17.2082 11.1796L16.6265 14.6067H18.8593C18.9218 14.6067 18.9656 14.632 18.9906 14.6815C19.0031 14.7315 19.0031 14.7876 18.9906 14.8501L15.3882 19.9438C15.3507 19.9812 15.3069 20 15.2569 20Z" fill="white"/>
<rect x="8" y="7" width="1" height="17" fill="#2253E6"/>
<rect x="23" y="7" width="1" height="17" fill="#2253E6"/>
</svg>
