<svg width="32" height="32" viewBox="0 0 32 32" fill="none" xmlns="http://www.w3.org/2000/svg">
<rect width="32" height="32" rx="6" fill="#F43737" fill-opacity="0.15"/>
<rect width="18" height="18" transform="translate(7 7)" fill="white" fill-opacity="0.01"/>
<path d="M16 17C16.5523 17 17 16.5523 17 16C17 15.4477 16.5523 15 16 15C15.4477 15 15 15.4477 15 16C15 16.5523 15.4477 17 16 17Z" fill="#F43D3D"/>
<path d="M14.1688 18.9206C14.6939 19.2583 15.3233 19.4549 16 19.4549C16.6767 19.4549 17.3061 19.2583 17.8312 18.9206L20.0693 22.216C18.9025 22.9665 17.5038 23.4034 16 23.4034C14.4962 23.4034 13.0975 22.9665 11.9307 22.216L14.1688 18.9206ZM12.6828 16.4179L8.62842 16.6545C8.61977 16.5122 8.61538 16.3687 8.61538 16.2243C8.61538 13.4137 10.2767 10.9804 12.6968 9.80171L14.5136 13.3341C13.4245 13.8645 12.6769 14.9596 12.6769 16.2243C12.6769 16.2893 12.6789 16.3538 12.6828 16.4179ZM17.4864 13.3341L19.3032 9.80171C21.7233 10.9804 23.3846 13.4137 23.3846 16.2243C23.3846 16.3687 23.3802 16.5122 23.3716 16.6545L19.3172 16.4179C19.3211 16.3538 19.3231 16.2893 19.3231 16.2243C19.3231 14.9596 18.5755 13.8645 17.4864 13.3341Z" fill="#F76560"/>
<path fill-rule="evenodd" clip-rule="evenodd" d="M12.9721 9L15.338 13.6002L14.7898 13.8672C13.9012 14.3 13.2923 15.1931 13.2923 16.2243C13.2923 16.2777 13.2939 16.3305 13.2971 16.3826L13.3335 16.9775L8.05035 17.2859L8.0141 16.6896C8.00474 16.5356 8 16.3804 8 16.2243C8 13.1802 9.8 10.5449 12.4205 9.26863L12.9721 9ZM19.0279 9L19.5795 9.26863C22.2 10.5449 24 13.1802 24 16.2243C24 16.3805 23.9952 16.5356 23.9859 16.6895L23.9497 17.2859L18.6665 16.9775L18.7029 16.3826C18.7061 16.3305 18.7077 16.2777 18.7077 16.2243C18.7077 15.1931 18.0988 14.3 17.2102 13.8672L16.662 13.6002L19.0279 9ZM19.5659 10.628L18.2894 13.1099C19.1907 13.7366 19.809 14.7241 19.9204 15.8554L22.7661 16.0215C22.6952 13.7433 21.4341 11.7561 19.5659 10.628ZM9.23392 16.0215L12.0796 15.8554C12.191 14.7241 12.8093 13.7366 13.7106 13.1099L12.4341 10.628C10.5659 11.7561 9.30481 13.7433 9.23392 16.0215ZM13.9944 18.0925L14.509 18.4235C14.9365 18.6984 15.4481 18.8584 16 18.8584C16.5519 18.8584 17.0635 18.6984 17.491 18.4235L18.0056 18.0925L20.9205 22.3845L20.4095 22.7131C19.1451 23.5264 17.6286 24 16 24C14.3714 24 12.8549 23.5264 11.5905 22.7131L11.0795 22.3845L13.9944 18.0925ZM14.37 19.7092L12.7972 22.025C13.7504 22.5239 14.8406 22.8069 16 22.8069C17.1594 22.8069 18.2496 22.5239 19.2028 22.025L17.63 19.7092C17.133 19.929 16.5808 20.0515 16 20.0515C15.4192 20.0515 14.867 19.929 14.37 19.7092Z" fill="#F76560"/>
</svg>
