<svg width="18" height="18" viewBox="0 0 18 18" fill="none" xmlns="http://www.w3.org/2000/svg">
<g id="&#228;&#190;&#167;&#232;&#190;&#185;&#230;&#160;&#143;-&#233;&#152;&#159;&#229;&#136;&#151;">
<rect width="18" height="18" fill="white" fill-opacity="0.01"/>
<path id="Subtract" fill-rule="evenodd" clip-rule="evenodd" d="M6 11L9 12.5L12 11H6ZM2 12.5L4.15836 11.4208L8.46334 13.5733L9 13.8416L9.53666 13.5733L13.8416 11.4208L16 12.5L9 16L2 12.5Z" fill="#E5E6EB"/>
<path id="Union" fill-rule="evenodd" clip-rule="evenodd" d="M9 2L16 5.5L12.5 7.25L9 9L5.5 7.25L2 5.5L9 2ZM2 9L4.15836 7.92082L8.46334 10.0733L9 10.3416L9.53666 10.0733L13.8416 7.92082L16 9L9 12.5L2 9Z" fill="url(#paint0_linear_4981_8389)"/>
</g>
<defs>
<linearGradient id="paint0_linear_4981_8389" x1="9" y1="2" x2="9" y2="12.5" gradientUnits="userSpaceOnUse">
<stop stop-color="#CED2D9"/>
<stop offset="1" stop-color="#BFC7D4"/>
</linearGradient>
</defs>
</svg>
