<svg width="18" height="18" viewBox="0 0 18 18" fill="none" xmlns="http://www.w3.org/2000/svg">
<g id="&#228;&#190;&#167;&#232;&#190;&#185;&#230;&#160;&#143;-&#233;&#152;&#159;&#229;&#136;&#151;-&#233;&#128;&#137;&#228;&#184;&#173;">
<rect width="18" height="18" fill="white" fill-opacity="0.01"/>
<path id="Subtract" fill-rule="evenodd" clip-rule="evenodd" d="M6 11L9 12.5L12 11H6ZM2 12.5L4.15836 11.4208L8.46334 13.5733L9 13.8416L9.53666 13.5733L13.8416 11.4208L16 12.5L9 16L2 12.5Z" fill="#6AA1FF"/>
<path id="Subtract_2" fill-rule="evenodd" clip-rule="evenodd" d="M4.15836 7.92082L2 9L9 12.5L16 9L13.8416 7.92082L9.53666 10.0733L9 10.3416L8.46334 10.0733L4.15836 7.92082ZM5.5 7.25L9 5.5L12.5 7.25L9 9L5.5 7.25Z" fill="#2253E6"/>
<path id="Vector 1145" d="M16 5.5L9 2L2 5.5L9 9L16 5.5Z" fill="#2253E6"/>
</g>
</svg>
