<svg width="18" height="18" viewBox="0 0 18 18" fill="none" xmlns="http://www.w3.org/2000/svg">
<rect width="18" height="18" fill="white" fill-opacity="0.01"/>
<path fill-rule="evenodd" clip-rule="evenodd" d="M3.29995 9.0002C3.29995 5.85217 5.85193 3.3002 8.99995 3.3002C12.148 3.3002 14.7 5.85217 14.7 9.0002C14.7 10.4779 14.1376 11.8243 13.2153 12.8371L14.1618 14.1622C15.4828 12.8411 16.3 11.0161 16.3 9.0002C16.3 4.96852 13.0316 1.7002 8.99995 1.7002C4.96827 1.7002 1.69995 4.96852 1.69995 9.0002C1.69995 11.0161 2.51706 12.8411 3.83815 14.1622L4.78464 12.8371C3.86229 11.8243 3.29995 10.4779 3.29995 9.0002ZM5.68664 13.6388L4.85709 14.8002L4.75658 14.9409C5.40691 15.4063 6.13684 15.7675 6.92199 16.0002H11.0779C11.8631 15.7675 12.593 15.4063 13.2433 14.9409L13.1428 14.8002L12.3133 13.6388C11.3795 14.307 10.2357 14.7002 8.99995 14.7002C7.76424 14.7002 6.62037 14.307 5.68664 13.6388Z" fill="#E5E6EB"/>
<path fill-rule="evenodd" clip-rule="evenodd" d="M13.4002 9.0001C13.4002 10.0395 13.0398 10.9947 12.4372 11.7476L9.97648 8.30264L9 6.93556L8.02352 8.30264L5.56319 11.7471C4.96081 10.9943 4.60059 10.0393 4.60059 9.0001C4.60059 6.57004 6.57045 4.6001 9.0004 4.6001C11.4303 4.6001 13.4002 6.57004 13.4002 9.0001ZM9.73734 10.0324L11.5577 12.5809L14 16.0001H4L6.44254 12.5806L8.26266 10.0324L9 9.00012L9.73734 10.0324Z" fill="url(#paint0_linear_4981_9087)"/>
<defs>
<linearGradient id="paint0_linear_4981_9087" x1="9" y1="4.6001" x2="9" y2="16.0001" gradientUnits="userSpaceOnUse">
<stop stop-color="#CED2D9"/>
<stop offset="1" stop-color="#BFC7D4"/>
</linearGradient>
</defs>
</svg>
