<svg width="18" height="18" viewBox="0 0 18 18" fill="none" xmlns="http://www.w3.org/2000/svg">
<g id="&#228;&#190;&#167;&#232;&#190;&#185;&#230;&#160;&#143;-&#228;&#187;&#187;&#229;&#138;&#161;&#232;&#167;&#166;&#229;&#143;&#145;&#229;&#153;&#168;-&#233;&#128;&#137;&#228;&#184;&#173;">
<rect width="18" height="18" fill="white" fill-opacity="0.01"/>
<path id="Subtract" fill-rule="evenodd" clip-rule="evenodd" d="M3.29995 8.99995C3.29995 5.85193 5.85193 3.29995 8.99995 3.29995C12.148 3.29995 14.7 5.85193 14.7 8.99995C14.7 10.4777 14.1376 11.8241 13.2153 12.8368L14.1618 14.1619C15.4828 12.8409 16.3 11.0158 16.3 8.99995C16.3 4.96827 13.0316 1.69995 8.99995 1.69995C4.96827 1.69995 1.69995 4.96827 1.69995 8.99995C1.69995 11.0158 2.51706 12.8409 3.83815 14.1619L4.78464 12.8368C3.86229 11.8241 3.29995 10.4777 3.29995 8.99995ZM5.68664 13.6386L4.85709 14.8L4.75658 14.9407C5.40691 15.406 6.13684 15.7672 6.92199 16H11.0779C11.8631 15.7672 12.593 15.406 13.2433 14.9407L13.1428 14.8L12.3133 13.6386C11.3795 14.3067 10.2357 14.7 8.99995 14.7C7.76424 14.7 6.62037 14.3067 5.68664 13.6386Z" fill="#6AA1FF"/>
<path id="Rectangle 240647335" d="M9 9L14 16H4L9 9Z" fill="#2253E6"/>
<path id="Subtract_2" fill-rule="evenodd" clip-rule="evenodd" d="M12.4372 11.7476C13.0398 10.9947 13.4002 10.0395 13.4002 9.0001C13.4002 6.57004 11.4303 4.6001 9.0004 4.6001C6.57045 4.6001 4.60059 6.57004 4.60059 9.0001C4.60059 10.0393 4.96081 10.9943 5.56319 11.7471L8.02352 8.30264L9 6.93556L9.97648 8.30264L12.4372 11.7476ZM11.5577 12.5809L9.73734 10.0324L9 9.00012L8.26266 10.0324L6.44254 12.5806C7.16334 13.0965 8.04641 13.4001 9.0004 13.4001C9.95415 13.4001 10.837 13.0966 11.5577 12.5809Z" fill="#2253E6"/>
</g>
</svg>
