<svg width="376" height="188" viewBox="0 0 376 188" fill="none" xmlns="http://www.w3.org/2000/svg">
<g clip-path="url(#clip0_3575_72767)">
<rect width="376" height="188" rx="6" fill="white" fill-opacity="0.01"/>
<rect width="376" height="8" fill="white"/>
<rect width="8" height="8" fill="#E5E6EB"/>
<rect x="16" width="8" height="8" fill="#E5E6EB"/>
<rect x="32" width="8" height="8" fill="#E5E6EB"/>
<rect x="48" width="8" height="8" fill="#E5E6EB"/>
<rect x="64" width="8" height="8" fill="#E5E6EB"/>
<rect x="80" width="8" height="8" fill="#E5E6EB"/>
<rect x="96" width="8" height="8" fill="#E5E6EB"/>
<rect x="112" width="8" height="8" fill="#E5E6EB"/>
<rect x="128" width="8" height="8" fill="#E5E6EB"/>
<rect x="144" width="8" height="8" fill="#E5E6EB"/>
<rect x="160" width="8" height="8" fill="#E5E6EB"/>
<rect x="176" width="8" height="8" fill="#E5E6EB"/>
<rect x="192" width="8" height="8" fill="#E5E6EB"/>
<rect x="208" width="8" height="8" fill="#E5E6EB"/>
<rect x="224" width="8" height="8" fill="#E5E6EB"/>
<rect x="240" width="8" height="8" fill="#E5E6EB"/>
<rect x="256" width="8" height="8" fill="#E5E6EB"/>
<rect x="272" width="8" height="8" fill="#E5E6EB"/>
<rect x="288" width="8" height="8" fill="#E5E6EB"/>
<rect x="304" width="8" height="8" fill="#E5E6EB"/>
<rect x="320" width="8" height="8" fill="#E5E6EB"/>
<rect x="336" width="8" height="8" fill="#E5E6EB"/>
<rect x="352" width="8" height="8" fill="#E5E6EB"/>
<rect x="368" width="8" height="8" fill="#E5E6EB"/>
<rect width="376" height="8" transform="translate(0 8)" fill="#E5E6EB"/>
<rect y="8" width="8" height="8" fill="white"/>
<rect x="16" y="8" width="8" height="8" fill="white"/>
<rect x="32" y="8" width="8" height="8" fill="white"/>
<rect x="48" y="8" width="8" height="8" fill="white"/>
<rect x="64" y="8" width="8" height="8" fill="white"/>
<rect x="80" y="8" width="8" height="8" fill="white"/>
<rect x="96" y="8" width="8" height="8" fill="white"/>
<rect x="112" y="8" width="8" height="8" fill="white"/>
<rect x="128" y="8" width="8" height="8" fill="white"/>
<rect x="144" y="8" width="8" height="8" fill="white"/>
<rect x="160" y="8" width="8" height="8" fill="white"/>
<rect x="176" y="8" width="8" height="8" fill="white"/>
<rect x="192" y="8" width="8" height="8" fill="white"/>
<rect x="208" y="8" width="8" height="8" fill="white"/>
<rect x="224" y="8" width="8" height="8" fill="white"/>
<rect x="240" y="8" width="8" height="8" fill="white"/>
<rect x="256" y="8" width="8" height="8" fill="white"/>
<rect x="272" y="8" width="8" height="8" fill="white"/>
<rect x="288" y="8" width="8" height="8" fill="white"/>
<rect x="304" y="8" width="8" height="8" fill="white"/>
<rect x="320" y="8" width="8" height="8" fill="white"/>
<rect x="336" y="8" width="8" height="8" fill="white"/>
<rect x="352" y="8" width="8" height="8" fill="white"/>
<rect x="368" y="8" width="8" height="8" fill="white"/>
<rect width="376" height="8" transform="translate(0 16)" fill="white"/>
<rect y="16" width="8" height="8" fill="#E5E6EB"/>
<rect x="16" y="16" width="8" height="8" fill="#E5E6EB"/>
<rect x="32" y="16" width="8" height="8" fill="#E5E6EB"/>
<rect x="48" y="16" width="8" height="8" fill="#E5E6EB"/>
<rect x="64" y="16" width="8" height="8" fill="#E5E6EB"/>
<rect x="80" y="16" width="8" height="8" fill="#E5E6EB"/>
<rect x="96" y="16" width="8" height="8" fill="#E5E6EB"/>
<rect x="112" y="16" width="8" height="8" fill="#E5E6EB"/>
<rect x="128" y="16" width="8" height="8" fill="#E5E6EB"/>
<rect x="144" y="16" width="8" height="8" fill="#E5E6EB"/>
<rect x="160" y="16" width="8" height="8" fill="#E5E6EB"/>
<rect x="176" y="16" width="8" height="8" fill="#E5E6EB"/>
<rect x="192" y="16" width="8" height="8" fill="#E5E6EB"/>
<rect x="208" y="16" width="8" height="8" fill="#E5E6EB"/>
<rect x="224" y="16" width="8" height="8" fill="#E5E6EB"/>
<rect x="240" y="16" width="8" height="8" fill="#E5E6EB"/>
<rect x="256" y="16" width="8" height="8" fill="#E5E6EB"/>
<rect x="272" y="16" width="8" height="8" fill="#E5E6EB"/>
<rect x="288" y="16" width="8" height="8" fill="#E5E6EB"/>
<rect x="304" y="16" width="8" height="8" fill="#E5E6EB"/>
<rect x="320" y="16" width="8" height="8" fill="#E5E6EB"/>
<rect x="336" y="16" width="8" height="8" fill="#E5E6EB"/>
<rect x="352" y="16" width="8" height="8" fill="#E5E6EB"/>
<rect x="368" y="16" width="8" height="8" fill="#E5E6EB"/>
<rect width="376" height="8" transform="translate(0 24)" fill="#E5E6EB"/>
<rect y="24" width="8" height="8" fill="white"/>
<rect x="16" y="24" width="8" height="8" fill="white"/>
<rect x="32" y="24" width="8" height="8" fill="white"/>
<rect x="48" y="24" width="8" height="8" fill="white"/>
<rect x="64" y="24" width="8" height="8" fill="white"/>
<rect x="80" y="24" width="8" height="8" fill="white"/>
<rect x="96" y="24" width="8" height="8" fill="white"/>
<rect x="112" y="24" width="8" height="8" fill="white"/>
<rect x="128" y="24" width="8" height="8" fill="white"/>
<rect x="144" y="24" width="8" height="8" fill="white"/>
<rect x="160" y="24" width="8" height="8" fill="white"/>
<rect x="176" y="24" width="8" height="8" fill="white"/>
<rect x="192" y="24" width="8" height="8" fill="white"/>
<rect x="208" y="24" width="8" height="8" fill="white"/>
<rect x="224" y="24" width="8" height="8" fill="white"/>
<rect x="240" y="24" width="8" height="8" fill="white"/>
<rect x="256" y="24" width="8" height="8" fill="white"/>
<rect x="272" y="24" width="8" height="8" fill="white"/>
<rect x="288" y="24" width="8" height="8" fill="white"/>
<rect x="304" y="24" width="8" height="8" fill="white"/>
<rect x="320" y="24" width="8" height="8" fill="white"/>
<rect x="336" y="24" width="8" height="8" fill="white"/>
<rect x="352" y="24" width="8" height="8" fill="white"/>
<rect x="368" y="24" width="8" height="8" fill="white"/>
<rect width="376" height="8" transform="translate(0 32)" fill="white"/>
<rect y="32" width="8" height="8" fill="#E5E6EB"/>
<rect x="16" y="32" width="8" height="8" fill="#E5E6EB"/>
<rect x="32" y="32" width="8" height="8" fill="#E5E6EB"/>
<rect x="48" y="32" width="8" height="8" fill="#E5E6EB"/>
<rect x="64" y="32" width="8" height="8" fill="#E5E6EB"/>
<rect x="80" y="32" width="8" height="8" fill="#E5E6EB"/>
<rect x="96" y="32" width="8" height="8" fill="#E5E6EB"/>
<rect x="112" y="32" width="8" height="8" fill="#E5E6EB"/>
<rect x="128" y="32" width="8" height="8" fill="#E5E6EB"/>
<rect x="144" y="32" width="8" height="8" fill="#E5E6EB"/>
<rect x="160" y="32" width="8" height="8" fill="#E5E6EB"/>
<rect x="176" y="32" width="8" height="8" fill="#E5E6EB"/>
<rect x="192" y="32" width="8" height="8" fill="#E5E6EB"/>
<rect x="208" y="32" width="8" height="8" fill="#E5E6EB"/>
<rect x="224" y="32" width="8" height="8" fill="#E5E6EB"/>
<rect x="240" y="32" width="8" height="8" fill="#E5E6EB"/>
<rect x="256" y="32" width="8" height="8" fill="#E5E6EB"/>
<rect x="272" y="32" width="8" height="8" fill="#E5E6EB"/>
<rect x="288" y="32" width="8" height="8" fill="#E5E6EB"/>
<rect x="304" y="32" width="8" height="8" fill="#E5E6EB"/>
<rect x="320" y="32" width="8" height="8" fill="#E5E6EB"/>
<rect x="336" y="32" width="8" height="8" fill="#E5E6EB"/>
<rect x="352" y="32" width="8" height="8" fill="#E5E6EB"/>
<rect x="368" y="32" width="8" height="8" fill="#E5E6EB"/>
<rect width="376" height="8" transform="translate(0 40)" fill="#E5E6EB"/>
<rect y="40" width="8" height="8" fill="white"/>
<rect x="16" y="40" width="8" height="8" fill="white"/>
<rect x="32" y="40" width="8" height="8" fill="white"/>
<rect x="48" y="40" width="8" height="8" fill="white"/>
<rect x="64" y="40" width="8" height="8" fill="white"/>
<rect x="80" y="40" width="8" height="8" fill="white"/>
<rect x="96" y="40" width="8" height="8" fill="white"/>
<rect x="112" y="40" width="8" height="8" fill="white"/>
<rect x="128" y="40" width="8" height="8" fill="white"/>
<rect x="144" y="40" width="8" height="8" fill="white"/>
<rect x="160" y="40" width="8" height="8" fill="white"/>
<rect x="176" y="40" width="8" height="8" fill="white"/>
<rect x="192" y="40" width="8" height="8" fill="white"/>
<rect x="208" y="40" width="8" height="8" fill="white"/>
<rect x="224" y="40" width="8" height="8" fill="white"/>
<rect x="240" y="40" width="8" height="8" fill="white"/>
<rect x="256" y="40" width="8" height="8" fill="white"/>
<rect x="272" y="40" width="8" height="8" fill="white"/>
<rect x="288" y="40" width="8" height="8" fill="white"/>
<rect x="304" y="40" width="8" height="8" fill="white"/>
<rect x="320" y="40" width="8" height="8" fill="white"/>
<rect x="336" y="40" width="8" height="8" fill="white"/>
<rect x="352" y="40" width="8" height="8" fill="white"/>
<rect x="368" y="40" width="8" height="8" fill="white"/>
<rect width="376" height="8" transform="translate(0 48)" fill="white"/>
<rect y="48" width="8" height="8" fill="#E5E6EB"/>
<rect x="16" y="48" width="8" height="8" fill="#E5E6EB"/>
<rect x="32" y="48" width="8" height="8" fill="#E5E6EB"/>
<rect x="48" y="48" width="8" height="8" fill="#E5E6EB"/>
<rect x="64" y="48" width="8" height="8" fill="#E5E6EB"/>
<rect x="80" y="48" width="8" height="8" fill="#E5E6EB"/>
<rect x="96" y="48" width="8" height="8" fill="#E5E6EB"/>
<rect x="112" y="48" width="8" height="8" fill="#E5E6EB"/>
<rect x="128" y="48" width="8" height="8" fill="#E5E6EB"/>
<rect x="144" y="48" width="8" height="8" fill="#E5E6EB"/>
<rect x="160" y="48" width="8" height="8" fill="#E5E6EB"/>
<rect x="176" y="48" width="8" height="8" fill="#E5E6EB"/>
<rect x="192" y="48" width="8" height="8" fill="#E5E6EB"/>
<rect x="208" y="48" width="8" height="8" fill="#E5E6EB"/>
<rect x="224" y="48" width="8" height="8" fill="#E5E6EB"/>
<rect x="240" y="48" width="8" height="8" fill="#E5E6EB"/>
<rect x="256" y="48" width="8" height="8" fill="#E5E6EB"/>
<rect x="272" y="48" width="8" height="8" fill="#E5E6EB"/>
<rect x="288" y="48" width="8" height="8" fill="#E5E6EB"/>
<rect x="304" y="48" width="8" height="8" fill="#E5E6EB"/>
<rect x="320" y="48" width="8" height="8" fill="#E5E6EB"/>
<rect x="336" y="48" width="8" height="8" fill="#E5E6EB"/>
<rect x="352" y="48" width="8" height="8" fill="#E5E6EB"/>
<rect x="368" y="48" width="8" height="8" fill="#E5E6EB"/>
<rect width="376" height="8" transform="translate(0 56)" fill="#E5E6EB"/>
<rect y="56" width="8" height="8" fill="white"/>
<rect x="16" y="56" width="8" height="8" fill="white"/>
<rect x="32" y="56" width="8" height="8" fill="white"/>
<rect x="48" y="56" width="8" height="8" fill="white"/>
<rect x="64" y="56" width="8" height="8" fill="white"/>
<rect x="80" y="56" width="8" height="8" fill="white"/>
<rect x="96" y="56" width="8" height="8" fill="white"/>
<rect x="112" y="56" width="8" height="8" fill="white"/>
<rect x="128" y="56" width="8" height="8" fill="white"/>
<rect x="144" y="56" width="8" height="8" fill="white"/>
<rect x="160" y="56" width="8" height="8" fill="white"/>
<rect x="176" y="56" width="8" height="8" fill="white"/>
<rect x="192" y="56" width="8" height="8" fill="white"/>
<rect x="208" y="56" width="8" height="8" fill="white"/>
<rect x="224" y="56" width="8" height="8" fill="white"/>
<rect x="240" y="56" width="8" height="8" fill="white"/>
<rect x="256" y="56" width="8" height="8" fill="white"/>
<rect x="272" y="56" width="8" height="8" fill="white"/>
<rect x="288" y="56" width="8" height="8" fill="white"/>
<rect x="304" y="56" width="8" height="8" fill="white"/>
<rect x="320" y="56" width="8" height="8" fill="white"/>
<rect x="336" y="56" width="8" height="8" fill="white"/>
<rect x="352" y="56" width="8" height="8" fill="white"/>
<rect x="368" y="56" width="8" height="8" fill="white"/>
<rect width="376" height="8" transform="translate(0 64)" fill="white"/>
<rect y="64" width="8" height="8" fill="#E5E6EB"/>
<rect x="16" y="64" width="8" height="8" fill="#E5E6EB"/>
<rect x="32" y="64" width="8" height="8" fill="#E5E6EB"/>
<rect x="48" y="64" width="8" height="8" fill="#E5E6EB"/>
<rect x="64" y="64" width="8" height="8" fill="#E5E6EB"/>
<rect x="80" y="64" width="8" height="8" fill="#E5E6EB"/>
<rect x="96" y="64" width="8" height="8" fill="#E5E6EB"/>
<rect x="112" y="64" width="8" height="8" fill="#E5E6EB"/>
<rect x="128" y="64" width="8" height="8" fill="#E5E6EB"/>
<rect x="144" y="64" width="8" height="8" fill="#E5E6EB"/>
<rect x="160" y="64" width="8" height="8" fill="#E5E6EB"/>
<rect x="176" y="64" width="8" height="8" fill="#E5E6EB"/>
<rect x="192" y="64" width="8" height="8" fill="#E5E6EB"/>
<rect x="208" y="64" width="8" height="8" fill="#E5E6EB"/>
<rect x="224" y="64" width="8" height="8" fill="#E5E6EB"/>
<rect x="240" y="64" width="8" height="8" fill="#E5E6EB"/>
<rect x="256" y="64" width="8" height="8" fill="#E5E6EB"/>
<rect x="272" y="64" width="8" height="8" fill="#E5E6EB"/>
<rect x="288" y="64" width="8" height="8" fill="#E5E6EB"/>
<rect x="304" y="64" width="8" height="8" fill="#E5E6EB"/>
<rect x="320" y="64" width="8" height="8" fill="#E5E6EB"/>
<rect x="336" y="64" width="8" height="8" fill="#E5E6EB"/>
<rect x="352" y="64" width="8" height="8" fill="#E5E6EB"/>
<rect x="368" y="64" width="8" height="8" fill="#E5E6EB"/>
<rect width="376" height="8" transform="translate(0 72)" fill="#E5E6EB"/>
<rect y="72" width="8" height="8" fill="white"/>
<rect x="16" y="72" width="8" height="8" fill="white"/>
<rect x="32" y="72" width="8" height="8" fill="white"/>
<rect x="48" y="72" width="8" height="8" fill="white"/>
<rect x="64" y="72" width="8" height="8" fill="white"/>
<rect x="80" y="72" width="8" height="8" fill="white"/>
<rect x="96" y="72" width="8" height="8" fill="white"/>
<rect x="112" y="72" width="8" height="8" fill="white"/>
<rect x="128" y="72" width="8" height="8" fill="white"/>
<rect x="144" y="72" width="8" height="8" fill="white"/>
<rect x="160" y="72" width="8" height="8" fill="white"/>
<rect x="176" y="72" width="8" height="8" fill="white"/>
<rect x="192" y="72" width="8" height="8" fill="white"/>
<rect x="208" y="72" width="8" height="8" fill="white"/>
<rect x="224" y="72" width="8" height="8" fill="white"/>
<rect x="240" y="72" width="8" height="8" fill="white"/>
<rect x="256" y="72" width="8" height="8" fill="white"/>
<rect x="272" y="72" width="8" height="8" fill="white"/>
<rect x="288" y="72" width="8" height="8" fill="white"/>
<rect x="304" y="72" width="8" height="8" fill="white"/>
<rect x="320" y="72" width="8" height="8" fill="white"/>
<rect x="336" y="72" width="8" height="8" fill="white"/>
<rect x="352" y="72" width="8" height="8" fill="white"/>
<rect x="368" y="72" width="8" height="8" fill="white"/>
<rect width="376" height="8" transform="translate(0 80)" fill="white"/>
<rect y="80" width="8" height="8" fill="#E5E6EB"/>
<rect x="16" y="80" width="8" height="8" fill="#E5E6EB"/>
<rect x="32" y="80" width="8" height="8" fill="#E5E6EB"/>
<rect x="48" y="80" width="8" height="8" fill="#E5E6EB"/>
<rect x="64" y="80" width="8" height="8" fill="#E5E6EB"/>
<rect x="80" y="80" width="8" height="8" fill="#E5E6EB"/>
<rect x="96" y="80" width="8" height="8" fill="#E5E6EB"/>
<rect x="112" y="80" width="8" height="8" fill="#E5E6EB"/>
<rect x="128" y="80" width="8" height="8" fill="#E5E6EB"/>
<rect x="144" y="80" width="8" height="8" fill="#E5E6EB"/>
<rect x="160" y="80" width="8" height="8" fill="#E5E6EB"/>
<rect x="176" y="80" width="8" height="8" fill="#E5E6EB"/>
<rect x="192" y="80" width="8" height="8" fill="#E5E6EB"/>
<rect x="208" y="80" width="8" height="8" fill="#E5E6EB"/>
<rect x="224" y="80" width="8" height="8" fill="#E5E6EB"/>
<rect x="240" y="80" width="8" height="8" fill="#E5E6EB"/>
<rect x="256" y="80" width="8" height="8" fill="#E5E6EB"/>
<rect x="272" y="80" width="8" height="8" fill="#E5E6EB"/>
<rect x="288" y="80" width="8" height="8" fill="#E5E6EB"/>
<rect x="304" y="80" width="8" height="8" fill="#E5E6EB"/>
<rect x="320" y="80" width="8" height="8" fill="#E5E6EB"/>
<rect x="336" y="80" width="8" height="8" fill="#E5E6EB"/>
<rect x="352" y="80" width="8" height="8" fill="#E5E6EB"/>
<rect x="368" y="80" width="8" height="8" fill="#E5E6EB"/>
<rect width="376" height="8" transform="translate(0 88)" fill="#E5E6EB"/>
<rect y="88" width="8" height="8" fill="white"/>
<rect x="16" y="88" width="8" height="8" fill="white"/>
<rect x="32" y="88" width="8" height="8" fill="white"/>
<rect x="48" y="88" width="8" height="8" fill="white"/>
<rect x="64" y="88" width="8" height="8" fill="white"/>
<rect x="80" y="88" width="8" height="8" fill="white"/>
<rect x="96" y="88" width="8" height="8" fill="white"/>
<rect x="112" y="88" width="8" height="8" fill="white"/>
<rect x="128" y="88" width="8" height="8" fill="white"/>
<rect x="144" y="88" width="8" height="8" fill="white"/>
<rect x="160" y="88" width="8" height="8" fill="white"/>
<rect x="176" y="88" width="8" height="8" fill="white"/>
<rect x="192" y="88" width="8" height="8" fill="white"/>
<rect x="208" y="88" width="8" height="8" fill="white"/>
<rect x="224" y="88" width="8" height="8" fill="white"/>
<rect x="240" y="88" width="8" height="8" fill="white"/>
<rect x="256" y="88" width="8" height="8" fill="white"/>
<rect x="272" y="88" width="8" height="8" fill="white"/>
<rect x="288" y="88" width="8" height="8" fill="white"/>
<rect x="304" y="88" width="8" height="8" fill="white"/>
<rect x="320" y="88" width="8" height="8" fill="white"/>
<rect x="336" y="88" width="8" height="8" fill="white"/>
<rect x="352" y="88" width="8" height="8" fill="white"/>
<rect x="368" y="88" width="8" height="8" fill="white"/>
<rect width="376" height="8" transform="translate(0 96)" fill="white"/>
<rect y="96" width="8" height="8" fill="#E5E6EB"/>
<rect x="16" y="96" width="8" height="8" fill="#E5E6EB"/>
<rect x="32" y="96" width="8" height="8" fill="#E5E6EB"/>
<rect x="48" y="96" width="8" height="8" fill="#E5E6EB"/>
<rect x="64" y="96" width="8" height="8" fill="#E5E6EB"/>
<rect x="80" y="96" width="8" height="8" fill="#E5E6EB"/>
<rect x="96" y="96" width="8" height="8" fill="#E5E6EB"/>
<rect x="112" y="96" width="8" height="8" fill="#E5E6EB"/>
<rect x="128" y="96" width="8" height="8" fill="#E5E6EB"/>
<rect x="144" y="96" width="8" height="8" fill="#E5E6EB"/>
<rect x="160" y="96" width="8" height="8" fill="#E5E6EB"/>
<rect x="176" y="96" width="8" height="8" fill="#E5E6EB"/>
<rect x="192" y="96" width="8" height="8" fill="#E5E6EB"/>
<rect x="208" y="96" width="8" height="8" fill="#E5E6EB"/>
<rect x="224" y="96" width="8" height="8" fill="#E5E6EB"/>
<rect x="240" y="96" width="8" height="8" fill="#E5E6EB"/>
<rect x="256" y="96" width="8" height="8" fill="#E5E6EB"/>
<rect x="272" y="96" width="8" height="8" fill="#E5E6EB"/>
<rect x="288" y="96" width="8" height="8" fill="#E5E6EB"/>
<rect x="304" y="96" width="8" height="8" fill="#E5E6EB"/>
<rect x="320" y="96" width="8" height="8" fill="#E5E6EB"/>
<rect x="336" y="96" width="8" height="8" fill="#E5E6EB"/>
<rect x="352" y="96" width="8" height="8" fill="#E5E6EB"/>
<rect x="368" y="96" width="8" height="8" fill="#E5E6EB"/>
<rect width="376" height="8" transform="translate(0 104)" fill="#E5E6EB"/>
<rect y="104" width="8" height="8" fill="white"/>
<rect x="16" y="104" width="8" height="8" fill="white"/>
<rect x="32" y="104" width="8" height="8" fill="white"/>
<rect x="48" y="104" width="8" height="8" fill="white"/>
<rect x="64" y="104" width="8" height="8" fill="white"/>
<rect x="80" y="104" width="8" height="8" fill="white"/>
<rect x="96" y="104" width="8" height="8" fill="white"/>
<rect x="112" y="104" width="8" height="8" fill="white"/>
<rect x="128" y="104" width="8" height="8" fill="white"/>
<rect x="144" y="104" width="8" height="8" fill="white"/>
<rect x="160" y="104" width="8" height="8" fill="white"/>
<rect x="176" y="104" width="8" height="8" fill="white"/>
<rect x="192" y="104" width="8" height="8" fill="white"/>
<rect x="208" y="104" width="8" height="8" fill="white"/>
<rect x="224" y="104" width="8" height="8" fill="white"/>
<rect x="240" y="104" width="8" height="8" fill="white"/>
<rect x="256" y="104" width="8" height="8" fill="white"/>
<rect x="272" y="104" width="8" height="8" fill="white"/>
<rect x="288" y="104" width="8" height="8" fill="white"/>
<rect x="304" y="104" width="8" height="8" fill="white"/>
<rect x="320" y="104" width="8" height="8" fill="white"/>
<rect x="336" y="104" width="8" height="8" fill="white"/>
<rect x="352" y="104" width="8" height="8" fill="white"/>
<rect x="368" y="104" width="8" height="8" fill="white"/>
<rect width="376" height="8" transform="translate(0 112)" fill="white"/>
<rect y="112" width="8" height="8" fill="#E5E6EB"/>
<rect x="16" y="112" width="8" height="8" fill="#E5E6EB"/>
<rect x="32" y="112" width="8" height="8" fill="#E5E6EB"/>
<rect x="48" y="112" width="8" height="8" fill="#E5E6EB"/>
<rect x="64" y="112" width="8" height="8" fill="#E5E6EB"/>
<rect x="80" y="112" width="8" height="8" fill="#E5E6EB"/>
<rect x="96" y="112" width="8" height="8" fill="#E5E6EB"/>
<rect x="112" y="112" width="8" height="8" fill="#E5E6EB"/>
<rect x="128" y="112" width="8" height="8" fill="#E5E6EB"/>
<rect x="144" y="112" width="8" height="8" fill="#E5E6EB"/>
<rect x="160" y="112" width="8" height="8" fill="#E5E6EB"/>
<rect x="176" y="112" width="8" height="8" fill="#E5E6EB"/>
<rect x="192" y="112" width="8" height="8" fill="#E5E6EB"/>
<rect x="208" y="112" width="8" height="8" fill="#E5E6EB"/>
<rect x="224" y="112" width="8" height="8" fill="#E5E6EB"/>
<rect x="240" y="112" width="8" height="8" fill="#E5E6EB"/>
<rect x="256" y="112" width="8" height="8" fill="#E5E6EB"/>
<rect x="272" y="112" width="8" height="8" fill="#E5E6EB"/>
<rect x="288" y="112" width="8" height="8" fill="#E5E6EB"/>
<rect x="304" y="112" width="8" height="8" fill="#E5E6EB"/>
<rect x="320" y="112" width="8" height="8" fill="#E5E6EB"/>
<rect x="336" y="112" width="8" height="8" fill="#E5E6EB"/>
<rect x="352" y="112" width="8" height="8" fill="#E5E6EB"/>
<rect x="368" y="112" width="8" height="8" fill="#E5E6EB"/>
<rect width="376" height="8" transform="translate(0 120)" fill="#E5E6EB"/>
<rect y="120" width="8" height="8" fill="white"/>
<rect x="16" y="120" width="8" height="8" fill="white"/>
<rect x="32" y="120" width="8" height="8" fill="white"/>
<rect x="48" y="120" width="8" height="8" fill="white"/>
<rect x="64" y="120" width="8" height="8" fill="white"/>
<rect x="80" y="120" width="8" height="8" fill="white"/>
<rect x="96" y="120" width="8" height="8" fill="white"/>
<rect x="112" y="120" width="8" height="8" fill="white"/>
<rect x="128" y="120" width="8" height="8" fill="white"/>
<rect x="144" y="120" width="8" height="8" fill="white"/>
<rect x="160" y="120" width="8" height="8" fill="white"/>
<rect x="176" y="120" width="8" height="8" fill="white"/>
<rect x="192" y="120" width="8" height="8" fill="white"/>
<rect x="208" y="120" width="8" height="8" fill="white"/>
<rect x="224" y="120" width="8" height="8" fill="white"/>
<rect x="240" y="120" width="8" height="8" fill="white"/>
<rect x="256" y="120" width="8" height="8" fill="white"/>
<rect x="272" y="120" width="8" height="8" fill="white"/>
<rect x="288" y="120" width="8" height="8" fill="white"/>
<rect x="304" y="120" width="8" height="8" fill="white"/>
<rect x="320" y="120" width="8" height="8" fill="white"/>
<rect x="336" y="120" width="8" height="8" fill="white"/>
<rect x="352" y="120" width="8" height="8" fill="white"/>
<rect x="368" y="120" width="8" height="8" fill="white"/>
<rect width="376" height="8" transform="translate(0 128)" fill="white"/>
<rect y="128" width="8" height="8" fill="#E5E6EB"/>
<rect x="16" y="128" width="8" height="8" fill="#E5E6EB"/>
<rect x="32" y="128" width="8" height="8" fill="#E5E6EB"/>
<rect x="48" y="128" width="8" height="8" fill="#E5E6EB"/>
<rect x="64" y="128" width="8" height="8" fill="#E5E6EB"/>
<rect x="80" y="128" width="8" height="8" fill="#E5E6EB"/>
<rect x="96" y="128" width="8" height="8" fill="#E5E6EB"/>
<rect x="112" y="128" width="8" height="8" fill="#E5E6EB"/>
<rect x="128" y="128" width="8" height="8" fill="#E5E6EB"/>
<rect x="144" y="128" width="8" height="8" fill="#E5E6EB"/>
<rect x="160" y="128" width="8" height="8" fill="#E5E6EB"/>
<rect x="176" y="128" width="8" height="8" fill="#E5E6EB"/>
<rect x="192" y="128" width="8" height="8" fill="#E5E6EB"/>
<rect x="208" y="128" width="8" height="8" fill="#E5E6EB"/>
<rect x="224" y="128" width="8" height="8" fill="#E5E6EB"/>
<rect x="240" y="128" width="8" height="8" fill="#E5E6EB"/>
<rect x="256" y="128" width="8" height="8" fill="#E5E6EB"/>
<rect x="272" y="128" width="8" height="8" fill="#E5E6EB"/>
<rect x="288" y="128" width="8" height="8" fill="#E5E6EB"/>
<rect x="304" y="128" width="8" height="8" fill="#E5E6EB"/>
<rect x="320" y="128" width="8" height="8" fill="#E5E6EB"/>
<rect x="336" y="128" width="8" height="8" fill="#E5E6EB"/>
<rect x="352" y="128" width="8" height="8" fill="#E5E6EB"/>
<rect x="368" y="128" width="8" height="8" fill="#E5E6EB"/>
<rect width="376" height="8" transform="translate(0 136)" fill="#E5E6EB"/>
<rect y="136" width="8" height="8" fill="white"/>
<rect x="16" y="136" width="8" height="8" fill="white"/>
<rect x="32" y="136" width="8" height="8" fill="white"/>
<rect x="48" y="136" width="8" height="8" fill="white"/>
<rect x="64" y="136" width="8" height="8" fill="white"/>
<rect x="80" y="136" width="8" height="8" fill="white"/>
<rect x="96" y="136" width="8" height="8" fill="white"/>
<rect x="112" y="136" width="8" height="8" fill="white"/>
<rect x="128" y="136" width="8" height="8" fill="white"/>
<rect x="144" y="136" width="8" height="8" fill="white"/>
<rect x="160" y="136" width="8" height="8" fill="white"/>
<rect x="176" y="136" width="8" height="8" fill="white"/>
<rect x="192" y="136" width="8" height="8" fill="white"/>
<rect x="208" y="136" width="8" height="8" fill="white"/>
<rect x="224" y="136" width="8" height="8" fill="white"/>
<rect x="240" y="136" width="8" height="8" fill="white"/>
<rect x="256" y="136" width="8" height="8" fill="white"/>
<rect x="272" y="136" width="8" height="8" fill="white"/>
<rect x="288" y="136" width="8" height="8" fill="white"/>
<rect x="304" y="136" width="8" height="8" fill="white"/>
<rect x="320" y="136" width="8" height="8" fill="white"/>
<rect x="336" y="136" width="8" height="8" fill="white"/>
<rect x="352" y="136" width="8" height="8" fill="white"/>
<rect x="368" y="136" width="8" height="8" fill="white"/>
<rect width="376" height="8" transform="translate(0 144)" fill="white"/>
<rect y="144" width="8" height="8" fill="#E5E6EB"/>
<rect x="16" y="144" width="8" height="8" fill="#E5E6EB"/>
<rect x="32" y="144" width="8" height="8" fill="#E5E6EB"/>
<rect x="48" y="144" width="8" height="8" fill="#E5E6EB"/>
<rect x="64" y="144" width="8" height="8" fill="#E5E6EB"/>
<rect x="80" y="144" width="8" height="8" fill="#E5E6EB"/>
<rect x="96" y="144" width="8" height="8" fill="#E5E6EB"/>
<rect x="112" y="144" width="8" height="8" fill="#E5E6EB"/>
<rect x="128" y="144" width="8" height="8" fill="#E5E6EB"/>
<rect x="144" y="144" width="8" height="8" fill="#E5E6EB"/>
<rect x="160" y="144" width="8" height="8" fill="#E5E6EB"/>
<rect x="176" y="144" width="8" height="8" fill="#E5E6EB"/>
<rect x="192" y="144" width="8" height="8" fill="#E5E6EB"/>
<rect x="208" y="144" width="8" height="8" fill="#E5E6EB"/>
<rect x="224" y="144" width="8" height="8" fill="#E5E6EB"/>
<rect x="240" y="144" width="8" height="8" fill="#E5E6EB"/>
<rect x="256" y="144" width="8" height="8" fill="#E5E6EB"/>
<rect x="272" y="144" width="8" height="8" fill="#E5E6EB"/>
<rect x="288" y="144" width="8" height="8" fill="#E5E6EB"/>
<rect x="304" y="144" width="8" height="8" fill="#E5E6EB"/>
<rect x="320" y="144" width="8" height="8" fill="#E5E6EB"/>
<rect x="336" y="144" width="8" height="8" fill="#E5E6EB"/>
<rect x="352" y="144" width="8" height="8" fill="#E5E6EB"/>
<rect x="368" y="144" width="8" height="8" fill="#E5E6EB"/>
<rect width="376" height="8" transform="translate(0 152)" fill="#E5E6EB"/>
<rect y="152" width="8" height="8" fill="white"/>
<rect x="16" y="152" width="8" height="8" fill="white"/>
<rect x="32" y="152" width="8" height="8" fill="white"/>
<rect x="48" y="152" width="8" height="8" fill="white"/>
<rect x="64" y="152" width="8" height="8" fill="white"/>
<rect x="80" y="152" width="8" height="8" fill="white"/>
<rect x="96" y="152" width="8" height="8" fill="white"/>
<rect x="112" y="152" width="8" height="8" fill="white"/>
<rect x="128" y="152" width="8" height="8" fill="white"/>
<rect x="144" y="152" width="8" height="8" fill="white"/>
<rect x="160" y="152" width="8" height="8" fill="white"/>
<rect x="176" y="152" width="8" height="8" fill="white"/>
<rect x="192" y="152" width="8" height="8" fill="white"/>
<rect x="208" y="152" width="8" height="8" fill="white"/>
<rect x="224" y="152" width="8" height="8" fill="white"/>
<rect x="240" y="152" width="8" height="8" fill="white"/>
<rect x="256" y="152" width="8" height="8" fill="white"/>
<rect x="272" y="152" width="8" height="8" fill="white"/>
<rect x="288" y="152" width="8" height="8" fill="white"/>
<rect x="304" y="152" width="8" height="8" fill="white"/>
<rect x="320" y="152" width="8" height="8" fill="white"/>
<rect x="336" y="152" width="8" height="8" fill="white"/>
<rect x="352" y="152" width="8" height="8" fill="white"/>
<rect x="368" y="152" width="8" height="8" fill="white"/>
<rect width="376" height="8" transform="translate(0 160)" fill="white"/>
<rect y="160" width="8" height="8" fill="#E5E6EB"/>
<rect x="16" y="160" width="8" height="8" fill="#E5E6EB"/>
<rect x="32" y="160" width="8" height="8" fill="#E5E6EB"/>
<rect x="48" y="160" width="8" height="8" fill="#E5E6EB"/>
<rect x="64" y="160" width="8" height="8" fill="#E5E6EB"/>
<rect x="80" y="160" width="8" height="8" fill="#E5E6EB"/>
<rect x="96" y="160" width="8" height="8" fill="#E5E6EB"/>
<rect x="112" y="160" width="8" height="8" fill="#E5E6EB"/>
<rect x="128" y="160" width="8" height="8" fill="#E5E6EB"/>
<rect x="144" y="160" width="8" height="8" fill="#E5E6EB"/>
<rect x="160" y="160" width="8" height="8" fill="#E5E6EB"/>
<rect x="176" y="160" width="8" height="8" fill="#E5E6EB"/>
<rect x="192" y="160" width="8" height="8" fill="#E5E6EB"/>
<rect x="208" y="160" width="8" height="8" fill="#E5E6EB"/>
<rect x="224" y="160" width="8" height="8" fill="#E5E6EB"/>
<rect x="240" y="160" width="8" height="8" fill="#E5E6EB"/>
<rect x="256" y="160" width="8" height="8" fill="#E5E6EB"/>
<rect x="272" y="160" width="8" height="8" fill="#E5E6EB"/>
<rect x="288" y="160" width="8" height="8" fill="#E5E6EB"/>
<rect x="304" y="160" width="8" height="8" fill="#E5E6EB"/>
<rect x="320" y="160" width="8" height="8" fill="#E5E6EB"/>
<rect x="336" y="160" width="8" height="8" fill="#E5E6EB"/>
<rect x="352" y="160" width="8" height="8" fill="#E5E6EB"/>
<rect x="368" y="160" width="8" height="8" fill="#E5E6EB"/>
<rect width="376" height="8" transform="translate(0 168)" fill="#E5E6EB"/>
<rect y="168" width="8" height="8" fill="white"/>
<rect x="16" y="168" width="8" height="8" fill="white"/>
<rect x="32" y="168" width="8" height="8" fill="white"/>
<rect x="48" y="168" width="8" height="8" fill="white"/>
<rect x="64" y="168" width="8" height="8" fill="white"/>
<rect x="80" y="168" width="8" height="8" fill="white"/>
<rect x="96" y="168" width="8" height="8" fill="white"/>
<rect x="112" y="168" width="8" height="8" fill="white"/>
<rect x="128" y="168" width="8" height="8" fill="white"/>
<rect x="144" y="168" width="8" height="8" fill="white"/>
<rect x="160" y="168" width="8" height="8" fill="white"/>
<rect x="176" y="168" width="8" height="8" fill="white"/>
<rect x="192" y="168" width="8" height="8" fill="white"/>
<rect x="208" y="168" width="8" height="8" fill="white"/>
<rect x="224" y="168" width="8" height="8" fill="white"/>
<rect x="240" y="168" width="8" height="8" fill="white"/>
<rect x="256" y="168" width="8" height="8" fill="white"/>
<rect x="272" y="168" width="8" height="8" fill="white"/>
<rect x="288" y="168" width="8" height="8" fill="white"/>
<rect x="304" y="168" width="8" height="8" fill="white"/>
<rect x="320" y="168" width="8" height="8" fill="white"/>
<rect x="336" y="168" width="8" height="8" fill="white"/>
<rect x="352" y="168" width="8" height="8" fill="white"/>
<rect x="368" y="168" width="8" height="8" fill="white"/>
<rect width="376" height="8" transform="translate(0 176)" fill="white"/>
<rect y="176" width="8" height="8" fill="#E5E6EB"/>
<rect x="16" y="176" width="8" height="8" fill="#E5E6EB"/>
<rect x="32" y="176" width="8" height="8" fill="#E5E6EB"/>
<rect x="48" y="176" width="8" height="8" fill="#E5E6EB"/>
<rect x="64" y="176" width="8" height="8" fill="#E5E6EB"/>
<rect x="80" y="176" width="8" height="8" fill="#E5E6EB"/>
<rect x="96" y="176" width="8" height="8" fill="#E5E6EB"/>
<rect x="112" y="176" width="8" height="8" fill="#E5E6EB"/>
<rect x="128" y="176" width="8" height="8" fill="#E5E6EB"/>
<rect x="144" y="176" width="8" height="8" fill="#E5E6EB"/>
<rect x="160" y="176" width="8" height="8" fill="#E5E6EB"/>
<rect x="176" y="176" width="8" height="8" fill="#E5E6EB"/>
<rect x="192" y="176" width="8" height="8" fill="#E5E6EB"/>
<rect x="208" y="176" width="8" height="8" fill="#E5E6EB"/>
<rect x="224" y="176" width="8" height="8" fill="#E5E6EB"/>
<rect x="240" y="176" width="8" height="8" fill="#E5E6EB"/>
<rect x="256" y="176" width="8" height="8" fill="#E5E6EB"/>
<rect x="272" y="176" width="8" height="8" fill="#E5E6EB"/>
<rect x="288" y="176" width="8" height="8" fill="#E5E6EB"/>
<rect x="304" y="176" width="8" height="8" fill="#E5E6EB"/>
<rect x="320" y="176" width="8" height="8" fill="#E5E6EB"/>
<rect x="336" y="176" width="8" height="8" fill="#E5E6EB"/>
<rect x="352" y="176" width="8" height="8" fill="#E5E6EB"/>
<rect x="368" y="176" width="8" height="8" fill="#E5E6EB"/>
<rect width="376" height="8" transform="translate(0 184)" fill="#E5E6EB"/>
<rect y="184" width="8" height="8" fill="white"/>
<rect x="16" y="184" width="8" height="8" fill="white"/>
<rect x="32" y="184" width="8" height="8" fill="white"/>
<rect x="48" y="184" width="8" height="8" fill="white"/>
<rect x="64" y="184" width="8" height="8" fill="white"/>
<rect x="80" y="184" width="8" height="8" fill="white"/>
<rect x="96" y="184" width="8" height="8" fill="white"/>
<rect x="112" y="184" width="8" height="8" fill="white"/>
<rect x="128" y="184" width="8" height="8" fill="white"/>
<rect x="144" y="184" width="8" height="8" fill="white"/>
<rect x="160" y="184" width="8" height="8" fill="white"/>
<rect x="176" y="184" width="8" height="8" fill="white"/>
<rect x="192" y="184" width="8" height="8" fill="white"/>
<rect x="208" y="184" width="8" height="8" fill="white"/>
<rect x="224" y="184" width="8" height="8" fill="white"/>
<rect x="240" y="184" width="8" height="8" fill="white"/>
<rect x="256" y="184" width="8" height="8" fill="white"/>
<rect x="272" y="184" width="8" height="8" fill="white"/>
<rect x="288" y="184" width="8" height="8" fill="white"/>
<rect x="304" y="184" width="8" height="8" fill="white"/>
<rect x="320" y="184" width="8" height="8" fill="white"/>
<rect x="336" y="184" width="8" height="8" fill="white"/>
<rect x="352" y="184" width="8" height="8" fill="white"/>
<rect x="368" y="184" width="8" height="8" fill="white"/>
</g>
<defs>
<clipPath id="clip0_3575_72767">
<rect width="376" height="188" rx="6" fill="white"/>
</clipPath>
</defs>
</svg>
