<svg width="26" height="26" viewBox="0 0 26 26" fill="none" xmlns="http://www.w3.org/2000/svg">
<g id="Frame 624722">
<rect width="26" height="26" fill="white" fill-opacity="0.01"/>
<g id="&#231;&#159;&#169;&#229;&#189;&#162;&#229;&#164;&#135;&#228;&#187;&#189; 6" filter="url(#filter0_b_4364_107586)">
<path fill-rule="evenodd" clip-rule="evenodd" d="M5.20001 3.9001C5.20001 3.18213 5.78204 2.6001 6.50001 2.6001H17.6615C18.0063 2.6001 18.337 2.73706 18.5808 2.98086L20.4193 4.81934C20.663 5.06313 20.8 5.39379 20.8 5.73858V13.0001C20.8 13.7181 20.218 14.3001 19.5 14.3001H6.50001C5.78204 14.3001 5.20001 13.7181 5.20001 13.0001L5.20001 3.9001Z" fill="#164CFF"/>
</g>
<path id="Vector" d="M12.9638 5.87551L8.52377 8.95834C8.50092 8.97389 8.48225 8.99484 8.46938 9.01935C8.45652 9.04385 8.44986 9.07115 8.45 9.09885C8.45 9.1264 8.45672 9.15353 8.46958 9.17788C8.48244 9.20223 8.50104 9.22305 8.52377 9.23852L12.9638 12.323C12.9885 12.3401 13.0175 12.3495 13.0475 12.3501C13.0774 12.3507 13.1068 12.3424 13.1321 12.3263C13.1579 12.3097 13.1787 12.2862 13.192 12.2585C13.2053 12.2307 13.2107 12.1998 13.2075 12.1692L13.2075 9.97847L16.9638 9.97847C16.9638 9.97847 18.9886 9.92692 19.5 11.4816C19.4461 10.9193 19.2749 10.3746 18.9976 9.88292C18.7204 9.39122 18.3431 8.96348 17.8904 8.62744C17.5009 8.35557 17.0417 8.2134 16.5734 8.22006L13.2324 8.22006L13.2324 6.02848C13.2291 5.96363 13.1942 5.90377 13.1395 5.87301C13.1127 5.85758 13.0823 5.84968 13.0513 5.85011C13.0204 5.85055 12.9902 5.85932 12.9638 5.87551Z" fill="white"/>
<g id="&#231;&#159;&#169;&#229;&#189;&#162;&#229;&#164;&#135;&#228;&#187;&#189; 5" filter="url(#filter1_b_4364_107586)">
<path fill-rule="evenodd" clip-rule="evenodd" d="M2 7.3C2 6.58203 2.58203 6 3.3 6L8.24183 6C8.55185 6 8.85166 6.11079 9.08718 6.31238L11.4128 8.303C11.6483 8.5046 11.9482 8.61538 12.2582 8.61538H22.7C23.418 8.61538 24 9.19741 24 9.91538V21.7C24 22.418 23.418 23 22.7 23H3.3C2.58203 23 2 22.418 2 21.7V7.3Z" fill="#164CFF" fill-opacity="0.16"/>
<path d="M2.25 7.3C2.25 6.7201 2.7201 6.25 3.3 6.25H8.24183C8.49223 6.25 8.73438 6.33948 8.92461 6.50231L11.2503 8.49293C11.5311 8.73329 11.8885 8.86538 12.2582 8.86538H22.7C23.2799 8.86538 23.75 9.33549 23.75 9.91538V21.7C23.75 22.2799 23.2799 22.75 22.7 22.75H3.3C2.7201 22.75 2.25 22.2799 2.25 21.7V7.3Z" stroke="white" stroke-opacity="0.502303" stroke-width="0.5"/>
</g>
<path id="Vector_2" d="M14.336 19.1748L18.776 16.092C18.7989 16.0764 18.8176 16.0554 18.8304 16.0309C18.8433 16.0064 18.8499 15.9791 18.8498 15.9514C18.8498 15.9239 18.8431 15.8968 18.8302 15.8724C18.8174 15.8481 18.7988 15.8272 18.776 15.8118L14.336 12.7273C14.3114 12.7102 14.2823 12.7008 14.2524 12.7002C14.2224 12.6996 14.193 12.7079 14.1677 12.7239C14.1419 12.7406 14.1211 12.7641 14.1078 12.7918C14.0945 12.8195 14.0891 12.8505 14.0923 12.8811V15.0718H10.336C10.336 15.0718 8.31119 15.1234 7.7998 13.5687C7.85371 14.131 8.02487 14.6757 8.30216 15.1674C8.57945 15.6591 8.95668 16.0868 9.4094 16.4229C9.79895 16.6947 10.2581 16.8369 10.7264 16.8302H14.0674V19.0218C14.0708 19.0867 14.1056 19.1465 14.1603 19.1773C14.1871 19.1927 14.2175 19.2006 14.2485 19.2002C14.2794 19.1997 14.3096 19.191 14.336 19.1748Z" fill="white"/>
</g>
<defs>
<filter id="filter0_b_4364_107586" x="0.782804" y="-1.81711" width="24.4344" height="20.5346" filterUnits="userSpaceOnUse" color-interpolation-filters="sRGB">
<feFlood flood-opacity="0" result="BackgroundImageFix"/>
<feGaussianBlur in="BackgroundImageFix" stdDeviation="2.2086"/>
<feComposite in2="SourceAlpha" operator="in" result="effect1_backgroundBlur_4364_107586"/>
<feBlend mode="normal" in="SourceGraphic" in2="effect1_backgroundBlur_4364_107586" result="shape"/>
</filter>
<filter id="filter1_b_4364_107586" x="-2" y="2" width="30" height="25" filterUnits="userSpaceOnUse" color-interpolation-filters="sRGB">
<feFlood flood-opacity="0" result="BackgroundImageFix"/>
<feGaussianBlur in="BackgroundImageFix" stdDeviation="2"/>
<feComposite in2="SourceAlpha" operator="in" result="effect1_backgroundBlur_4364_107586"/>
<feBlend mode="normal" in="SourceGraphic" in2="effect1_backgroundBlur_4364_107586" result="shape"/>
</filter>
</defs>
</svg>
