<svg width="164" height="163" viewBox="0 0 164 163" fill="none" xmlns="http://www.w3.org/2000/svg">
<g filter="url(#filter0_d_3707_102480)">
<g clip-path="url(#clip0_3707_102480)">
<rect x="34" y="27" width="96" height="96" rx="48" fill="#5749F6"/>
<path d="M191.384 157.058L175.893 164.962L158.707 174.373L154.483 176.688C148.785 179.812 141.6 178.35 137.611 173.257L131.238 165.123L118.977 149.465C118.977 149.465 121.138 171.413 116.797 193.984C93.4266 201.188 74.5002 200.496 55.7013 196.825C51.4783 196.007 47.2803 195.012 43.0193 193.94C34.6016 184.417 37.22 128.899 37.22 128.899L30.4955 131.907L28.5498 132.781L-1.20595 146.172L9.73108 178.181L-22.8026 188.289L-35.7953 142.985L-36.1896 141.624C-38.3919 133.949 -34.6385 125.839 -27.3137 122.432L-18.165 118.141L25.1257 97.8394C34.5085 93.4446 45.0299 91.9406 55.3115 93.5299L56.0317 93.6297L105.644 101.308L115.609 102.838C123.815 103.64 131.165 108.155 135.473 115.058L154.425 145.4C154.425 145.4 170.452 135.82 183.461 127.577C181.768 151.689 191.384 157.058 191.384 157.058Z" fill="#5FAEF2"/>
<path d="M55.4953 198.204C51.3361 197.366 47.2017 196.349 43.0055 195.253C34.7294 185.567 37.4123 129.191 37.4123 129.191L30.7812 132.235C32.5349 126.264 35.7337 119.182 40.9616 125.653C42.5151 127.588 42.9569 130.205 43.0637 132.693C43.2414 137.163 42.5222 141.626 42.4696 146.119C42.4219 150.593 43.1309 155.305 45.803 158.876C47.3748 160.982 49.5726 162.631 50.7644 164.947C52.9152 169.126 51.3864 174.288 52.4991 178.858C53.4758 182.834 56.4228 186.125 57.1642 190.143C57.6818 192.945 56.9901 195.845 55.4953 198.204Z" fill="#4598E0"/>
<path d="M183.262 132.477C181.033 133.177 178.713 133.67 176.57 134.596C171.921 136.58 168.376 140.375 164.523 143.601C160.664 146.847 155.967 149.737 150.905 149.311C149.263 149.18 147.531 148.598 146.575 147.254C145.276 145.394 145.919 142.823 145.078 140.712C144.232 138.539 141.964 137.229 140.719 135.24C138.099 131.046 139.14 124.29 137.844 119.533C137.467 118.111 137.051 116.598 136.81 115.047L154.425 143.449C154.425 143.449 170.431 133.856 183.428 125.581C183.276 128.093 183.222 130.385 183.262 132.477Z" fill="#71B6F2"/>
<path d="M-1.30428 147.301L9.41078 179.831L-2.4449 183.599C-4.35132 182.254 -6.14725 180.875 -6.92714 178.707C-8.21729 175.083 -5.90971 171.281 -5.39567 167.467C-4.76148 162.691 -7.00555 158.073 -8.02143 153.362C-9.0373 148.651 -8.19522 142.648 -3.82124 140.772C-1.43713 139.74 1.37039 140.267 3.8111 139.415C6.41039 138.502 8.26911 136.155 10.7454 134.92C14.9768 132.8 20.4079 134.177 24.3875 131.598C26.4616 130.258 27.8017 128.023 29.6329 126.351C30.8521 125.243 33.4887 123.616 35.2057 124.498C37.1571 125.504 36.5381 127.389 36.4265 129.449C36.4257 129.614 36.4007 129.793 36.3999 129.959L-1.30428 147.301Z" fill="#4598E0"/>
<path d="M71.7319 71.6726C71.7319 71.6726 53.0471 69.0717 45.9473 83.1526C42.55 84.109 38.7747 87.3299 37.6644 94.353C36.0268 104.62 103.958 106.722 103.958 106.722C103.958 106.722 113.318 81.2496 71.7319 71.6726Z" fill="#5FAEF2"/>
<path d="M67.6762 74.8196C67.6762 74.8196 56.7996 74.8749 56.8314 82.9338C56.8472 88.488 62.0547 92.7226 67.8321 95.4739C75.5595 99.1821 93.6501 100.49 95.3211 98.9171C98.321 96.1325 99.4639 90.7471 93.5616 85.9925C80.5958 75.6022 67.6762 74.8196 67.6762 74.8196Z" fill="#1A1B16"/>
<path d="M116.781 117.571C116.781 117.571 119.006 127.914 118.84 148.595" stroke="#1A1B16" stroke-width="1.6127" stroke-miterlimit="10" stroke-linecap="round" stroke-linejoin="round"/>
<path d="M95.4778 98.8296C94.8351 93.5785 94.2571 88.8838 94.2571 88.8838Z" fill="#0F70D1"/>
<path d="M83.5632 105.682C83.6502 108.55 81.6347 111.167 79.0923 112.544C76.5549 113.902 73.5673 114.203 70.6832 114.182C67.7941 114.18 64.8919 113.909 62.0254 114.221C56.9422 114.805 52.1348 117.363 48.8089 121.222" stroke="white" stroke-width="1.29016" stroke-miterlimit="10" stroke-linecap="round" stroke-linejoin="round"/>
<path d="M45.8722 124.902C45.676 124.706 45.6778 124.377 45.8907 124.185L47.4974 122.623C47.691 122.425 48.0182 122.428 48.2095 122.643C48.4058 122.838 48.4039 123.167 48.1911 123.36L46.5844 124.922C46.3715 125.114 46.0684 125.097 45.8722 124.902Z" fill="white"/>
<path d="M88.1318 106.881C88.0252 113.316 83.1856 118.574 78.223 122.536C73.2603 126.498 67.6156 130.095 64.6867 135.77" stroke="white" stroke-width="1.29016" stroke-miterlimit="10" stroke-linecap="round" stroke-linejoin="round"/>
<path d="M38.1273 92.8475C38.1273 92.8475 44.4071 91.7008 46.7926 92.9319C48.4751 96.4952 54.9675 102.369 61.1553 103.764C67.3431 105.16 69.9882 108.051 69.9882 108.051" stroke="#1A1B16" stroke-width="1.6127" stroke-miterlimit="10" stroke-linecap="round" stroke-linejoin="round"/>
<path d="M45.726 83.5146L48.3706 83.1591" stroke="#1A1B16" stroke-width="1.6127" stroke-miterlimit="10" stroke-linecap="round" stroke-linejoin="round"/>
<path d="M105.27 99.6365C105.27 99.6365 104.883 102.057 98.3227 106.338" stroke="#1A1B16" stroke-width="1.6127" stroke-miterlimit="10" stroke-linecap="round" stroke-linejoin="round"/>
<path d="M63.6128 69.9864C63.6128 69.9864 55.3843 43.605 73.4778 45.0531C78.9952 38.5523 89.706 37.6224 94.6703 41.1918C97.9406 43.5402 97.8253 47.2424 97.2654 49.8021C97.2654 49.8021 103.835 49.6917 102.541 54.4774C101.194 59.4527 92.7675 65.2755 71.1896 62.7055C73.2782 69.5034 74.8179 75.7625 63.6128 69.9864Z" fill="#1A1B16"/>
<path d="M97.5743 46.8851C97.5743 46.8851 97.6599 49.6918 94.1071 53.1545" stroke="#0064C8" stroke-width="1.29016" stroke-miterlimit="10" stroke-linecap="round" stroke-linejoin="round"/>
<path d="M73.8126 44.2397C73.0466 45.0315 72.2519 46.0023 71.6186 47.1045" stroke="#0064C8" stroke-width="1.29016" stroke-miterlimit="10" stroke-linecap="round" stroke-linejoin="round"/>
<path d="M68.6445 58.5684L70.7475 60.4112" stroke="#0064C8" stroke-width="1.29016" stroke-miterlimit="10" stroke-linecap="round" stroke-linejoin="round"/>
<path d="M95.0043 98.9183C92.9512 100.918 87.8907 101.255 83.4617 100.893C73.1078 100.068 67.7767 95.3584 67.7767 95.3584L66.2729 77.0548C66.1187 77.0149 65.9645 76.9751 65.8102 76.9352C63.1699 76.0884 62.0177 73.2813 62.5742 70.4633C62.6838 69.8745 63.0157 69.2198 63.4005 68.5994C64.9838 66.0261 68.8309 66.0124 70.0607 68.7573C70.6138 69.9697 71.0354 71.3745 71.6735 71.2103C72.4228 71.0131 72.32 69.5673 72.1337 68.3674C71.8211 66.456 71.1314 60.3952 71.1314 60.3952C71.1314 60.3952 80.8056 67.0089 95.8643 61.2536C95.8835 61.2586 95.8885 61.2393 95.9078 61.2443C96.553 65.7921 97.4802 72.5313 98.1001 78.1421C99.0453 86.8194 93.8243 89.0697 93.8243 89.0697L94.0732 91.1497L95.0043 98.9183Z" fill="#F8934F"/>
<path d="M69.1171 73.0765C69.1171 73.0765 67.7991 74.4155 66.501 73.4335C65.2029 72.4516 65.7249 70.9107 65.7249 70.9107C66.2491 71.0436 66.749 71.1907 67.2292 71.4145C68.0101 71.7552 68.7123 72.3209 69.1171 73.0765Z" fill="#F77C2D"/>
<path d="M93.9077 88.8278L94.1324 90.9345L88.1736 90.2856C88.1736 90.2856 98.5489 88.3941 97.0585 76.3182C95.9191 67.0311 95.9779 62.3783 96.078 60.7182C96.0966 60.7235 96.1015 60.704 96.12 60.7093C96.7088 65.3165 97.5534 72.1436 98.11 77.8257C98.9578 86.6131 93.9077 88.8278 93.9077 88.8278Z" fill="#F9AF79"/>
<path d="M77.6346 100.299C71.1151 98.4983 67.7957 95.5238 67.7957 95.5238L66.4236 77.4117C67.3109 77.2297 68.6455 77.582 68.9047 78.2072C69.1052 78.6727 68.6189 79.7856 68.6882 80.3577C68.7766 81.1603 69.0704 81.9589 69.6163 82.5823C70.0032 83.0384 70.4971 83.4015 70.8598 83.8714C72.6787 86.2015 70.7901 89.9935 72.5262 92.4029C73.1343 93.2483 74.1168 93.7684 74.9199 94.4227C76.6486 95.8064 77.6716 98.0575 77.6346 100.299Z" fill="#F77C2D"/>
<path d="M65.7403 70.9125C65.7403 70.9125 65.2028 72.4163 66.4903 73.3968C67.7777 74.3772 69.1088 73.0821 69.1088 73.0821C68.7312 72.3408 68.0351 71.7766 67.2632 71.4132C66.4913 71.0497 65.6538 70.8496 64.8008 70.7057" stroke="#BF3028" stroke-width="1.29016" stroke-miterlimit="10" stroke-linecap="round" stroke-linejoin="round"/>
<path d="M66.2114 77.3656C66.2114 77.3656 67.2906 77.6932 68.6804 77.4001" stroke="#BF3028" stroke-width="1.29016" stroke-miterlimit="10" stroke-linecap="round" stroke-linejoin="round"/>
<path d="M86.157 90.3379C86.157 90.3379 90.4556 91.0213 94.1743 89.0484C94.3842 90.7063 94.718 93.5787 94.718 93.5787C94.718 93.5787 87.5461 91.4826 86.157 90.3379Z" fill="#BF3028"/>
<path d="M92.6666 61.9784C89.7592 63.4269 86.5827 64.3045 83.3326 64.4976C79.1735 64.7506 74.9407 63.9151 71.2059 62.1112C71.1131 62.0682 71.0006 62.0205 70.8882 61.9727C70.751 60.9696 70.6627 60.2613 70.6627 60.2613C70.6627 60.2613 79.1984 65.8675 92.6666 61.9784Z" fill="#F77C2D"/>
<path d="M90.3249 75.5334C90.3249 75.5334 88.5815 76.3302 88.1881 75.0471C87.7985 73.8257 89.3757 72.8819 90.4875 73.2687C91.5994 73.6555 91.736 74.1387 91.736 74.1387L90.3249 75.5334Z" fill="#F77C2D"/>
<path d="M89.9301 75.6097L90.7252 75.1135C91.2824 74.756 91.5244 74.0594 91.3082 73.4175L89.5859 68.0986" stroke="#BF3028" stroke-width="1.29016" stroke-miterlimit="10" stroke-linecap="round" stroke-linejoin="round"/>
<path d="M87.0772 84.0886C86.8675 84.5529 86.1077 84.6719 85.3771 84.3788C84.6466 84.0857 84.1972 83.4471 84.3875 82.9776C84.5972 82.5133 85.2391 82.9029 85.9891 83.2012C86.739 83.4994 87.2869 83.6243 87.0772 84.0886Z" fill="#F77C2D"/>
<path d="M90.7678 79.7113C90.6906 78.2409 89.0935 78.1805 88.0533 78.1266C87.6663 78.1047 87.2547 78.0964 86.9661 78.02C86.639 77.9334 86.2231 77.7226 85.8457 77.522C84.9808 77.0715 83.901 76.5037 83.0533 77.2257C82.5381 77.6532 82.3618 78.2711 82.5811 78.9534C82.9885 80.2092 84.7686 81.5867 86.3626 81.9483C86.5166 81.9891 86.6759 82.0111 86.8159 82.028C88.2078 82.1549 89.4126 81.8496 90.1426 81.1769C90.5894 80.7716 90.8021 80.2439 90.7678 79.7113Z" fill="#1A1B16"/>
<path d="M86.9408 81.192C86.6805 81.1629 86.4116 81.0911 86.1482 81.0006C85.5306 80.7752 85.1269 80.1632 85.1447 79.5226L85.1701 78.7831C85.1844 78.4441 85.5582 78.2212 85.8824 78.3884C86.2066 78.5556 86.55 78.728 86.8818 78.7964C87.9241 79.0545 89.7536 78.6555 89.8099 79.7597C89.8484 80.6372 88.711 81.3621 86.9408 81.192Z" fill="white"/>
<path d="M84.0228 70.9396C84.0975 71.5753 83.9507 72.046 83.4817 72.1184C83.0126 72.1909 82.5676 71.717 82.4739 71.0759C82.3802 70.4349 82.7096 69.8928 83.1735 69.8394C83.6616 69.7724 83.9481 70.304 84.0228 70.9396Z" fill="#1A1B16"/>
<path d="M94.4271 69.16C94.5032 69.7142 94.3667 70.1468 93.9459 70.1919C93.525 70.237 93.1406 69.8416 93.0696 69.2684C92.9935 68.7143 93.2696 68.2186 93.6904 68.1735C94.0922 68.1231 94.351 68.6059 94.4271 69.16Z" fill="#1A1B16"/>
<path d="M80.4578 67.0409C81.6858 66.5043 83.0663 66.326 84.4092 66.5163" stroke="#1A1B16" stroke-width="1.29016" stroke-miterlimit="10" stroke-linecap="round" stroke-linejoin="round"/>
<path d="M91.9832 64.5577C93.0346 64.2123 94.1672 64.1063 95.288 64.2754" stroke="#1A1B16" stroke-width="1.29016" stroke-miterlimit="10" stroke-linecap="round" stroke-linejoin="round"/>
</g>
<rect x="35" y="28" width="94" height="94" rx="47" stroke="white" stroke-width="2"/>
</g>
<defs>
<filter id="filter0_d_3707_102480" x="0.666668" y="0.333334" width="162.667" height="162.667" filterUnits="userSpaceOnUse" color-interpolation-filters="sRGB">
<feFlood flood-opacity="0" result="BackgroundImageFix"/>
<feColorMatrix in="SourceAlpha" type="matrix" values="0 0 0 0 0 0 0 0 0 0 0 0 0 0 0 0 0 0 127 0" result="hardAlpha"/>
<feOffset dy="6.66667"/>
<feGaussianBlur stdDeviation="16.6667"/>
<feComposite in2="hardAlpha" operator="out"/>
<feColorMatrix type="matrix" values="0 0 0 0 0.856275 0 0 0 0 0.867206 0 0 0 0 0.9 0 0 0 1 0"/>
<feBlend mode="normal" in2="BackgroundImageFix" result="effect1_dropShadow_3707_102480"/>
<feBlend mode="normal" in="SourceGraphic" in2="effect1_dropShadow_3707_102480" result="shape"/>
</filter>
<clipPath id="clip0_3707_102480">
<rect x="34" y="27" width="96" height="96" rx="48" fill="white"/>
</clipPath>
</defs>
</svg>
