<svg width="40" height="40" viewBox="0 0 40 40" fill="none" xmlns="http://www.w3.org/2000/svg">
<circle cx="20" cy="20.0002" r="20" fill="#BEDAFF"/>
<g filter="url(#filter0_ii_701_15473)">
<path fill-rule="evenodd" clip-rule="evenodd" d="M11.4285 29.254C7.42386 28.8931 4.28564 25.5275 4.28564 21.4289C4.28564 17.5062 7.16023 14.2549 10.9178 13.6666C12.5029 10.237 15.9735 7.85742 19.9999 7.85742C24.5572 7.85742 28.4025 10.9059 29.6077 15.0749C33.0615 15.5769 35.7142 18.5502 35.7142 22.1431C35.7142 26.088 32.5162 29.286 28.5714 29.286C28.3303 29.286 28.092 29.274 27.8571 29.2507V29.286H12.1428H11.4285V29.254Z" fill="white"/>
</g>
<circle cx="15.7142" cy="17.8575" r="1.42857" fill="#86909C"/>
<circle cx="24.2855" cy="17.8578" r="1.42857" fill="#86909C"/>
<path d="M17.1428 23.572C17.4703 24.3936 18.6253 25.0006 20 25.0006C21.3746 25.0006 22.5296 24.3936 22.8571 23.572" stroke="#86909C" stroke-width="1.42857" stroke-linecap="round"/>
<defs>
<filter id="filter0_ii_701_15473" x="4.28564" y="7.85742" width="31.4285" height="22.1428" filterUnits="userSpaceOnUse" color-interpolation-filters="sRGB">
<feFlood flood-opacity="0" result="BackgroundImageFix"/>
<feBlend mode="normal" in="SourceGraphic" in2="BackgroundImageFix" result="shape"/>
<feColorMatrix in="SourceAlpha" type="matrix" values="0 0 0 0 0 0 0 0 0 0 0 0 0 0 0 0 0 0 127 0" result="hardAlpha"/>
<feOffset/>
<feGaussianBlur stdDeviation="1.42857"/>
<feComposite in2="hardAlpha" operator="arithmetic" k2="-1" k3="1"/>
<feColorMatrix type="matrix" values="0 0 0 0 0.694792 0 0 0 0 0.805376 0 0 0 0 0.958333 0 0 0 1 0"/>
<feBlend mode="normal" in2="shape" result="effect1_innerShadow_701_15473"/>
<feColorMatrix in="SourceAlpha" type="matrix" values="0 0 0 0 0 0 0 0 0 0 0 0 0 0 0 0 0 0 127 0" result="hardAlpha"/>
<feOffset dy="0.714286"/>
<feGaussianBlur stdDeviation="0.714286"/>
<feComposite in2="hardAlpha" operator="arithmetic" k2="-1" k3="1"/>
<feColorMatrix type="matrix" values="0 0 0 0 1 0 0 0 0 1 0 0 0 0 1 0 0 0 1 0"/>
<feBlend mode="normal" in2="effect1_innerShadow_701_15473" result="effect2_innerShadow_701_15473"/>
</filter>
</defs>
</svg>
