<svg width="24" height="24" viewBox="0 0 24 24" fill="none"
  xmlns="http://www.w3.org/2000/svg">
  <rect width="24" height="24" rx="12" fill="#2253E6" fill-opacity="0.26"/>
  <path fill-rule="evenodd" clip-rule="evenodd" d="M8.8 8.00336C8.8 6.23645 10.2349 4.79999 12 4.79999C13.7651 4.79999 15.2 6.23645 15.2 8.00336C15.1933 9.73655 13.8392 11.1393 12.1145 11.2H12.1011H12.0674C12.0269 11.1932 11.9731 11.1932 11.9192 11.2C10.1541 11.1393 8.8 9.73655 8.8 8.00336ZM7.97662 13.72C10.2246 12.232 13.8646 12.232 16.0966 13.72C17.1046 14.392 17.6646 16.288 17.6646 16.288C17.6646 16.288 18.2084 18.192 17.2004 18.872C16.0804 19.624 13.5046 20 12.0326 20C10.5606 20 7.92043 19.624 6.80043 18.872C5.79243 18.2 6.40062 16.304 6.40062 16.304C6.40062 16.304 6.96062 14.4 7.97662 13.72Z" fill="#2F64EB" fill-opacity="0.49"/>
</svg>
