<svg width="80" height="81" viewBox="0 0 80 81" fill="none" xmlns="http://www.w3.org/2000/svg">
<ellipse cx="40" cy="71.1664" rx="40" ry="6.66667" fill="#EFF0F2"/>
<path d="M10 17.8332C10 15.6241 11.7909 13.8333 14 13.8333H33.3529C35.4747 13.8333 37.5095 14.6761 39.0098 16.1764L39.6569 16.8235C41.1571 18.3238 43.192 19.1666 45.3137 19.1666H66C68.2091 19.1666 70 20.9575 70 23.1666V55.5H10V17.8332Z" fill="#B0B5C1"/>
<path d="M43.6667 2.49976C43.7778 6.9442 41.6667 16.1664 33 21.4998" stroke="#F4F5F6" stroke-width="4" stroke-linecap="round"/>
<path d="M51.3334 8.16626C50.4853 12.4725 49.3334 16.4996 46.0861 20.0678" stroke="#F4F5F6" stroke-width="4" stroke-linecap="round"/>
<path fill-rule="evenodd" clip-rule="evenodd" d="M10.9089 25.8333C8.60741 25.8333 6.78065 27.7706 6.9158 30.0681L9.11188 67.4015C9.23624 69.5157 10.9871 71.1666 13.105 71.1666H66.8951C69.013 71.1666 70.7638 69.5157 70.8882 67.4015L73.0842 30.0681C73.2194 27.7706 71.3926 25.8333 69.0911 25.8333H10.9089Z" fill="#DCDFE5"/>
<path d="M47.3333 60.4998L44 63.8331" stroke="#B0B5C1" stroke-width="4" stroke-linecap="round"/>
<path d="M42.6667 65.1665L36.6667 71.1665" stroke="#E4E8F2" stroke-width="6.66667" stroke-linecap="round"/>
<circle cx="60" cy="47.8332" r="18.6667" fill="#F4F5F6"/>
<circle cx="60" cy="47.8332" r="14.6667" fill="#D6DCE9"/>
<path opacity="0.5" fill-rule="evenodd" clip-rule="evenodd" d="M71.504 56.9322L72.4916 40.1438C73.8709 42.3796 74.6667 45.0136 74.6667 47.8335C74.6667 51.2708 73.4843 54.4319 71.504 56.9322Z" fill="#F4F5F6"/>
</svg>
