<svg width="14" height="14" viewBox="0 0 14 14" fill="none" xmlns="http://www.w3.org/2000/svg">
<rect width="14" height="14" fill="white" fill-opacity="0.01"/>
<path fill-rule="evenodd" clip-rule="evenodd" d="M7.00007 4.57924C5.66308 4.57924 4.57924 5.66308 4.57924 7.00007C4.57924 8.33706 5.66308 9.4209 7.00007 9.4209C8.33706 9.4209 9.4209 8.33706 9.4209 7.00007C9.4209 5.66308 8.33706 4.57924 7.00007 4.57924ZM5.68757 7.00007C5.68757 6.2752 6.2752 5.68757 7.00007 5.68757C7.72494 5.68757 8.31257 6.2752 8.31257 7.00007C8.31257 7.72494 7.72494 8.31257 7.00007 8.31257C6.2752 8.31257 5.68757 7.72494 5.68757 7.00007Z" fill="#86909C"/>
<path fill-rule="evenodd" clip-rule="evenodd" d="M7.00013 2.33337C4.22324 2.33337 1.90079 4.27314 1.31133 6.87104C1.29205 6.95601 1.29206 7.04423 1.31134 7.1292C1.90085 9.72702 4.22326 11.6667 7.0001 11.6667C9.77699 11.6667 12.0994 9.72694 12.6889 7.12905C12.7082 7.04407 12.7082 6.95586 12.6889 6.87088C12.0994 4.27307 9.77697 2.33337 7.00013 2.33337ZM7.0001 10.5C4.82617 10.5 2.99822 9.01301 2.48032 7.0001C2.99817 4.98713 4.82616 3.50004 7.00013 3.50004C9.17406 3.50004 11.002 4.98708 11.5199 6.99998C11.0021 9.01295 9.17407 10.5 7.0001 10.5Z" fill="#86909C"/>
</svg>
