<svg width="24" height="24" viewBox="0 0 24 24" fill="none" xmlns="http://www.w3.org/2000/svg">
<path fill-rule="evenodd" clip-rule="evenodd" d="M19.4108 16.7136C20.5442 15.4632 21.3655 13.9246 21.7521 12.221C21.7851 12.0753 21.7851 11.9241 21.7521 11.7784C20.7415 7.32493 16.7602 3.99966 11.9999 3.99966C10.4513 3.99966 8.98514 4.35157 7.67688 4.97974L9.20038 6.50323C10.0718 6.17765 11.0151 5.99966 11.9999 5.99966C15.7267 5.99966 18.8603 8.54892 19.7481 11.9997C19.4287 13.2412 18.8185 14.3661 17.9946 15.2975L19.4108 16.7136ZM15.9953 13.2982C16.1281 12.8893 16.1999 12.4529 16.1999 11.9997C16.1999 9.68014 14.3194 7.79973 11.9999 7.79973C11.5467 7.79973 11.1103 7.8715 10.7014 8.00428L12.572 9.87487C13.3272 10.0777 13.9219 10.6724 14.1247 11.4276L15.9953 13.2982ZM13.1676 13.8646L14.6008 15.2977C13.8855 15.8626 12.982 16.1997 11.9999 16.1997C9.68026 16.1997 7.79985 14.3193 7.79985 11.9997C7.79985 11.0176 8.13699 10.1141 8.70186 9.39883L10.135 10.832C9.92265 11.1704 9.79985 11.5707 9.79985 11.9997C9.79985 13.2148 10.7848 14.1997 11.9999 14.1997C12.4289 14.1997 12.8292 14.0769 13.1676 13.8646ZM7.03182 7.72879C5.68647 8.79591 4.69236 10.2867 4.25167 11.9997C5.13945 15.4504 8.27311 17.9997 11.9999 17.9997C13.5174 17.9997 14.9366 17.577 16.1459 16.8428L17.5933 18.2903C15.997 19.3694 14.0723 19.9997 11.9999 19.9997C7.23954 19.9997 3.25824 16.6744 2.24769 12.221C2.21464 12.0753 2.21464 11.924 2.24769 11.7784C2.74236 9.59838 3.94887 7.68873 5.61014 6.3071L7.03182 7.72879Z" fill="#86909C"/>
<path d="M4 5L19 20" stroke="#86909C" stroke-width="2"/>
</svg>
