<svg width="16" height="16" viewBox="0 0 16 16" fill="none" xmlns="http://www.w3.org/2000/svg">
<g clip-path="url(#clip0_229_11755)">
<path d="M15.041 0C14.921 0 14.809 0.024 14.697 0.064L0.616988 5.504C0.120988 5.696 -0.127012 6.248 0.0649882 6.744C0.160988 6.984 0.344988 7.176 0.576988 7.28L6.26499 9.728L8.72099 15.424C8.88099 15.784 9.23299 16 9.60099 16C9.72899 16 9.85699 15.976 9.97699 15.92C10.217 15.816 10.401 15.624 10.497 15.384L15.929 1.304C16.121 0.808 15.873 0.256 15.377 0.064C15.273 0.024 15.161 0 15.041 0Z" fill="#2253E6"/>
</g>
<defs>
<clipPath id="clip0_229_11755">
<rect width="16" height="16" fill="white"/>
</clipPath>
</defs>
</svg>
