<svg width="18" height="18" viewBox="0 0 18 18" fill="none" xmlns="http://www.w3.org/2000/svg">
<rect width="18" height="18" fill="white" fill-opacity="0.01"/>
<path d="M11.2744 5.81227H14.7754C13.877 3.97769 12.186 2.59851 10.1514 2.09108C10.6535 3.01487 11.0498 4.30297 11.2744 5.81227ZM6.32012 2.15613C4.41768 2.72862 2.84553 4.06877 2 5.79926H5.23679C5.46138 4.34201 5.8313 3.07993 6.32012 2.15613ZM11.499 12.1487H15C14.1016 13.9833 12.4106 15.3625 10.376 15.8699C10.878 14.9461 11.2744 13.645 11.499 12.1487ZM6.54471 15.7918C4.64228 15.2193 3.07012 13.8792 2.22459 12.1487H5.46138C5.67276 13.6059 6.05589 14.868 6.54471 15.7918ZM9.90041 5.81227C9.60976 3.54833 9.04167 2 8.36789 2C7.6941 2 7.12602 3.54833 6.83537 5.81227H9.90041ZM6.82215 12.1487C7.09959 14.4257 7.69411 16 8.35467 16C9.02845 16 9.60976 14.4387 9.88719 12.1487H6.82215Z" fill="url(#paint0_linear_3283_5937)"/>
<path d="M2 7L2.97429 11H3.56783L4.15016 8.07544L4.7269 11H5.32043L6.29472 7H5.5892L5.01246 9.95551L4.44133 7H3.85339L3.28226 9.95551L2.70552 7H2Z" fill="#E5E6EB"/>
<path d="M6.35264 7L7.32693 11H7.92046L8.5028 8.07544L9.07954 11H9.67307L10.6474 7H9.94184L9.3651 9.95551L8.79397 7H8.20603L7.6349 9.95551L7.05816 7H6.35264Z" fill="#E5E6EB"/>
<path d="M10.7053 7L11.6796 11H12.2731L12.8554 8.07544L13.4322 11H14.0257L15 7H14.2945L13.7177 9.95551L13.1466 7H12.5587L11.9875 9.95551L11.4108 7H10.7053Z" fill="#E5E6EB"/>
<defs>
<linearGradient id="paint0_linear_3283_5937" x1="7.90909" y1="2" x2="7.90909" y2="17.12" gradientUnits="userSpaceOnUse">
<stop stop-color="#CED2D9"/>
<stop offset="1" stop-color="#BFC7D4"/>
</linearGradient>
</defs>
</svg>
