<svg width="20" height="20" viewBox="0 0 20 20" fill="none" xmlns="http://www.w3.org/2000/svg">
<rect width="20" height="20" fill="white" fill-opacity="0.01"/>
<path d="M9.16667 6.66667V9.16667H6.66667V10.8333H9.16667V13.3333H10.8333V10.8333H13.3333V9.16667H10.8333V6.66667H9.16667Z" fill="white"/>
<path fill-rule="evenodd" clip-rule="evenodd" d="M14.6814 15.8599C13.3983 16.8863 11.7708 17.5 10 17.5C5.85786 17.5 2.5 14.1421 2.5 10C2.5 5.85786 5.85786 2.5 10 2.5C14.1421 2.5 17.5 5.85786 17.5 10C17.5 11.7708 16.8863 13.3983 15.8599 14.6814L18.0893 16.9107L16.9107 18.0893L14.6814 15.8599ZM15.8333 10C15.8333 13.2217 13.2217 15.8333 10 15.8333C6.77834 15.8333 4.16667 13.2217 4.16667 10C4.16667 6.77834 6.77834 4.16667 10 4.16667C13.2217 4.16667 15.8333 6.77834 15.8333 10Z" fill="white"/>
</svg>
