<svg width="24" height="24" viewBox="0 0 24 24" fill="none" xmlns="http://www.w3.org/2000/svg">
<rect width="24" height="24" rx="12" fill="#F2F3F5"/>
<rect width="16" height="16" transform="translate(4 4)" fill="white" fill-opacity="0.01"/>
<path d="M9.53312 10.6666C9.53312 9.30428 10.6375 8.19991 11.9998 8.19991C13.3621 8.19991 14.4665 9.30428 14.4665 10.6666C14.4665 11.6501 13.8908 12.4979 13.0609 12.8938C12.9221 12.96 12.8095 13.0433 12.7395 13.1234C12.6728 13.1998 12.6665 13.2461 12.6665 13.2666V14.3332H11.3331V13.2666C11.3331 12.4257 12.0203 11.913 12.4868 11.6904C12.8704 11.5074 13.1331 11.117 13.1331 10.6666C13.1331 10.0407 12.6257 9.53324 11.9998 9.53324C11.3739 9.53324 10.8665 10.0407 10.8665 10.6666V11.3332H9.53312V10.6666Z" fill="#4E5969"/>
<path d="M12.6666 14.7666H11.3333V16.1666H12.6666V14.7666Z" fill="#4E5969"/>
<path fill-rule="evenodd" clip-rule="evenodd" d="M5.33325 11.9999C5.33325 8.31802 8.31802 5.33325 11.9999 5.33325C15.6818 5.33325 18.6666 8.31802 18.6666 11.9999C18.6666 15.6818 15.6818 18.6666 11.9999 18.6666C8.31802 18.6666 5.33325 15.6818 5.33325 11.9999ZM11.9999 6.66659C9.0544 6.66659 6.66659 9.0544 6.66659 11.9999C6.66659 14.9454 9.0544 17.3333 11.9999 17.3333C14.9454 17.3333 17.3333 14.9454 17.3333 11.9999C17.3333 9.0544 14.9454 6.66659 11.9999 6.66659Z" fill="currentColor"/>
</svg>
