<svg width="14" height="14" viewBox="0 0 14 14" fill="none" xmlns="http://www.w3.org/2000/svg">
<rect width="14" height="14" fill="white" fill-opacity="0.01"/>
<path d="M7.00008 2.33329C4.42275 2.33329 2.33341 4.42263 2.33341 6.99996C2.33341 9.57729 4.42275 11.6666 7.00008 11.6666C8.90726 11.6666 10.5472 10.5226 11.2711 8.88328L12.2975 9.44565C11.3726 11.4457 9.3484 12.8333 7.00008 12.8333C3.77842 12.8333 1.16675 10.2216 1.16675 6.99996C1.16675 3.7783 3.77842 1.16663 7.00008 1.16663C10.1067 1.16663 12.6462 3.59518 12.8235 6.6574C12.8301 6.77073 12.8335 6.88499 12.8335 6.99996C12.8335 7.32853 12.8064 7.65075 12.7542 7.9645L10.0085 6.37928L10.5918 5.36891L11.5403 5.91655C11.0518 3.86168 9.20444 2.33329 7.00008 2.33329Z" fill="currentColor"/>
</svg>
