<svg width="24" height="24" viewBox="0 0 24 24" fill="none" xmlns="http://www.w3.org/2000/svg">
<rect width="24" height="24" fill="white" fill-opacity="0.01"/>
<path fill-rule="evenodd" clip-rule="evenodd" d="M4.51477 4.5149C8.02935 0.999825 13.728 0.999926 17.243 4.5149C20.5185 7.79042 20.7413 12.9631 17.9112 16.4967L21.4855 20.0709L20.0713 21.4851L16.497 17.9109C12.9634 20.7409 7.79029 20.5181 4.51477 17.2426C1.00027 13.7281 1.0003 8.02943 4.51477 4.5149C4.51479 4.51488 4.51475 4.51492 4.51477 4.5149ZM15.8288 5.92911C13.0948 3.19511 8.66247 3.19519 5.92904 5.92906C3.19557 8.66253 3.19551 13.0949 5.92899 15.8284C8.66246 18.5619 13.0953 18.5619 15.8288 15.8284C18.5622 13.0949 18.5622 8.66259 15.8288 5.92911Z" fill="#86909C"/>
</svg>
