<svg width="24" height="24" viewBox="0 0 24 24" fill="none" xmlns="http://www.w3.org/2000/svg">
<rect width="24" height="24" fill="white" fill-opacity="0.01"/>
<path fill-rule="evenodd" clip-rule="evenodd" d="M11.9996 17.9995C8.27286 17.9995 5.13921 15.4503 4.25142 11.9995C5.13921 8.54879 8.27286 5.99954 11.9996 5.99954C15.7264 5.99954 18.8601 8.5488 19.7479 11.9995C18.8601 15.4503 15.7264 17.9995 11.9996 17.9995ZM11.9996 3.99954C7.23929 3.99954 3.25799 7.3248 2.24745 11.7783C2.21439 11.9239 2.21439 12.0752 2.24745 12.2208C3.25799 16.6743 7.23929 19.9995 11.9996 19.9995C16.76 19.9995 20.7413 16.6743 21.7518 12.2208C21.7849 12.0752 21.7849 11.9239 21.7518 11.7783C20.7413 7.32481 16.76 3.99954 11.9996 3.99954ZM9.79961 11.9996C9.79961 10.7846 10.7846 9.79961 11.9996 9.79961C13.2146 9.79961 14.1996 10.7846 14.1996 11.9996C14.1996 13.2146 13.2146 14.1996 11.9996 14.1996C10.7846 14.1996 9.79961 13.2146 9.79961 11.9996ZM11.9996 7.79961C9.68001 7.79961 7.79961 9.68002 7.79961 11.9996C7.79961 14.3192 9.68001 16.1996 11.9996 16.1996C14.3192 16.1996 16.1996 14.3192 16.1996 11.9996C16.1996 9.68002 14.3192 7.79961 11.9996 7.79961Z" fill="#86909C"/>
</svg>
