<svg width="20" height="20" viewBox="0 0 20 20" fill="none" xmlns="http://www.w3.org/2000/svg">
<rect width="20" height="20" fill="white" fill-opacity="0.01"/>
<path fill-rule="evenodd" clip-rule="evenodd" d="M11.5615 3.714L11.5832 3.75004H16.6666C17.5871 3.75004 18.3333 4.49623 18.3333 5.41671V8.33337H1.66663V6.66691V4.16691V3.75004H1.71919C1.90427 3.0313 2.55677 2.50024 3.33329 2.50024H9.41782C10.296 2.50024 11.1097 2.96099 11.5615 3.714Z" fill="#FFC122"/>
<rect opacity="0.7" x="3.33337" y="5" width="13.3333" height="11.6667" rx="0.833333" fill="white"/>
<path d="M1.66663 7.91667C1.66663 6.99619 2.41282 6.25 3.33329 6.25H16.6666C17.5871 6.25 18.3333 6.99619 18.3333 7.91667V15.8333C18.3333 16.7538 17.5871 17.5 16.6666 17.5H3.33329C2.41282 17.5 1.66663 16.7538 1.66663 15.8333V7.91667Z" fill="url(#paint0_linear_1253_29746)"/>
<defs>
<linearGradient id="paint0_linear_1253_29746" x1="9.99996" y1="5.83333" x2="9.99996" y2="17.5" gradientUnits="userSpaceOnUse">
<stop stop-color="#FFD23D"/>
<stop offset="1" stop-color="#FFBB0E"/>
</linearGradient>
</defs>
</svg>
