<svg width="24" height="24" viewBox="0 0 24 24" fill="none" xmlns="http://www.w3.org/2000/svg">
<rect width="24" height="24" fill="white" fill-opacity="0.01"/>
<path fill-rule="evenodd" clip-rule="evenodd" d="M8.5 2.25H7.75V3V4.25H4.5H3.75V5V21V21.75H4.5H19.5H20.25V21V5V4.25H19.5H16.25V3V2.25H15.5H8.5ZM5.25 5.75H7.75V7V7.75H8.5H15.5H16.25V7V5.75H18.75V20.25H5.25V5.75ZM9.25 5V3.75H14.75V5V6.25H9.25V5ZM16.5 12.75H7.5V11.25H16.5V12.75ZM13.5 16.75L7.5 16.75V15.25L13.5 15.25V16.75Z" fill="#86909C"/>
</svg>
