<svg width="16" height="16" viewBox="0 0 16 16" fill="none" xmlns="http://www.w3.org/2000/svg">
<rect width="16" height="16" fill="white" fill-opacity="0.01"/>
<path fill-rule="evenodd" clip-rule="evenodd" d="M3.00981 3.00995C5.35286 0.666571 9.15197 0.666637 11.4953 3.00995C13.679 5.19363 13.8275 8.64209 11.9408 10.9978L14.3236 13.3806L13.3808 14.3234L10.998 11.9406C8.64224 13.8273 5.19349 13.6788 3.00981 11.4951C0.666803 9.15209 0.666828 5.35297 3.00981 3.00995C3.00982 3.00994 3.00979 3.00997 3.00981 3.00995ZM10.5525 3.95276C8.7298 2.13009 5.77494 2.13015 3.95265 3.95273C2.13034 5.77504 2.1303 8.72997 3.95262 10.5523C5.77493 12.3746 8.73016 12.3746 10.5525 10.5523C12.3748 8.72997 12.3748 5.77508 10.5525 3.95276Z" fill="#86909C"/>
</svg>
