<svg width="64" height="64" viewBox="0 0 64 64" fill="none" xmlns="http://www.w3.org/2000/svg">
<rect width="49.5385" height="60" transform="translate(7.23071 3)" fill="white" fill-opacity="0.01"/>
<path d="M47.7304 15.3587C52.9673 16.9169 55.5857 17.696 56.2321 19.7595C56.8785 21.8231 55.1725 23.9568 51.7606 28.2242L35.1769 48.9661C30.9813 54.2136 28.8836 56.8373 26.4845 56.3873C24.0855 55.9372 23.0813 52.7316 21.0729 46.3202L12.203 18.0049C10.1946 11.5936 9.19044 8.38789 10.904 6.64957C12.6175 4.91124 15.8373 5.86926 22.2768 7.78528L47.7304 15.3587Z" fill="url(#paint0_linear_986_18441)"/>
<path d="M41.3465 19.0221C44.7285 20.908 46.4195 21.8509 46.866 23.4398C47.3125 25.0287 46.3425 26.6515 44.4026 29.897L33.2666 48.5269C28.9654 55.7225 26.8148 59.3204 24.0242 58.9776C21.2337 58.6349 20.1095 54.6349 17.8613 46.6349L9.58367 17.1798C7.33546 9.17975 6.21135 5.17975 8.44834 3.55256C10.6853 1.92537 14.4345 4.01591 21.9328 8.19699L41.3465 19.0221Z" fill="url(#paint1_linear_986_18441)"/>
<defs>
<linearGradient id="paint0_linear_986_18441" x1="42.2017" y1="40.5882" x2="9.82796" y2="6.69101" gradientUnits="userSpaceOnUse">
<stop stop-color="#83AAF8"/>
<stop offset="0.625" stop-color="#3051F2"/>
</linearGradient>
<linearGradient id="paint1_linear_986_18441" x1="9.0379" y1="3" x2="34.3785" y2="61.4156" gradientUnits="userSpaceOnUse">
<stop stop-color="white"/>
<stop offset="1" stop-color="#D9D9D9" stop-opacity="0.03"/>
</linearGradient>
</defs>
</svg>
