<svg width="16" height="16" viewBox="0 0 16 16" fill="none" xmlns="http://www.w3.org/2000/svg">
<rect width="16" height="16" fill="white" fill-opacity="0.01"/>
<path d="M5.53318 6.66664C5.53318 5.30434 6.63755 4.19997 7.99985 4.19997C9.36215 4.19997 10.4665 5.30434 10.4665 6.66664C10.4665 7.6502 9.89081 8.49799 9.06095 8.89387C8.92217 8.96008 8.80952 9.04332 8.73961 9.12342C8.67289 9.19987 8.66652 9.2462 8.66652 9.26664V10.3333H7.33318V9.26664C7.33318 8.42577 8.02031 7.91303 8.48687 7.69046C8.87043 7.50748 9.13318 7.11708 9.13318 6.66664C9.13318 6.04072 8.62577 5.53331 7.99985 5.53331C7.37393 5.53331 6.86652 6.04072 6.86652 6.66664V7.3333H5.53318V6.66664Z" fill="#86909C"/>
<path d="M8.66665 10.7666H7.33331V12.1666H8.66665V10.7666Z" fill="#86909C"/>
<path fill-rule="evenodd" clip-rule="evenodd" d="M1.33331 7.99998C1.33331 4.31808 4.31808 1.33331 7.99998 1.33331C11.6819 1.33331 14.6666 4.31808 14.6666 7.99998C14.6666 11.6819 11.6819 14.6666 7.99998 14.6666C4.31808 14.6666 1.33331 11.6819 1.33331 7.99998ZM7.99998 2.66665C5.05446 2.66665 2.66665 5.05446 2.66665 7.99998C2.66665 10.9455 5.05446 13.3333 7.99998 13.3333C10.9455 13.3333 13.3333 10.9455 13.3333 7.99998C13.3333 5.05446 10.9455 2.66665 7.99998 2.66665Z" fill="#86909C"/>
</svg>
