<svg width="18" height="18" viewBox="0 0 18 18" fill="none" xmlns="http://www.w3.org/2000/svg">
<rect width="18" height="18" fill="white" fill-opacity="0.01"/>
<path fill-rule="evenodd" clip-rule="evenodd" d="M2 2H16V5H2V2ZM5 3H4V4H5V3Z" fill="#6AA1FF"/>
<path fill-rule="evenodd" clip-rule="evenodd" d="M16 6H2V16H16V6ZM12.7269 13C13.5464 13 14 12.4462 14 11.8308C14 11.0463 13.4005 10.8508 12.8849 10.6826C12.496 10.5558 12.1548 10.4445 12.1548 10.1077C12.1548 9.78881 12.3661 9.63776 12.6496 9.64895C12.9588 9.65455 13.1495 9.85594 13.165 10.1133H13.9588C13.9124 9.40839 13.4073 9 12.6702 9C11.928 9 11.4023 9.42517 11.4023 10.1301C11.3994 10.9288 11.9889 11.1147 12.5033 11.2768C12.9004 11.402 13.2526 11.5131 13.2526 11.8811C13.2526 12.1608 13.0516 12.3566 12.7114 12.3566C12.3764 12.3566 12.1857 12.1497 12.1651 11.8364H11.392C11.4023 12.5748 11.9795 13 12.7269 13ZM10.05 9.05035H10.7716V12.9608H10.05L8.41614 10.2811V12.9608H7.69455V9.05035H8.41614L10.05 11.7357V9.05035ZM5.25764 9.05594C6.40703 9.05594 7.1544 9.82797 7.1544 11.014C7.1544 12.1944 6.40703 12.9608 5.25764 12.9608H4V9.05594H5.25764ZM4.72159 12.2951H5.23186C5.98954 12.2951 6.41734 11.8252 6.41734 11.014C6.41734 10.2028 5.98954 9.71608 5.23186 9.71608H4.72159V12.2951Z" fill="#2253E6"/>
</svg>
