<svg width="16" height="16" viewBox="0 0 16 16" fill="none" xmlns="http://www.w3.org/2000/svg">
<rect width="16" height="16" fill="white" fill-opacity="0.01"/>
<path fill-rule="evenodd" clip-rule="evenodd" d="M8.00016 14.6667C11.6821 14.6667 14.6668 11.6819 14.6668 8.00001C14.6668 4.31811 11.6821 1.33334 8.00016 1.33334C4.31826 1.33334 1.3335 4.31811 1.3335 8.00001C1.3335 11.6819 4.31826 14.6667 8.00016 14.6667ZM9.96043 4.91576C9.48949 4.52016 8.87728 4.33334 8.12378 4.33334C7.25255 4.33334 6.5697 4.56411 6.07522 5.03664C5.58074 5.49818 5.3335 6.12455 5.3335 6.92675H6.5697C6.5697 6.44323 6.67566 6.06961 6.88758 5.80587C7.12305 5.48719 7.51157 5.33334 8.04137 5.33334C8.46521 5.33334 8.80664 5.44323 9.04211 5.66301C9.2658 5.88279 9.38353 6.1795 9.38353 6.56411C9.38353 6.84983 9.2658 7.11356 9.05388 7.36631L8.85373 7.5751C8.12378 8.1795 7.67639 8.63005 7.52334 8.93774C7.35851 9.22345 7.28787 9.5751 7.28787 9.9817V10.1685H8.54762V9.9817C8.54762 9.71796 8.60649 9.4762 8.736 9.25642C8.84196 9.05862 9.00679 8.86082 9.23048 8.68499C9.78383 8.23444 10.1135 7.94873 10.2194 7.82785C10.5138 7.4762 10.6668 7.02565 10.6668 6.48719C10.6668 5.82785 10.4314 5.30038 9.96043 4.91576ZM8.53585 10.9817C8.37102 10.8279 8.1591 10.7619 7.91186 10.7619C7.6764 10.7619 7.46448 10.8279 7.29965 10.9817C7.13482 11.1246 7.05241 11.3114 7.05241 11.5421C7.05241 11.7619 7.13482 11.9487 7.29965 12.1026C7.46448 12.2564 7.6764 12.3333 7.91186 12.3333C8.14733 12.3333 8.35925 12.2564 8.52408 12.1136C8.6889 11.9597 8.78309 11.7729 8.78309 11.5421C8.78309 11.3114 8.70068 11.1246 8.53585 10.9817Z" fill="#86909C"/>
</svg>
