<svg width="12" height="12" viewBox="0 0 12 12" fill="none" xmlns="http://www.w3.org/2000/svg">
<path fill-rule="evenodd" clip-rule="evenodd" d="M11.8333 5.99996C11.8333 9.22162 9.22162 11.8333 5.99996 11.8333C2.7783 11.8333 0.166626 9.22162 0.166626 5.99996C0.166626 2.7783 2.7783 0.166626 5.99996 0.166626C9.22162 0.166626 11.8333 2.7783 11.8333 5.99996ZM5.99996 3.08329C6.32213 3.08329 6.58329 3.34446 6.58329 3.66663V5.41663H8.33329C8.65546 5.41663 8.91663 5.67779 8.91663 5.99996C8.91663 6.32213 8.65546 6.58329 8.33329 6.58329H6.58329V8.33329C6.58329 8.65546 6.32213 8.91663 5.99996 8.91663C5.67779 8.91663 5.41663 8.65546 5.41663 8.33329V6.58329H3.66663C3.34446 6.58329 3.08329 6.32213 3.08329 5.99996C3.08329 5.67779 3.34446 5.41663 3.66663 5.41663H5.41663V3.66663C5.41663 3.34446 5.67779 3.08329 5.99996 3.08329Z" fill="currentColor"/>
</svg>
