<svg width="18" height="18" viewBox="0 0 18 18" fill="none" xmlns="http://www.w3.org/2000/svg">
<rect width="18" height="18" fill="white" fill-opacity="0.01"/>
<path fill-rule="evenodd" clip-rule="evenodd" d="M11.4957 14.8503L9.15033 15.9656C9.05589 16.0115 8.94411 16.0115 8.84967 15.9656L2.18502 12.7964C1.93833 12.6772 1.93833 12.3418 2.18502 12.2245L3.63822 11.5334L8.33893 13.7679L9 14.0831L9.66107 13.7679L10.4224 13.406C10.6807 13.9576 11.0477 14.4483 11.4957 14.8503ZM10.1741 10.2563L9.66147 10.5301L9.00012 10.8845L8.33877 10.5301L3.60325 8L2.18799 8.75616C1.93734 8.89008 1.93734 9.27125 2.18799 9.40311L8.8478 12.9614C8.94228 13.0129 9.05604 13.0129 9.15052 12.9614L10.1012 12.4534C10.0349 12.1461 10 11.8271 10 11.5C10 11.0685 10.0607 10.6513 10.1741 10.2563ZM2.18502 5.77415L8.84967 8.94341C8.8965 8.96512 8.94791 8.9764 9 8.9764C9.05209 8.9764 9.1035 8.96512 9.15033 8.94341L15.815 5.77415C16.0617 5.65684 16.0617 5.3214 15.815 5.20409L9.15033 2.03299C9.1035 2.01128 9.05209 2 9 2C8.94791 2 8.8965 2.01128 8.84967 2.03299L2.18502 5.20409C1.93833 5.3214 1.93833 5.65684 2.18502 5.77415Z" fill="url(#paint0_linear_4102_5996)"/>
<path fill-rule="evenodd" clip-rule="evenodd" d="M11 11.5C11 9.567 12.567 8 14.5 8C16.433 8 18 9.567 18 11.5C18 11.6093 17.995 11.7174 17.9852 11.8242C17.9948 11.8603 18 11.8983 18 11.9375C18 12.0202 17.9771 12.0975 17.9372 12.1635C17.6272 13.7792 16.2062 15 14.5 15C12.7938 15 11.3728 13.7792 11.0628 12.1635C11.0229 12.0975 11 12.0202 11 11.9375C11 11.8983 11.0052 11.8603 11.0148 11.8242C11.005 11.7174 11 11.6093 11 11.5ZM12.0244 12.375C12.2263 12.9463 12.6204 13.4269 13.1291 13.739C12.974 13.3475 12.8615 12.8821 12.801 12.375H12.0244ZM13.6832 12.375C13.743 12.8111 13.8454 13.1931 13.9741 13.4932C14.0789 13.7379 14.1925 13.9079 14.2964 14.0104C14.3984 14.1111 14.4667 14.125 14.5 14.125C14.5333 14.125 14.6016 14.1111 14.7036 14.0104C14.8075 13.9079 14.9211 13.7379 15.0259 13.4932C15.1546 13.1931 15.257 12.8111 15.3168 12.375H13.6832ZM16.199 12.375C16.1385 12.8821 16.026 13.3475 15.8709 13.739C16.3796 13.4269 16.7737 12.9463 16.9756 12.375H16.199ZM11.9113 11.0625C12.0391 10.3006 12.4952 9.64996 13.1291 9.261C12.9304 9.76272 12.8016 10.386 12.7625 11.0625H11.9113ZM13.9741 9.50683C13.804 9.90361 13.6796 10.4437 13.6392 11.0625H15.3608C15.3204 10.4437 15.196 9.90361 15.0259 9.50683C14.9211 9.26215 14.8075 9.09209 14.7036 8.98956C14.6016 8.88888 14.5333 8.875 14.5 8.875C14.4667 8.875 14.3984 8.88888 14.2964 8.98956C14.1925 9.09209 14.0789 9.26215 13.9741 9.50683ZM17.0887 11.0625H16.2375C16.1984 10.386 16.0696 9.76272 15.8709 9.261C16.5048 9.64996 16.9609 10.3006 17.0887 11.0625Z" fill="#E5E6EB"/>
<defs>
<linearGradient id="paint0_linear_4102_5996" x1="9" y1="2" x2="8" y2="15.5" gradientUnits="userSpaceOnUse">
<stop stop-color="#CED2D9"/>
<stop offset="1" stop-color="#BFC7D4"/>
</linearGradient>
</defs>
</svg>
