<svg width="18" height="18" viewBox="0 0 18 18" fill="none" xmlns="http://www.w3.org/2000/svg">
<rect width="18" height="18" fill="white" fill-opacity="0.01"/>
<path fill-rule="evenodd" clip-rule="evenodd" d="M4.125 4.875C4.125 2.80393 5.80393 1.125 7.875 1.125C9.94607 1.125 11.625 2.80393 11.625 4.875C11.625 6.94607 9.94607 8.625 7.875 8.625C5.80393 8.625 4.125 6.94607 4.125 4.875ZM4.65 9.75H9.28426C9.09989 10.2997 9 10.8882 9 11.5C9 13.7186 10.3136 15.6304 12.2055 16.5H1.5V12.9C1.5 11.1603 2.9103 9.75 4.65 9.75Z" fill="url(#paint0_linear_4102_5172)"/>
<path fill-rule="evenodd" clip-rule="evenodd" d="M10 11.5C10 9.567 11.567 8 13.5 8C15.433 8 17 9.567 17 11.5C17 11.6093 16.995 11.7174 16.9852 11.8242C16.9948 11.8603 17 11.8983 17 11.9375C17 12.0202 16.9771 12.0975 16.9372 12.1635C16.6272 13.7792 15.2062 15 13.5 15C11.7938 15 10.3728 13.7792 10.0628 12.1635C10.0229 12.0975 10 12.0202 10 11.9375C10 11.8983 10.0052 11.8603 10.0148 11.8242C10.005 11.7174 10 11.6093 10 11.5ZM11.0244 12.375C11.2263 12.9463 11.6204 13.4269 12.1291 13.739C11.974 13.3475 11.8615 12.8821 11.801 12.375H11.0244ZM12.6832 12.375C12.743 12.8111 12.8454 13.1931 12.9741 13.4932C13.0789 13.7379 13.1925 13.9079 13.2964 14.0104C13.3984 14.1111 13.4667 14.125 13.5 14.125C13.5333 14.125 13.6016 14.1111 13.7036 14.0104C13.8075 13.9079 13.9211 13.7379 14.0259 13.4932C14.1546 13.1931 14.257 12.8111 14.3168 12.375H12.6832ZM15.199 12.375C15.1385 12.8821 15.026 13.3475 14.8709 13.739C15.3796 13.4269 15.7737 12.9463 15.9756 12.375H15.199ZM10.9113 11.0625C11.0391 10.3006 11.4952 9.64996 12.1291 9.261C11.9304 9.76272 11.8016 10.386 11.7625 11.0625H10.9113ZM12.9741 9.50683C12.804 9.90361 12.6796 10.4437 12.6392 11.0625H14.3608C14.3204 10.4437 14.196 9.90361 14.0259 9.50683C13.9211 9.26215 13.8075 9.09209 13.7036 8.98956C13.6016 8.88888 13.5333 8.875 13.5 8.875C13.4667 8.875 13.3984 8.88888 13.2964 8.98956C13.1925 9.09209 13.0789 9.26215 12.9741 9.50683ZM16.0887 11.0625H15.2375C15.1984 10.386 15.0696 9.76272 14.8709 9.261C15.5048 9.64996 15.9609 10.3006 16.0887 11.0625Z" fill="#E5E6EB"/>
<defs>
<linearGradient id="paint0_linear_4102_5172" x1="6.85276" y1="1.125" x2="6.85276" y2="16.5" gradientUnits="userSpaceOnUse">
<stop stop-color="#CED2D9"/>
<stop offset="1" stop-color="#BFC7D4"/>
</linearGradient>
</defs>
</svg>
