<svg width="14" height="14" viewBox="0 0 14 14" fill="none" xmlns="http://www.w3.org/2000/svg">
<rect width="14" height="14" fill="white" fill-opacity="0.01"/>
<path fill-rule="evenodd" clip-rule="evenodd" d="M12.8332 7.00008C12.8332 10.2217 10.2215 12.8334 6.99984 12.8334C3.77817 12.8334 1.1665 10.2217 1.1665 7.00008C1.1665 3.77842 3.77817 1.16675 6.99984 1.16675C10.2215 1.16675 12.8332 3.77842 12.8332 7.00008ZM6.99984 4.08341C7.322 4.08341 7.58317 4.34458 7.58317 4.66675V6.41675H9.33317C9.65534 6.41675 9.9165 6.67792 9.9165 7.00008C9.9165 7.32225 9.65534 7.58342 9.33317 7.58342H7.58317V9.33342C7.58317 9.65558 7.322 9.91675 6.99984 9.91675C6.67767 9.91675 6.4165 9.65558 6.4165 9.33342V7.58342H4.6665C4.34434 7.58342 4.08317 7.32225 4.08317 7.00008C4.08317 6.67792 4.34434 6.41675 4.6665 6.41675H6.4165V4.66675C6.4165 4.34458 6.67767 4.08341 6.99984 4.08341Z" fill="#2253E6"/>
</svg>
