<svg width="40" height="40" viewBox="0 0 40 40" fill="none" xmlns="http://www.w3.org/2000/svg">
<g id="&#228;&#184;&#138;&#228;&#188;&#160;">
<g id="Vector">
<mask id="path-1-inside-1_10262_12747" fill="white">
<path fill-rule="evenodd" clip-rule="evenodd" d="M20.001 4.30969L28.7387 13.0474L26.3817 15.4045L21.6686 10.6913L21.6686 27.6185H18.3352L18.3352 10.6895L13.6203 15.4045L11.2633 13.0474L20.001 4.30969ZM8.33333 32.5V29.1667H5V35.8334H35V29.1667H31.6667V32.5H8.33333Z"/>
</mask>
<path fill-rule="evenodd" clip-rule="evenodd" d="M20.001 4.30969L28.7387 13.0474L26.3817 15.4045L21.6686 10.6913L21.6686 27.6185H18.3352L18.3352 10.6895L13.6203 15.4045L11.2633 13.0474L20.001 4.30969ZM8.33333 32.5V29.1667H5V35.8334H35V29.1667H31.6667V32.5H8.33333Z" fill="#86909C"/>
<path d="M20.001 4.30969L28.0822 -3.77153L20.001 -11.8528L11.9198 -3.77153L20.001 4.30969ZM28.7387 13.0474L36.82 21.1287L44.9012 13.0474L36.82 4.96621L28.7387 13.0474ZM26.3817 15.4045L18.3005 23.4857L26.3817 31.5669L34.4629 23.4857L26.3817 15.4045ZM21.6686 10.6913L29.7498 2.61007L10.24 -16.8997L10.24 10.6913L21.6686 10.6913ZM21.6686 27.6185V39.0471H33.0971V27.6185H21.6686ZM18.3352 27.6185L6.90665 27.6185L6.90665 39.0471H18.3352V27.6185ZM18.3352 10.6895L29.7638 10.6895L29.7638 -16.9015L10.254 2.60829L18.3352 10.6895ZM13.6203 15.4045L5.53906 23.4857L13.6203 31.5669L21.7015 23.4857L13.6203 15.4045ZM11.2633 13.0474L3.18205 4.9662L-4.89918 13.0474L3.18204 21.1286L11.2633 13.0474ZM8.33333 32.5H-3.09524V43.9286H8.33333V32.5ZM8.33333 29.1667H19.7619V17.7381H8.33333V29.1667ZM5 29.1667V17.7381H-6.42857V29.1667H5ZM5 35.8334H-6.42857V47.262H5V35.8334ZM35 35.8334V47.262H46.4286V35.8334H35ZM35 29.1667H46.4286V17.7381H35V29.1667ZM31.6667 29.1667V17.7381H20.2381V29.1667H31.6667ZM31.6667 32.5V43.9286H43.0952V32.5H31.6667ZM34.4629 23.4857L36.82 21.1287L20.6575 4.96621L18.3005 7.32323L34.4629 23.4857ZM13.5873 18.7725L18.3005 23.4857L34.4629 7.32323L29.7498 2.61007L13.5873 18.7725ZM33.0971 27.6185L33.0971 10.6913L10.24 10.6913L10.24 27.6185L33.0971 27.6185ZM18.3352 39.0471H21.6686V16.1899H18.3352V39.0471ZM6.90665 10.6895L6.90665 27.6185L29.7638 27.6185V10.6895L6.90665 10.6895ZM21.7015 23.4857L26.4164 18.7707L10.254 2.60829L5.53907 7.32323L21.7015 23.4857ZM3.18204 21.1286L5.53906 23.4857L21.7015 7.32323L19.3445 4.96621L3.18204 21.1286ZM19.7619 32.5V29.1667H-3.09524V32.5H19.7619ZM8.33333 17.7381H5V40.5953H8.33333V17.7381ZM35 17.7381H31.6667V40.5953H35V17.7381ZM20.2381 29.1667V32.5H43.0952V29.1667H20.2381ZM31.6667 21.0715H8.33333V43.9286H31.6667V21.0715ZM36.82 4.96621L28.0822 -3.77153L11.9198 12.3909L20.6575 21.1286L36.82 4.96621ZM11.9198 -3.77153L3.18205 4.9662L19.3445 21.1287L28.0822 12.3909L11.9198 -3.77153ZM-6.42857 29.1667V35.8334H16.4286V29.1667H-6.42857ZM5 47.262H35V24.4048H5V47.262ZM46.4286 35.8334V29.1667H23.5714V35.8334H46.4286Z" fill="#86909C" mask="url(#path-1-inside-1_10262_12747)"/>
</g>
</g>
</svg>
