<svg width="14" height="14" viewBox="0 0 14 14" fill="none" xmlns="http://www.w3.org/2000/svg">
<rect width="14" height="14" fill="white" fill-opacity="0.01"/>
<path fill-rule="evenodd" clip-rule="evenodd" d="M5.25058 0.583374V2.91671H1.75058V7.00004H2.32288C2.27589 8.20781 2.09332 9.3877 1.90831 10.3127C1.80134 10.8476 1.69444 11.2929 1.61458 11.6035C1.57467 11.7587 1.54157 11.88 1.51868 11.9617C1.50724 12.0026 1.49835 12.0336 1.49244 12.0539L1.48586 12.0764L1.48435 12.0815L1.48408 12.0824L1.25879 12.8334H11.5444L11.6517 12.3862L11.0845 12.25C11.6517 12.3862 11.6517 12.3863 11.6517 12.3862L11.6519 12.3856L11.6521 12.3847L11.6527 12.3821L11.6546 12.3738L11.6613 12.3447C11.6669 12.3199 11.6747 12.2842 11.6843 12.2385C11.7034 12.1472 11.7295 12.0154 11.7585 11.8489C11.8165 11.5162 11.8864 11.0437 11.9354 10.4775C12.0181 9.52386 12.0432 8.28792 11.8446 7.00004H12.2506V2.91671H8.75058V0.583374H5.25058ZM10.6626 7.00004H3.49036C3.4429 8.30837 3.24637 9.57131 3.05232 10.5415C2.96432 10.9815 2.87627 11.3641 2.8017 11.6667H4.46991C4.61337 11.1405 4.78448 10.2946 4.78448 9.33337H5.95114C5.95114 10.2477 5.81571 11.0673 5.67357 11.6667H7.99525C8.04028 11.5116 8.08892 11.3104 8.13356 11.066C8.21987 10.5936 8.28448 9.99674 8.28448 9.33337H9.45114C9.45114 10.07 9.37964 10.737 9.28123 11.2757C9.25631 11.4121 9.22917 11.543 9.20031 11.6667H10.606L10.6092 11.6486C10.6624 11.3432 10.7274 10.9043 10.7731 10.3768C10.8548 9.43407 10.8732 8.22681 10.6626 7.00004ZM6.41724 1.75004H7.58391V4.08337H11.0839V5.83337H2.91724V4.08337H6.41724V1.75004Z" fill="#86909C"/>
</svg>
