<svg width="18" height="18" viewBox="0 0 18 18" fill="none" xmlns="http://www.w3.org/2000/svg">
<rect width="18" height="18" fill="white" fill-opacity="0.01"/>
<path d="M9.00075 8.00012C10.2354 8.00012 11.3886 7.88812 12.4614 7.66412C13.5341 7.44012 14.3811 7.10938 15.0006 6.67188V8.00012C15.0006 8.35975 14.732 8.69312 14.1956 9.00025C13.6592 9.30737 12.9304 9.5515 12.0081 9.73088C11.0867 9.91025 10.084 10.0004 9.00075 10.0004C7.9175 10.0004 6.91475 9.91025 5.9925 9.73088C5.07112 9.55063 4.34225 9.30737 3.805 9.00025C3.26863 8.69312 3 8.35975 3 8.00012V6.67188C3.6195 7.10938 4.4665 7.44012 5.53925 7.66412C6.61287 7.88812 7.76612 8.00012 9.00075 8.00012ZM9.00075 14C10.2354 14 11.3886 13.888 12.4614 13.664C13.5341 13.44 14.3811 13.1093 15.0006 12.6718V14C15.0006 14.3596 14.732 14.693 14.1956 15.0001C13.6592 15.3072 12.9304 15.5514 12.0081 15.7307C11.0867 15.9101 10.084 16.0002 9.00075 16.0002C7.9175 16.0002 6.91475 15.9101 5.9925 15.7307C5.07025 15.5514 4.34137 15.3072 3.805 15.0001C3.26863 14.693 3 14.3596 3 14V12.6718C3.6195 13.1093 4.4665 13.44 5.53925 13.664C6.61287 13.888 7.76612 14 9.00075 14ZM9.00075 11.0005C10.2354 11.0005 11.3886 10.8885 12.4614 10.6645C13.5341 10.4405 14.3811 10.1097 15.0006 9.67225V11.0005C15.0006 11.3601 14.732 11.6935 14.1956 12.0006C13.6592 12.3077 12.9304 12.551 12.0081 12.7312C11.0867 12.9106 10.084 12.9999 9.00075 12.9999C7.9175 12.9999 6.91475 12.9097 5.9925 12.7304C5.07025 12.551 4.34137 12.3069 3.805 11.9998C3.26863 11.6926 3 11.3592 3 10.9996V9.67225C3.6195 10.1097 4.4665 10.4405 5.53925 10.6645C6.61287 10.8885 7.76612 11.0005 9.00075 11.0005Z" fill="url(#paint0_linear_3163_55873)"/>
<path d="M9.00075 2C10.084 2 11.0867 2.09012 12.009 2.2695C12.9312 2.44887 13.6601 2.693 14.1965 3.00013C14.7329 3.30725 15.0015 3.64063 15.0015 4.00025V5.00037C15.0015 5.36 14.7329 5.69338 14.1965 6.0005C13.6601 6.30763 12.9312 6.55087 12.009 6.73112C11.0867 6.9105 10.084 6.99975 9.00075 6.99975C7.9175 6.99975 6.91475 6.90963 5.9925 6.73025C5.07025 6.55088 4.34137 6.30675 3.805 5.99963C3.26863 5.6925 3 5.35913 3 4.9995V4.00025C3 3.64063 3.26863 3.30725 3.805 3.00013C4.34137 2.693 5.07025 2.44887 5.9925 2.2695C6.91475 2.09012 7.9175 2 9.00075 2Z" fill="#E5E6EB"/>
<defs>
<linearGradient id="paint0_linear_3163_55873" x1="9.00031" y1="6.67187" x2="9.00031" y2="16.0002" gradientUnits="userSpaceOnUse">
<stop stop-color="#CED2D9"/>
<stop offset="1" stop-color="#BFC7D4"/>
</linearGradient>
</defs>
</svg>
