<svg width="18" height="18" viewBox="0 0 18 18" fill="none" xmlns="http://www.w3.org/2000/svg">
<rect width="18" height="18" fill="white" fill-opacity="0.01"/>
<path fill-rule="evenodd" clip-rule="evenodd" d="M4.81423 12.6749C4.29305 12.8273 3.81671 13.0216 3.45027 13.2691C3.09994 13.5058 2.66626 13.9211 2.66626 14.5415C2.66626 15.1619 3.09994 15.5771 3.45027 15.8138C3.82824 16.0691 4.32313 16.2679 4.86356 16.4223C5.95518 16.7342 7.41723 16.9165 8.99959 16.9165C10.582 16.9165 12.044 16.7342 13.1356 16.4223C13.6761 16.2679 14.1709 16.0691 14.5489 15.8138C14.8992 15.5771 15.3329 15.1619 15.3329 14.5415C15.3329 13.9211 14.8992 13.5058 14.5489 13.2691C14.1824 13.0215 13.7059 12.8272 13.1845 12.6748L11.8685 13.9908C12.1722 14.0472 12.4512 14.1118 12.7007 14.1831C13.1143 14.3013 13.4113 14.4277 13.6002 14.5415C13.4113 14.6552 13.1143 14.7817 12.7007 14.8998C11.7866 15.161 10.4778 15.3331 8.99959 15.3331C7.52138 15.3331 6.2126 15.161 5.29853 14.8998C4.88492 14.7817 4.58791 14.6552 4.39895 14.5415C4.58791 14.4277 4.88492 14.3013 5.29853 14.1831C5.5479 14.1118 5.82666 14.0472 6.13021 13.9909L4.81423 12.6749ZM4.21361 14.6838C4.21332 14.6837 4.21485 14.6812 4.21907 14.6764C4.216 14.6814 4.21389 14.6838 4.21361 14.6838ZM13.7856 14.6838C13.7853 14.6838 13.7832 14.6814 13.7801 14.6764C13.7843 14.6812 13.7859 14.6837 13.7856 14.6838ZM13.7801 14.4066C13.7832 14.4016 13.7853 14.3991 13.7856 14.3992C13.7859 14.3992 13.7843 14.4017 13.7801 14.4066ZM4.21907 14.4066C4.21485 14.4017 4.21332 14.3992 4.21361 14.3992C4.21389 14.3991 4.216 14.4016 4.21907 14.4066Z" fill="#6AA1FF"/>
<path fill-rule="evenodd" clip-rule="evenodd" d="M12.9581 2.87397C10.772 0.687844 7.22758 0.687844 5.04145 2.87397C2.85532 5.06009 2.85532 8.6045 5.04145 10.7906L8.99979 14.749L12.9581 10.7906C15.1442 8.6045 15.1442 5.06009 12.9581 2.87397ZM8.99978 8.84151C10.0928 8.84151 10.979 7.9554 10.979 6.86234C10.979 5.76928 10.0928 4.88317 8.99978 4.88317C7.90672 4.88317 7.02062 5.76928 7.02062 6.86234C7.02062 7.9554 7.90672 8.84151 8.99978 8.84151Z" fill="#2253E6"/>
</svg>
