<svg width="18" height="18" viewBox="0 0 18 18" fill="none" xmlns="http://www.w3.org/2000/svg">
<rect width="18" height="18" fill="white" fill-opacity="0.01"/>
<path fill-rule="evenodd" clip-rule="evenodd" d="M5.55794 6.44195L4.22461 5.10861L5.10849 4.22473L6.44183 5.55806L5.55794 6.44195Z" fill="#E5E6EB"/>
<path fill-rule="evenodd" clip-rule="evenodd" d="M9.8916 5.22471L10.5583 4.55804L11.4422 5.44193L10.7755 6.10859L9.8916 5.22471Z" fill="#E5E6EB"/>
<path fill-rule="evenodd" clip-rule="evenodd" d="M10.8218 9.27625L12.8218 11.7762L11.8457 12.5571L9.8457 10.0571L10.8218 9.27625Z" fill="#E5E6EB"/>
<path fill-rule="evenodd" clip-rule="evenodd" d="M7.44183 10.4419L6.10849 11.7753L5.22461 10.8914L6.55794 9.55804L7.44183 10.4419Z" fill="#E5E6EB"/>
<path fill-rule="evenodd" clip-rule="evenodd" d="M4.5 14.4048C5.55197 14.4048 6.40476 13.552 6.40476 12.5C6.40476 11.448 5.55197 10.5952 4.5 10.5952C3.44803 10.5952 2.59524 11.448 2.59524 12.5C2.59524 13.552 3.44803 14.4048 4.5 14.4048Z" fill="url(#paint0_linear_3180_54457)"/>
<path fill-rule="evenodd" clip-rule="evenodd" d="M2 12.5C2 11.1193 3.11929 10 4.5 10C5.88071 10 7 11.1193 7 12.5C7 13.8807 5.88071 15 4.5 15C3.11929 15 2 13.8807 2 12.5ZM4.5 11.1905C3.77677 11.1905 3.19048 11.7768 3.19048 12.5C3.19048 13.2232 3.77677 13.8095 4.5 13.8095C5.22323 13.8095 5.80952 13.2232 5.80952 12.5C5.80952 11.7768 5.22323 11.1905 4.5 11.1905Z" fill="url(#paint1_linear_3180_54457)"/>
<path fill-rule="evenodd" clip-rule="evenodd" d="M13.5 15.4048C14.552 15.4048 15.4048 14.552 15.4048 13.5C15.4048 12.448 14.552 11.5952 13.5 11.5952C12.448 11.5952 11.5952 12.448 11.5952 13.5C11.5952 14.552 12.448 15.4048 13.5 15.4048Z" fill="#E5E6EB"/>
<path fill-rule="evenodd" clip-rule="evenodd" d="M11 13.5C11 12.1193 12.1193 11 13.5 11C14.8807 11 16 12.1193 16 13.5C16 14.8807 14.8807 16 13.5 16C12.1193 16 11 14.8807 11 13.5ZM13.5 12.1905C12.7768 12.1905 12.1905 12.7768 12.1905 13.5C12.1905 14.2232 12.7768 14.8095 13.5 14.8095C14.2232 14.8095 14.8095 14.2232 14.8095 13.5C14.8095 12.7768 14.2232 12.1905 13.5 12.1905Z" fill="#E5E6EB"/>
<path fill-rule="evenodd" clip-rule="evenodd" d="M12.3333 4.99998C13.0697 4.99998 13.6667 4.40301 13.6667 3.66665C13.6667 2.93027 13.0697 2.33331 12.3333 2.33331C11.597 2.33331 11 2.93027 11 3.66665C11 4.40301 11.597 4.99998 12.3333 4.99998Z" fill="url(#paint2_linear_3180_54457)"/>
<path fill-rule="evenodd" clip-rule="evenodd" d="M10.375 3.66665C10.375 2.58508 11.2518 1.70831 12.3333 1.70831C13.4149 1.70831 14.2917 2.58508 14.2917 3.66665C14.2917 4.74819 13.4149 5.62498 12.3333 5.62498C11.2518 5.62498 10.375 4.74819 10.375 3.66665ZM12.3333 2.95831C11.9421 2.95831 11.625 3.27545 11.625 3.66665C11.625 4.05783 11.9421 4.37498 12.3333 4.37498C12.7245 4.37498 13.0417 4.05783 13.0417 3.66665C13.0417 3.27545 12.7245 2.95831 12.3333 2.95831Z" fill="url(#paint3_linear_3180_54457)"/>
<path fill-rule="evenodd" clip-rule="evenodd" d="M8.33366 10.3333C9.80643 10.3333 11.0003 9.13943 11.0003 7.66667C11.0003 6.1939 9.80643 5 8.33366 5C6.86089 5 5.66699 6.1939 5.66699 7.66667C5.66699 9.13943 6.86089 10.3333 8.33366 10.3333Z" fill="url(#paint4_linear_3180_54457)"/>
<path fill-rule="evenodd" clip-rule="evenodd" d="M5.04199 7.66667C5.04199 5.84872 6.51571 4.375 8.33366 4.375C10.1516 4.375 11.6253 5.84872 11.6253 7.66667C11.6253 9.48461 10.1516 10.9583 8.33366 10.9583C6.51571 10.9583 5.04199 9.48461 5.04199 7.66667ZM8.33366 5.625C7.20607 5.625 6.29199 6.53908 6.29199 7.66667C6.29199 8.79426 7.20607 9.70833 8.33366 9.70833C9.46125 9.70833 10.3753 8.79426 10.3753 7.66667C10.3753 6.53908 9.46125 5.625 8.33366 5.625Z" fill="url(#paint5_linear_3180_54457)"/>
<path fill-rule="evenodd" clip-rule="evenodd" d="M3.66634 4.99998C4.40271 4.99998 4.99967 4.40301 4.99967 3.66665C4.99967 2.93027 4.40271 2.33331 3.66634 2.33331C2.92996 2.33331 2.33301 2.93027 2.33301 3.66665C2.33301 4.40301 2.92996 4.99998 3.66634 4.99998Z" fill="url(#paint6_linear_3180_54457)"/>
<path fill-rule="evenodd" clip-rule="evenodd" d="M1.70801 3.66665C1.70801 2.58509 2.58478 1.70831 3.66634 1.70831C4.74788 1.70831 5.62467 2.58508 5.62467 3.66665C5.62467 4.74819 4.74789 5.62498 3.66634 5.62498C2.58478 5.62498 1.70801 4.74819 1.70801 3.66665ZM3.66634 2.95831C3.27514 2.95831 2.95801 3.27544 2.95801 3.66665C2.95801 4.05784 3.27514 4.37498 3.66634 4.37498C4.05753 4.37498 4.37467 4.05783 4.37467 3.66665C4.37467 3.27545 4.05753 2.95831 3.66634 2.95831Z" fill="url(#paint7_linear_3180_54457)"/>
<defs>
<linearGradient id="paint0_linear_3180_54457" x1="4.5" y1="10" x2="4.5" y2="15" gradientUnits="userSpaceOnUse">
<stop stop-color="#CED2D9"/>
<stop offset="1" stop-color="#BFC7D4"/>
</linearGradient>
<linearGradient id="paint1_linear_3180_54457" x1="4.5" y1="10" x2="4.5" y2="15" gradientUnits="userSpaceOnUse">
<stop stop-color="#CED2D9"/>
<stop offset="1" stop-color="#BFC7D4"/>
</linearGradient>
<linearGradient id="paint2_linear_3180_54457" x1="12.3333" y1="1.70831" x2="12.3333" y2="5.62498" gradientUnits="userSpaceOnUse">
<stop stop-color="#CED2D9"/>
<stop offset="1" stop-color="#BFC7D4"/>
</linearGradient>
<linearGradient id="paint3_linear_3180_54457" x1="12.3333" y1="1.70831" x2="12.3333" y2="5.62498" gradientUnits="userSpaceOnUse">
<stop stop-color="#CED2D9"/>
<stop offset="1" stop-color="#BFC7D4"/>
</linearGradient>
<linearGradient id="paint4_linear_3180_54457" x1="8.33366" y1="4.375" x2="8.33366" y2="10.9583" gradientUnits="userSpaceOnUse">
<stop stop-color="#CED2D9"/>
<stop offset="1" stop-color="#BFC7D4"/>
</linearGradient>
<linearGradient id="paint5_linear_3180_54457" x1="8.33366" y1="4.375" x2="8.33366" y2="10.9583" gradientUnits="userSpaceOnUse">
<stop stop-color="#CED2D9"/>
<stop offset="1" stop-color="#BFC7D4"/>
</linearGradient>
<linearGradient id="paint6_linear_3180_54457" x1="3.66634" y1="1.70831" x2="3.66634" y2="5.62498" gradientUnits="userSpaceOnUse">
<stop stop-color="#CED2D9"/>
<stop offset="1" stop-color="#BFC7D4"/>
</linearGradient>
<linearGradient id="paint7_linear_3180_54457" x1="3.66634" y1="1.70831" x2="3.66634" y2="5.62498" gradientUnits="userSpaceOnUse">
<stop stop-color="#CED2D9"/>
<stop offset="1" stop-color="#BFC7D4"/>
</linearGradient>
</defs>
</svg>
