<svg width="18" height="18" viewBox="0 0 18 18" fill="none" xmlns="http://www.w3.org/2000/svg">
<rect width="18" height="18" fill="white" fill-opacity="0.01"/>
<path d="M13.1489 10.9047C13.4719 12.4963 15.206 12.0308 15.206 12.0308C15.206 12.0308 15.1984 12.0461 15.7005 12.8476C14.3923 13.9996 15.6929 15.0723 15.6929 15.0723C15.6929 15.0723 15.6845 15.08 15.1938 15.8815C13.5275 15.4274 13.1748 16.8994 13.1542 16.9954L13.1535 17H12.1371C11.6502 15.3238 10.1965 15.8685 10.1081 15.9028L10.1043 15.9043L9.56641 15.0571C10.9119 13.835 9.64564 12.9253 9.56945 12.8727C9.56641 12.8697 9.58469 12.8445 10.0959 12.027C11.8125 12.4842 12.1256 11.0022 12.1439 10.9093L12.1447 10.9047H13.1489ZM12.6255 12.8301C11.9778 12.8301 11.4536 13.3329 11.4536 13.9523C11.4536 14.5718 11.9778 15.0746 12.6255 15.0746C13.2723 15.0746 13.7973 14.5718 13.7973 13.9523C13.7973 13.3322 13.2723 12.8301 12.6255 12.8301Z" fill="#6AA1FF"/>
<path d="M8.77868 1C10.9867 2.77752 13.0111 3.63467 14.8511 3.57143V9.09524C14.8511 9.76419 14.7619 10.3783 14.5615 10.9619C14.0351 10.7333 13.5589 10.2724 13.3783 9.38095H11.8712C11.8712 9.38095 11.456 11.7718 8.79849 11.064C8.53529 11.4868 8.27015 11.9084 8.00306 12.3288C8.00458 12.3303 10.0831 13.7208 8.00306 15.6095C6.98058 15.0869 5.02477 14.2335 4.17906 13.2857C3.07506 11.9524 2.52344 10.7143 2.52344 9.28571V3.57143C4.73144 3.63467 6.81677 2.77752 8.77868 1Z" fill="#2253E6"/>
<rect x="6" y="6" width="6" height="1.5" fill="white"/>
</svg>
