<svg width="18" height="18" viewBox="0 0 18 18" fill="none" xmlns="http://www.w3.org/2000/svg">
<path d="M7.00051 5.47784C6.97883 6.72522 7.64428 7.8888 8.75004 8.53344C9.82744 9.15552 11.1717 9.15552 12.2491 8.53344C13.3398 7.89847 14.0036 6.75584 13.9986 5.52619C14.0253 4.60596 13.6684 3.71475 13.0079 3.05238C12.3475 2.39001 11.4402 2.00967 10.4879 2C8.53322 2.03062 6.97216 3.58743 7.00051 5.47784Z" fill="url(#paint0_linear_3180_54430)"/>
<path d="M12.9571 10.1595L11.5168 13.0424L11.0005 11.7911C11.0466 11.5467 11.1517 11.3144 11.3084 11.1147C11.5168 10.6328 11.6164 10.4383 11.1001 10.1509C10.8695 10.0321 10.5966 10.0046 10.3439 10.0768C10.0913 10.1491 9.88106 10.3126 9.75934 10.5312C9.55095 11.0132 10.0673 11.2076 10.0673 11.4951C9.99355 12.0131 9.89028 12.526 9.75934 13.0338C9.62841 13.5415 9.75934 13.4141 9.24297 12.4589C8.85201 11.6706 8.51084 10.8617 8.2213 10.0373C5.4403 10.9305 4 12.6534 4 15.168C4 16.1318 16.675 16.6137 16.983 14.5931C17.2891 12.5708 13.3758 9.20595 12.9571 10.1698V10.1595Z" fill="url(#paint1_linear_3180_54430)"/>
<path fill-rule="evenodd" clip-rule="evenodd" d="M2 7H7V9.34141C4.66962 10.1651 3 12.3876 3 15C3 15.3407 3.0284 15.6748 3.08296 16H2V7ZM6 8H3V9H6V8Z" fill="#E5E6EB"/>
<defs>
<linearGradient id="paint0_linear_3180_54430" x1="10.5" y1="2" x2="10.5" y2="16" gradientUnits="userSpaceOnUse">
<stop stop-color="#CED2D9"/>
<stop offset="1" stop-color="#BFC7D4"/>
</linearGradient>
<linearGradient id="paint1_linear_3180_54430" x1="10.5" y1="2" x2="10.5" y2="16" gradientUnits="userSpaceOnUse">
<stop stop-color="#CED2D9"/>
<stop offset="1" stop-color="#BFC7D4"/>
</linearGradient>
</defs>
</svg>
