<svg width="32" height="32" viewBox="0 0 32 32" fill="none" xmlns="http://www.w3.org/2000/svg">
<rect width="32" height="32" rx="6" fill="#2253E6" fill-opacity="0.15"/>
<g clip-path="url(#clip0_2133_27695)">
<path d="M12.5627 12.9333C12.7989 11.0891 13.2491 9.42134 13.9099 8.28534C12.732 8.60618 11.6428 9.19164 10.7254 9.99712C9.808 10.8026 9.08655 11.8068 8.616 12.9333H12.5627ZM8.616 19.0667C9.08655 20.1932 9.808 21.1974 10.7254 22.0029C11.6428 22.8084 12.732 23.3938 13.9099 23.7147C13.2491 22.5787 12.7989 20.9109 12.5627 19.0667H8.616ZM12.4336 17.7333C12.3936 17.1605 12.3675 16.5813 12.3675 16C12.3675 15.4187 12.3936 14.8395 12.4336 14.2667H8.19573C8.06751 14.8356 8.00187 15.4168 8 16C8.00187 16.5832 8.06751 17.1644 8.19573 17.7333H12.4336Z" fill="#2253E6"/>
<path d="M17.9953 12.9333C17.5729 9.84319 16.5766 8.18506 16.0001 8.18506C15.4235 8.18506 14.4273 9.84319 14.0049 12.9333H17.9953ZM14.0049 19.0667C14.4273 22.1568 15.4235 23.8149 16.0001 23.8149C16.5766 23.8149 17.5729 22.1568 17.9953 19.0667H14.0049ZM13.8043 16C13.8043 16.6123 13.8262 17.1888 13.8651 17.7333H18.135C18.1739 17.1888 18.1958 16.6123 18.1958 16C18.1958 15.3877 18.1739 14.8112 18.135 14.2667H13.8651C13.8242 14.8435 13.8039 15.4217 13.8043 16Z" fill="#2253E6"/>
<path d="M19.4373 19.0667C19.201 20.9109 18.7509 22.5787 18.0901 23.7147C19.268 23.3938 20.3571 22.8084 21.2745 22.0029C22.192 21.1974 22.9134 20.1932 23.384 19.0667H19.4373ZM23.384 12.9333C22.9134 11.8068 22.192 10.8026 21.2745 9.99712C20.3571 9.19164 19.268 8.60618 18.0901 8.28534C18.7509 9.42134 19.201 11.0891 19.4373 12.9333H23.384ZM19.5664 14.2667C19.6064 14.8395 19.6325 15.4187 19.6325 16C19.6325 16.5813 19.6064 17.1605 19.5664 17.7333H23.8042C23.928 17.1744 24 16.5963 24 16C24 15.4037 23.928 14.8256 23.8042 14.2667H19.5664Z" fill="#2253E6"/>
</g>
<defs>
<clipPath id="clip0_2133_27695">
<rect width="16" height="16" fill="white" transform="translate(8 8)"/>
</clipPath>
</defs>
</svg>
