<svg width="33" height="32" viewBox="0 0 33 32" fill="none" xmlns="http://www.w3.org/2000/svg">
<rect x="0.666626" width="32" height="32" rx="6" fill="#2253E6" fill-opacity="0.15"/>
<path fill-rule="evenodd" clip-rule="evenodd" d="M12.4408 20.1215C11.8516 20.2906 11.3178 20.5064 10.9126 20.7801C10.5327 21.0367 10.0827 21.4739 10.0827 22.1173C10.0827 22.7607 10.5327 23.198 10.9126 23.4546C11.3201 23.7298 11.8577 23.9465 12.4509 24.116C13.6482 24.4581 15.2561 24.6591 16.9997 24.6591C18.7432 24.6591 20.3511 24.4581 21.5484 24.116C22.1416 23.9465 22.6792 23.7298 23.0867 23.4546C23.4666 23.198 23.9166 22.7607 23.9166 22.1173C23.9166 21.4739 23.4666 21.0367 23.0867 20.7801C22.6814 20.5063 22.1474 20.2905 21.558 20.1214L20.2421 21.4373C20.5586 21.4975 20.8505 21.5659 21.1134 21.641C21.6286 21.7883 21.988 21.9487 22.2004 22.0921C22.2135 22.101 22.2255 22.1094 22.2366 22.1173C22.2255 22.1253 22.2135 22.1337 22.2004 22.1425C21.988 22.286 21.6286 22.4464 21.1134 22.5936C20.0937 22.885 18.639 23.0758 16.9997 23.0758C15.3603 23.0758 13.9056 22.885 12.8859 22.5936C12.3707 22.4464 12.0113 22.286 11.7989 22.1425C11.7858 22.1337 11.7738 22.1253 11.7627 22.1173C11.7738 22.1094 11.7858 22.101 11.7989 22.0921C12.0113 21.9487 12.3707 21.7883 12.8859 21.641C13.1487 21.566 13.4404 21.4976 13.7567 21.4374L12.4408 20.1215ZM11.6422 22.2263C11.642 22.2263 11.643 22.2243 11.6459 22.2204C11.6438 22.2244 11.6424 22.2263 11.6422 22.2263ZM22.3571 22.2263C22.3569 22.2263 22.3555 22.2244 22.3534 22.2204C22.3563 22.2243 22.3573 22.2263 22.3571 22.2263ZM22.3534 22.0142C22.3555 22.0103 22.3569 22.0084 22.3571 22.0084C22.3573 22.0084 22.3563 22.0104 22.3534 22.0142ZM11.6459 22.0142C11.643 22.0104 11.642 22.0084 11.6422 22.0084C11.6424 22.0084 11.6438 22.0103 11.6459 22.0142Z" fill="#2253E6"/>
<path fill-rule="evenodd" clip-rule="evenodd" d="M21.2919 9.13795C18.9214 6.76745 15.0781 6.76745 12.7076 9.13795L12.5415 9.30402C10.171 11.6745 10.171 15.5178 12.5415 17.8883L16.9997 22.3466L21.458 17.8883C23.8285 15.5178 23.8285 11.6745 21.458 9.30402L21.2919 9.13795ZM16.9998 15.817C18.2079 15.817 19.1874 14.8376 19.1874 13.6294C19.1874 12.4212 18.2079 11.4418 16.9998 11.4418C15.7916 11.4418 14.8122 12.4212 14.8122 13.6294C14.8122 14.8376 15.7916 15.817 16.9998 15.817Z" fill="#2253E6"/>
</svg>
