<svg xmlns="http://www.w3.org/2000/svg" width="20" height="20" viewBox="0 0 20 20" fill="none">
  <rect width="20" height="20" rx="4" fill="url(#paint0_linear_3180_54213)"/>
  <path d="M14.3183 13.8779C13.7688 13.8779 13.3232 13.4323 13.3232 12.8828V8.64835C13.3232 8.09884 13.7688 7.65332 14.3183 7.65332C14.8678 7.65332 15.3134 8.09884 15.3134 8.64835V12.8828C15.3128 13.4329 14.8678 13.8779 14.3183 13.8779Z" fill="white" fill-opacity="0.8"/>
  <path d="M9.99994 13.8778C9.45042 13.8778 9.00488 13.4323 9.00488 12.8828V5.99503C9.00488 5.44552 9.45042 5 9.99994 5C10.5495 5 10.995 5.44552 10.995 5.99503V12.8828C10.995 13.4328 10.55 13.8778 9.99994 13.8778Z" fill="white"/>
  <path d="M5.68256 13.8777C5.13303 13.8777 4.6875 13.4322 4.6875 12.8826V9.97452C4.6875 9.42501 5.13303 8.97949 5.68256 8.97949C6.23208 8.97949 6.67761 9.42501 6.67761 9.97452V12.8826C6.67761 13.4327 6.23208 13.8777 5.68256 13.8777Z" fill="white" fill-opacity="0.7"/>
  <defs>
    <linearGradient id="paint0_linear_3180_54213" x1="10" y1="-0.740741" x2="10" y2="20" gradientUnits="userSpaceOnUse">
      <stop stop-color="#FFD23D"/>
      <stop offset="1" stop-color="#FFBB0E"/>
    </linearGradient>
  </defs>
</svg>