<svg width="14" height="14" viewBox="0 0 14 14" fill="none" xmlns="http://www.w3.org/2000/svg">
<rect width="14" height="14" fill="white" fill-opacity="0.01"/>
<path d="M4.0835 5.83333V6.41667C2.68341 6.41667 1.75016 7.587 1.75016 8.67096C1.75016 9.95961 2.79483 11.0043 4.0835 11.0043C4.30553 11.0043 4.51935 10.9735 4.72138 10.9162L5.03957 12.0386C4.73498 12.125 4.41412 12.171 4.0835 12.171C2.1505 12.171 0.583496 10.6039 0.583496 8.67096C0.583496 7.32685 1.48899 5.93213 2.93577 5.4375C3.13484 3.36808 4.87854 1.75 7.00016 1.75C9.12178 1.75 10.8655 3.36808 11.0646 5.4375C12.5113 5.93213 13.4168 7.32685 13.4168 8.67096C13.4168 10.6039 11.8498 12.171 9.91683 12.171C9.58621 12.171 9.26535 12.125 8.96076 12.0386L9.27894 10.9162C9.48098 10.9735 9.6948 11.0043 9.91683 11.0043C11.2055 11.0043 12.2502 9.95961 12.2502 8.67096C12.2502 7.587 11.3169 6.41667 9.91683 6.41667V5.83333C9.91683 4.22251 8.61099 2.91667 7.00016 2.91667C5.38934 2.91667 4.0835 4.22251 4.0835 5.83333Z" fill="white"/>
<path d="M6.99757 5.27876L9.49086 7.75265L8.66913 8.58082L7.5835 7.50363V11.0833H6.41683V7.51406L5.39045 8.54382L4.56414 7.72023L6.99757 5.27876Z" fill="white"/>
</svg>
