<svg width="16" height="16" viewBox="0 0 16 16" fill="none" xmlns="http://www.w3.org/2000/svg">
<rect width="16" height="16" fill="white" fill-opacity="0.01"/>
<path fill-rule="evenodd" clip-rule="evenodd" d="M8.00004 14.6663C11.6819 14.6663 14.6667 11.6816 14.6667 7.99967C14.6667 4.31778 11.6819 1.33301 8.00004 1.33301C4.31814 1.33301 1.33337 4.31778 1.33337 7.99967C1.33337 11.6816 4.31814 14.6663 8.00004 14.6663ZM9.96031 4.91543C9.48937 4.51982 8.87716 4.33301 8.12366 4.33301C7.25243 4.33301 6.56958 4.56378 6.0751 5.0363C5.58062 5.49784 5.33337 6.12422 5.33337 6.92641H6.56958C6.56958 6.4429 6.67554 6.06927 6.88746 5.80554C7.12293 5.48685 7.51145 5.33301 8.04125 5.33301C8.46509 5.33301 8.80652 5.4429 9.04198 5.66268C9.26568 5.88246 9.38341 6.17916 9.38341 6.56378C9.38341 6.84949 9.26568 7.11323 9.05376 7.36598L8.85361 7.57477C8.12366 8.17916 7.67627 8.62971 7.52322 8.9374C7.35839 9.22312 7.28775 9.57477 7.28775 9.98136V10.1682H8.5475V9.98136C8.5475 9.71762 8.60637 9.47587 8.73588 9.25609C8.84184 9.05828 9.00666 8.86048 9.23036 8.68466C9.7837 8.23411 10.1134 7.94839 10.2193 7.82751C10.5137 7.47587 10.6667 7.02532 10.6667 6.48685C10.6667 5.82751 10.4312 5.30004 9.96031 4.91543ZM8.53573 10.9814C8.3709 10.8275 8.15898 10.7616 7.91174 10.7616C7.67627 10.7616 7.46435 10.8275 7.29953 10.9814C7.1347 11.1242 7.05229 11.311 7.05229 11.5418C7.05229 11.7616 7.1347 11.9484 7.29953 12.1022C7.46435 12.2561 7.67627 12.333 7.91174 12.333C8.14721 12.333 8.35913 12.2561 8.52396 12.1132C8.68878 11.9594 8.78297 11.7726 8.78297 11.5418C8.78297 11.311 8.70056 11.1242 8.53573 10.9814Z" fill="#86909C"/>
</svg>
