<svg width="28" height="28" viewBox="0 0 28 28" fill="none" xmlns="http://www.w3.org/2000/svg">
<g clip-path="url(#clip0_6044_113852)">
<path fill-rule="evenodd" clip-rule="evenodd" d="M23.3783 25H28V28H0V25H4.5918V16.1355C4.5918 10.9487 8.7956 6.74193 13.9854 6.74193C19.1745 6.74193 23.3783 10.9495 23.3783 16.1355V25ZM10.0314 18.1591L14.665 10.528L13.7372 16.2514H17.4431L12.8094 23.8825L13.7372 18.1591H10.0314ZM22.1946 2.69958C22.1322 2.46592 21.9799 2.26643 21.771 2.14465L21.771 2.14462H21.7656C21.6624 2.08546 21.5485 2.04723 21.4305 2.0321C21.3124 2.01696 21.1926 2.02524 21.0778 2.05644C20.9629 2.08764 20.8554 2.14116 20.7612 2.21395C20.6671 2.28673 20.5882 2.37735 20.5291 2.48062L18.8643 5.37677L20.4383 6.28789L22.1039 3.3918C22.2244 3.18208 22.257 2.93324 22.1946 2.69958ZM14.9677 0.919461C14.9677 0.410165 14.5272 1.38197e-05 13.9824 0C13.4375 0 12.9971 0.410156 12.9971 0.917164V4.20153H14.9677V0.919461ZM6.53507 2.03036C6.41667 2.046 6.30252 2.08484 6.19915 2.14465L6.19841 2.14462C5.98966 2.26582 5.83743 2.46477 5.77502 2.69794C5.71261 2.93111 5.74512 3.1795 5.86542 3.38877L7.53257 6.28564L9.10661 5.37373L7.44099 2.47762C7.38141 2.37411 7.302 2.28337 7.20731 2.2106C7.11262 2.13783 7.0045 2.08445 6.88914 2.05352C6.77379 2.02259 6.65347 2.01472 6.53507 2.03036ZM0.734061 7.60064C0.63945 7.67351 0.560183 7.76437 0.500821 7.868H0.5C0.379472 8.07732 0.346838 8.32589 0.409251 8.55923C0.471663 8.79257 0.624031 8.99165 0.832965 9.11285L3.71932 10.7891L4.6274 9.20896L1.7419 7.53503C1.63864 7.47504 1.52454 7.43606 1.40615 7.42032C1.28777 7.40459 1.16745 7.41242 1.0521 7.44337C0.936758 7.47431 0.828671 7.52776 0.734061 7.60064ZM27.56 8.56023C27.6224 8.32657 27.5898 8.07772 27.4694 7.868C27.4694 7.86689 27.4688 7.86632 27.4683 7.86568C27.4677 7.86501 27.4671 7.86425 27.4671 7.86269C27.3463 7.65499 27.148 7.50364 26.9158 7.4418C26.6836 7.37995 26.4364 7.41267 26.2283 7.53277L23.3435 9.20596L24.2516 10.7868L27.1364 9.11515C27.3453 8.99337 27.4976 8.79389 27.56 8.56023Z" fill="url(#paint0_linear_6044_113852)"/>
</g>
<defs>
<linearGradient id="paint0_linear_6044_113852" x1="14" y1="0" x2="14" y2="28" gradientUnits="userSpaceOnUse">
<stop stop-color="#F53F3F" stop-opacity="0.3"/>
<stop offset="1" stop-color="#F53F3F"/>
</linearGradient>
<clipPath id="clip0_6044_113852">
<rect width="28" height="28" fill="white"/>
</clipPath>
</defs>
</svg>
