<svg width="60" height="60" viewBox="0 0 60 60" fill="none" xmlns="http://www.w3.org/2000/svg">
<path d="M23 8.73199C24.8564 7.66019 27.1436 7.66019 29 8.73199L39.4545 14.7679C41.3109 15.8397 42.4545 17.8204 42.4545 19.964V32.0358C42.4545 34.1794 41.3109 36.1602 39.4545 37.232L29 43.2679C27.1436 44.3397 24.8564 44.3397 23 43.2679L12.5455 37.232C10.6891 36.1602 9.54552 34.1794 9.54552 32.0358V19.964C9.54552 17.8204 10.6891 15.8397 12.5455 14.7679L23 8.73199Z" fill="#3C70F4"/>
<path d="M21.0785 22.4585C20.2916 21.6671 19.2153 21.1899 18.0234 21.1899C15.6278 21.1899 13.6836 23.1451 13.6836 25.5543C13.6836 27.9635 15.6278 29.9187 18.0234 29.9187C19.2269 29.9187 20.3147 29.4183 21.1017 28.6268L19.4815 27.0207C19.1228 27.3932 18.6136 27.6027 18.0234 27.6027C16.8429 27.6027 15.9866 26.7414 15.9866 25.5543C15.9866 24.3672 16.8429 23.5059 18.0234 23.5059C18.6136 23.5059 19.1228 23.7154 19.4815 24.0762L21.0785 22.4585Z" fill="white"/>
<path d="M22.8426 29.9187H26.0599C28.4554 29.9187 30.3996 27.9635 30.3996 25.5543C30.3996 23.1451 28.4554 21.1899 26.0599 21.1899H22.8426V29.9187ZM25.1109 23.5292H26.0714C27.2056 23.5292 28.1314 24.4603 28.1314 25.5892C28.1314 26.7298 27.2056 27.6609 26.0714 27.6609H25.1109V23.5292Z" fill="white"/>
<path d="M39.2882 29.9187V21.1899H37.0083V25.3099L32.9 21.1899H31.9742V29.9187H34.254V25.7871L38.3508 29.9187H39.2882Z" fill="white"/>
<g filter="url(#filter0_b_807_5692)">
<path d="M49.2691 33.4824L40.7309 37.9547C40.3386 38.166 40.0132 38.4764 39.7896 38.8525C39.5661 39.2286 39.4527 39.6563 39.4617 40.0899V48.739C39.4617 49.667 40.4032 50.2803 41.1924 49.8526L49.7306 45.3803C50.1203 45.166 50.4435 44.8551 50.6666 44.4796C50.8898 44.1042 51.0049 43.6779 50.9998 43.2451V34.6153C50.9998 33.668 50.0583 33.074 49.2691 33.4824ZM36.2695 37.9369L27.7312 33.4824C26.9436 33.074 26.0005 33.668 26.0005 34.596V43.2823C25.9915 43.7156 26.1048 44.1431 26.3284 44.519C26.552 44.8949 26.8774 45.205 27.2697 45.4159L35.8079 49.8704C36.5971 50.2803 37.5387 49.667 37.5387 48.739V40.0721C37.5478 39.6385 37.4345 39.2107 37.2109 38.8345C36.9873 38.4584 36.6619 38.1481 36.2695 37.9369ZM48.4799 31.46C48.656 31.3842 48.8038 31.2582 48.9036 31.0989C49.0034 30.9397 49.0504 30.7549 49.0384 30.5691C49.0768 30.2172 48.8845 29.8832 48.4799 29.6782L39.7894 25.298C39.3834 25.102 38.9357 24.9999 38.4817 24.9999C38.0278 24.9999 37.58 25.102 37.1741 25.298L28.4804 29.6589C28.3073 29.7383 28.1622 29.8651 28.0631 30.0235C27.9641 30.1819 27.9156 30.365 27.9235 30.5498C27.9128 30.7377 27.9599 30.9244 28.059 31.0864C28.1581 31.2484 28.3048 31.3784 28.4804 31.46L37.1725 35.821C37.5759 36.0238 38.0254 36.1259 38.4802 36.1179C38.9353 36.125 39.3851 36.0229 39.7894 35.821L48.4799 31.46Z" fill="#3C70F4" fill-opacity="0.18"/>
<path d="M39.7117 40.0899H39.7117L39.7116 40.0847C39.7036 39.6983 39.8046 39.3166 40.0045 38.9802C40.2043 38.6442 40.4956 38.3657 40.8482 38.1755C40.8486 38.1752 40.849 38.175 40.8494 38.1748L49.384 33.7044C49.3842 33.7043 49.3844 33.7042 49.3845 33.7041C49.992 33.3904 50.7498 33.8381 50.7498 34.6153L50.7498 43.2451L50.7499 43.248C50.7543 43.6345 50.6517 44.0155 50.4517 44.3519C50.2522 44.6876 49.9627 44.9669 49.6123 45.1601L41.0764 49.6312L41.0764 49.6311L41.0733 49.6328C40.4714 49.959 39.7117 49.5017 39.7117 48.739V40.0899ZM26.2504 43.2875H26.2505V43.2823V34.596C26.2505 33.8413 27.0071 33.3889 27.6158 33.7041C27.6159 33.7042 27.6161 33.7043 27.6162 33.7043L36.1524 38.1578C36.505 38.3479 36.7963 38.6263 36.996 38.9623C37.1959 39.2986 37.2969 39.6804 37.2887 40.0668L37.2887 40.0668V40.0721V48.739C37.2887 49.5004 36.528 49.9622 35.9236 49.6488C35.9234 49.6487 35.9233 49.6486 35.9231 49.6486L27.3881 45.1958C27.3877 45.1955 27.3872 45.1953 27.3868 45.195C27.0342 45.0052 26.743 44.727 26.5433 44.3912C26.3434 44.0551 26.2424 43.6736 26.2504 43.2875ZM48.3809 31.2305L48.3743 31.2333L48.3678 31.2366L39.6776 35.5973C39.3095 35.7812 38.8994 35.8744 38.484 35.868L38.484 35.8678L38.4758 35.868C38.0612 35.8753 37.6517 35.7821 37.2848 35.5976L37.2846 35.5975L28.5925 31.2366L28.5926 31.2365L28.5858 31.2333C28.4539 31.172 28.3452 31.0751 28.2723 30.9559C28.1995 30.8369 28.1653 30.7007 28.1731 30.5642L28.1738 30.5516L28.1733 30.5391C28.1675 30.4052 28.2026 30.2721 28.2751 30.1561C28.3477 30.0399 28.455 29.9456 28.5846 29.8862L28.5847 29.8863L28.5925 29.8824L37.2844 25.5223C37.6558 25.3433 38.0658 25.2499 38.4817 25.2499C38.8976 25.2499 39.3074 25.3433 39.6788 25.5222L48.367 29.9013C48.367 29.9013 48.367 29.9013 48.367 29.9013C48.6987 30.0693 48.8147 30.3142 48.7898 30.542L48.7875 30.5636L48.7889 30.5853C48.7975 30.7181 48.764 30.851 48.6918 30.9662C48.6195 31.0815 48.5114 31.1742 48.3809 31.2305Z" stroke="url(#paint0_linear_807_5692)" stroke-width="0.5"/>
</g>
<defs>
<filter id="filter0_b_807_5692" x="22" y="20.9999" width="33" height="33" filterUnits="userSpaceOnUse" color-interpolation-filters="sRGB">
<feFlood flood-opacity="0" result="BackgroundImageFix"/>
<feGaussianBlur in="BackgroundImageFix" stdDeviation="2"/>
<feComposite in2="SourceAlpha" operator="in" result="effect1_backgroundBlur_807_5692"/>
<feBlend mode="normal" in="SourceGraphic" in2="effect1_backgroundBlur_807_5692" result="shape"/>
</filter>
<linearGradient id="paint0_linear_807_5692" x1="47.7391" y1="28.2608" x2="29.2609" y2="45.1086" gradientUnits="userSpaceOnUse">
<stop stop-color="#3C70F4" stop-opacity="0"/>
<stop offset="1" stop-color="white" stop-opacity="0.58"/>
</linearGradient>
</defs>
</svg>
