<svg width="16" height="16" viewBox="0 0 16 16" fill="none" xmlns="http://www.w3.org/2000/svg">
<rect width="16" height="16" fill="white" fill-opacity="0.01"/>
<path d="M7.26691 9.93327H8.73357V11.3999H7.26691V9.93327Z" fill="#86909C"/>
<path d="M8.66665 4.66659H7.33331V9.33325H8.66665V4.66659Z" fill="#86909C"/>
<path fill-rule="evenodd" clip-rule="evenodd" d="M7.99998 14.6666C11.6819 14.6666 14.6666 11.6818 14.6666 7.99992C14.6666 4.31802 11.6819 1.33325 7.99998 1.33325C4.31808 1.33325 1.33331 4.31802 1.33331 7.99992C1.33331 11.6818 4.31808 14.6666 7.99998 14.6666ZM7.99998 13.3333C10.9455 13.3333 13.3333 10.9454 13.3333 7.99992C13.3333 5.0544 10.9455 2.66659 7.99998 2.66659C5.05446 2.66659 2.66665 5.0544 2.66665 7.99992C2.66665 10.9454 5.05446 13.3333 7.99998 13.3333Z" fill="#86909C"/>
</svg>
