<svg width="14" height="14" viewBox="0 0 14 14" fill="none" xmlns="http://www.w3.org/2000/svg">
<path d="M6.41663 9.91699V6.07528L5.07911 7.4128L4.25415 6.58785L6.99996 3.84203L9.74577 6.58785L8.92081 7.4128L7.58329 6.07528V9.91699H6.41663Z" fill="#00B42A"/>
<path fill-rule="evenodd" clip-rule="evenodd" d="M6.99996 1.16699C3.7783 1.16699 1.16663 3.77866 1.16663 7.00033C1.16663 10.222 3.7783 12.8337 6.99996 12.8337C10.2216 12.8337 12.8333 10.222 12.8333 7.00033C12.8333 3.77866 10.2216 1.16699 6.99996 1.16699ZM2.33329 7.00033C2.33329 4.423 4.42263 2.33366 6.99996 2.33366C9.57729 2.33366 11.6666 4.423 11.6666 7.00033C11.6666 9.57765 9.57729 11.667 6.99996 11.667C4.42263 11.667 2.33329 9.57765 2.33329 7.00033Z" fill="#00B42A"/>
</svg>
