<svg width="16" height="16" viewBox="0 0 16 16" fill="none" xmlns="http://www.w3.org/2000/svg">
<path d="M5.3332 8.13335C5.77503 8.13335 6.1332 7.77517 6.1332 7.33335C6.1332 6.89152 5.77503 6.53335 5.3332 6.53335C4.89138 6.53335 4.5332 6.89152 4.5332 7.33335C4.5332 7.77517 4.89138 8.13335 5.3332 8.13335Z" fill="#4E5969"/>
<path d="M8.79987 7.33335C8.79987 7.77517 8.4417 8.13335 7.99987 8.13335C7.55804 8.13335 7.19987 7.77517 7.19987 7.33335C7.19987 6.89152 7.55804 6.53335 7.99987 6.53335C8.4417 6.53335 8.79987 6.89152 8.79987 7.33335Z" fill="#4E5969"/>
<path d="M10.6665 8.13335C11.1084 8.13335 11.4665 7.77517 11.4665 7.33335C11.4665 6.89152 11.1084 6.53335 10.6665 6.53335C10.2247 6.53335 9.86654 6.89152 9.86654 7.33335C9.86654 7.77517 10.2247 8.13335 10.6665 8.13335Z" fill="#4E5969"/>
<path fill-rule="evenodd" clip-rule="evenodd" d="M2 2.66669V12H5.72386L8 14.2762L10.2761 12H14V2.66669H2ZM3.33333 10.6667V4.00002H12.6667V10.6667H9.72386L8 12.3905L6.27614 10.6667H3.33333Z" fill="#4E5969"/>
</svg>
