<svg width="16" height="16" viewBox="0 0 16 16" fill="none" xmlns="http://www.w3.org/2000/svg">
<path fill-rule="evenodd" clip-rule="evenodd" d="M4.66667 4.66667H2V11.3333H4.66667L10 14V2L4.66667 4.66667ZM8.66667 4.15738L4.98142 6H3.33333V10H4.98142L8.66667 11.8426V4.15738Z" fill="#4E5969"/>
<path d="M12.2173 5.89155L12.4281 6.52403C12.5829 6.98878 12.6665 7.48531 12.6665 8.00002C12.6665 8.51472 12.5829 9.01126 12.4281 9.476L12.2173 10.1085L10.9524 9.68703L11.1631 9.05454C11.2732 8.72397 11.3331 8.36967 11.3331 8.00002C11.3331 7.63037 11.2732 7.27606 11.1631 6.94549L10.9524 6.31301L12.2173 5.89155Z" fill="#4E5969"/>
<path d="M13.9639 5.01753L13.6653 4.42148L12.4732 5.0187L12.7718 5.61475C13.131 6.33173 13.3334 7.14127 13.3334 8.00001C13.3334 8.85875 13.131 9.66829 12.7718 10.3853L12.4732 10.9813L13.6653 11.5785L13.9639 10.9825C14.4138 10.0843 14.6668 9.07074 14.6668 8.00001C14.6668 6.92928 14.4138 5.9157 13.9639 5.01753Z" fill="#4E5969"/>
</svg>
