<svg width="14" height="14" viewBox="0 0 14 14" fill="none" xmlns="http://www.w3.org/2000/svg">
<rect width="14" height="14" fill="white" fill-opacity="0.01"/>
<path fill-rule="evenodd" clip-rule="evenodd" d="M11.3226 9.74956C11.9838 9.02011 12.4629 8.1226 12.6884 7.12876C12.7077 7.04379 12.7077 6.95557 12.6884 6.87059C12.0989 4.27275 9.7765 2.33301 6.99963 2.33301C6.09625 2.33301 5.24096 2.5383 4.47779 2.90476L5.36649 3.79346C5.87485 3.60351 6.42516 3.49967 6.99963 3.49967C9.17358 3.49967 11.0015 4.98674 11.5194 6.99968C11.3331 7.72395 10.9771 8.38014 10.4965 8.92347L11.3226 9.74956ZM9.3304 7.75737C9.40786 7.51886 9.44972 7.2643 9.44972 6.99997C9.44972 5.64687 8.35281 4.54997 6.99972 4.54997C6.73538 4.54997 6.48083 4.59183 6.24232 4.66928L7.3335 5.76047C7.774 5.8788 8.12088 6.22569 8.23921 6.66618L9.3304 7.75737ZM7.68092 8.08778L8.51692 8.92379C8.09967 9.2533 7.57266 9.44997 6.99972 9.44997C5.64662 9.44997 4.54972 8.35307 4.54972 6.99997C4.54972 6.42702 4.74639 5.90001 5.0759 5.48276L5.9119 6.31877C5.78802 6.51618 5.71638 6.74971 5.71638 6.99997C5.71638 7.70873 6.29095 8.2833 6.99972 8.2833C7.24998 8.2833 7.48351 8.21167 7.68092 8.08778ZM4.10152 4.50839C3.31677 5.13087 2.7369 6.00048 2.47984 6.99968C2.99771 9.01261 4.82568 10.4997 6.99963 10.4997C7.88483 10.4997 8.71266 10.2531 9.41804 9.82491L10.2624 10.6692C9.33124 11.2987 8.2085 11.6663 6.99963 11.6663C4.22276 11.6663 1.90033 9.72661 1.31085 7.12876C1.29157 7.04378 1.29157 6.95557 1.31085 6.87059C1.5994 5.59896 2.30317 4.48502 3.27221 3.67907L4.10152 4.50839Z" fill="#86909C"/>
<path d="M2.3335 2.9165L11.0835 11.6665" stroke="#86909C" stroke-width="1.16667"/>
</svg>
