<svg width="14" height="14" viewBox="0 0 14 14" fill="none" xmlns="http://www.w3.org/2000/svg">
<rect width="14" height="14" fill="white" fill-opacity="0.01"/>
<path fill-rule="evenodd" clip-rule="evenodd" d="M6.99963 10.4997C4.82568 10.4997 2.99771 9.01261 2.47984 6.99968C2.99771 4.98674 4.82568 3.49967 6.99963 3.49967C9.17358 3.49967 11.0015 4.98674 11.5194 6.99968C11.0015 9.01262 9.17358 10.4997 6.99963 10.4997ZM6.99963 2.33301C4.22276 2.33301 1.90033 4.27274 1.31085 6.87059C1.29157 6.95557 1.29157 7.04378 1.31085 7.12876C1.90033 9.72661 4.22276 11.6663 6.99963 11.6663C9.77649 11.6663 12.0989 9.72661 12.6884 7.12876C12.7077 7.04379 12.7077 6.95557 12.6884 6.87059C12.0989 4.27275 9.7765 2.33301 6.99963 2.33301ZM5.71638 6.99997C5.71638 6.2912 6.29095 5.71663 6.99972 5.71663C7.70848 5.71663 8.28305 6.2912 8.28305 6.99997C8.28305 7.70873 7.70848 8.2833 6.99972 8.2833C6.29095 8.2833 5.71638 7.70873 5.71638 6.99997ZM6.99972 4.54997C5.64662 4.54997 4.54972 5.64687 4.54972 6.99997C4.54972 8.35307 5.64662 9.44997 6.99972 9.44997C8.35281 9.44997 9.44972 8.35307 9.44972 6.99997C9.44972 5.64687 8.35281 4.54997 6.99972 4.54997Z" fill="#86909C"/>
</svg>
