<svg width="24" height="24" viewBox="0 0 24 24" fill="none" xmlns="http://www.w3.org/2000/svg">
<rect width="24" height="24" fill="white" fill-opacity="0.01"/>
<path d="M13 2H11V12H13V2Z" fill="#86909C"/>
<path d="M19.5 12C19.5 9.32844 18.1032 6.98313 16 5.65456V3.38065C19.248 4.89052 21.5 8.18227 21.5 12C21.5 17.2467 17.2467 21.5 12 21.5C6.75329 21.5 2.5 17.2467 2.5 12C2.5 8.18227 4.75197 4.89052 8 3.38065V5.65456C5.89683 6.98313 4.5 9.32844 4.5 12C4.5 16.1421 7.85786 19.5 12 19.5C16.1421 19.5 19.5 16.1421 19.5 12Z" fill="#86909C"/>
</svg>
