<svg width="32" height="32" viewBox="0 0 32 32" fill="none" xmlns="http://www.w3.org/2000/svg">
<rect width="32" height="32" rx="12" fill="#F2F3F5"/>
<path fill-rule="evenodd" clip-rule="evenodd" d="M10.5 8.58334C8.98122 8.58334 7.75 9.81455 7.75 11.3333V20.6667C7.75 22.1855 8.98122 23.4167 10.5 23.4167H21.5C23.0188 23.4167 24.25 22.1855 24.25 20.6667V11.3333C24.25 9.81455 23.0188 8.58334 21.5 8.58334H10.5ZM9.25 11.3333C9.25 10.643 9.80964 10.0833 10.5 10.0833H21.5C22.1904 10.0833 22.75 10.643 22.75 11.3333V17.5227L19.3208 14.0934C18.6374 13.41 17.5293 13.41 16.8459 14.0934L9.50975 21.4296C9.34688 21.2185 9.25 20.9539 9.25 20.6667V11.3333ZM11.144 21.9167H21.5C22.1904 21.9167 22.75 21.357 22.75 20.6667V19.644L18.2601 15.1541C18.1625 15.0565 18.0042 15.0565 17.9066 15.1541L11.144 21.9167ZM13.5 13.0833C13.5 13.7737 12.9404 14.3333 12.25 14.3333C11.5596 14.3333 11 13.7737 11 13.0833C11 12.393 11.5596 11.8333 12.25 11.8333C12.9404 11.8333 13.5 12.393 13.5 13.0833Z" fill="#86909C"/>
</svg>
