<svg width="16" height="16" viewBox="0 0 16 16" fill="none" xmlns="http://www.w3.org/2000/svg">
<rect width="16" height="16" fill="white" fill-opacity="0.01"/>
<path fill-rule="evenodd" clip-rule="evenodd" d="M8 2C6.15905 2 4.66667 3.49238 4.66667 5.33333C4.66667 7.17428 6.15905 8.66667 8 8.66667C9.84095 8.66667 11.3333 7.17428 11.3333 5.33333V2H8ZM6 5.33333C6 4.22876 6.89543 3.33333 8 3.33333H10V5.33333C10 6.4379 9.10457 7.33333 8 7.33333C6.89543 7.33333 6 6.4379 6 5.33333Z" fill="#86909C"/>
<path fill-rule="evenodd" clip-rule="evenodd" d="M4.33333 9.33333C3.04467 9.33333 2 10.378 2 11.6667V14H14V11.6667C14 10.378 12.9553 9.33333 11.6667 9.33333H4.33333ZM3.33333 11.6667C3.33333 11.1144 3.78105 10.6667 4.33333 10.6667H11.6667C12.219 10.6667 12.6667 11.1144 12.6667 11.6667V12.6667H3.33333V11.6667Z" fill="#86909C"/>
</svg>
