<svg width="16" height="16" viewBox="0 0 16 16" fill="none" xmlns="http://www.w3.org/2000/svg">
<rect width="16" height="16" fill="white" fill-opacity="0.01"/>
<path d="M8.66675 1.33331H7.33342V7.99998H8.66675V1.33331Z" fill="#86909C"/>
<path d="M13.0001 7.99998C13.0001 6.21894 12.0689 4.6554 10.6667 3.76969V2.25374C12.8321 3.26032 14.3334 5.45483 14.3334 7.99998C14.3334 11.4978 11.4979 14.3333 8.00008 14.3333C4.50228 14.3333 1.66675 11.4978 1.66675 7.99998C1.66675 5.45483 3.16806 3.26032 5.33341 2.25374V3.76969C3.9313 4.6554 3.00008 6.21894 3.00008 7.99998C3.00008 10.7614 5.23866 13 8.00008 13C10.7615 13 13.0001 10.7614 13.0001 7.99998Z" fill="#86909C"/>
</svg>
