<svg width="18" height="18" viewBox="0 0 18 18" fill="none" xmlns="http://www.w3.org/2000/svg">
<rect width="18" height="18" fill="white" fill-opacity="0.01"/>
<path fill-rule="evenodd" clip-rule="evenodd" d="M10.646 8.62189C11.4848 7.74626 12.0002 6.55832 12.0002 5.24999C12.0002 3.94166 11.4848 2.75371 10.646 1.87808C12.4423 1.9545 13.8751 3.43492 13.8751 5.24998C13.8751 7.06505 12.4423 8.54546 10.646 8.62189Z" fill="#6AA1FF"/>
<path fill-rule="evenodd" clip-rule="evenodd" d="M7.125 1.875C5.26104 1.875 3.75 3.38604 3.75 5.25C3.75 7.11396 5.26104 8.625 7.125 8.625C8.98896 8.625 10.5 7.11396 10.5 5.25C10.5 3.38604 8.98896 1.875 7.125 1.875ZM4.45312 9.75C2.82216 9.75 1.5 11.1603 1.5 12.9V16.5H12.75V12.9C12.75 11.1603 11.4278 9.75 9.79688 9.75H4.45312Z" fill="#2253E6"/>
<path fill-rule="evenodd" clip-rule="evenodd" d="M13.0728 9.74999C13.8112 10.5924 14.2501 11.7115 14.2501 12.9V16.5H16.5001V12.9C16.5001 11.1603 15.0898 9.74999 13.3501 9.74999H13.0728Z" fill="#6AA1FF"/>
</svg>
