<svg width="60" height="60" viewBox="0 0 60 60" fill="none" xmlns="http://www.w3.org/2000/svg">
<path d="M21 8.73205C22.8564 7.66025 25.1436 7.66025 27 8.73205L37.4545 14.7679C39.3109 15.8397 40.4545 17.8205 40.4545 19.9641V32.0359C40.4545 34.1795 39.3109 36.1603 37.4545 37.232L27 43.2679C25.1436 44.3397 22.8564 44.3397 21 43.2679L10.5455 37.232C8.68911 36.1603 7.54552 34.1795 7.54552 32.0359V19.9641C7.54552 17.8205 8.68911 15.8397 10.5455 14.7679L21 8.73205Z" fill="#3C70F4"/>
<path d="M15.685 22.245H12.616V30H15.685C18.16 30 19.733 28.361 19.733 26.117C19.733 23.84 18.16 22.245 15.685 22.245ZM14.772 28.097V24.115H15.52C16.763 24.115 17.544 24.83 17.544 26.117C17.544 27.393 16.763 28.097 15.52 28.097H14.772ZM25.7319 22.245V26.634L22.8609 22.245H20.7049V30H22.8609V25.666L25.7319 30H27.8879V22.245H25.7319ZM34.935 27.646C34.935 25.16 31.206 25.534 31.206 24.379C31.206 24.005 31.459 23.818 31.778 23.829C32.174 23.829 32.471 24.049 32.493 24.533H34.836C34.759 22.993 33.593 22.124 31.811 22.124C30.172 22.124 28.907 22.938 28.907 24.456C28.874 27.151 32.636 26.568 32.647 27.811C32.647 28.174 32.35 28.372 31.965 28.372C31.569 28.372 31.228 28.174 31.184 27.591H28.885C28.973 29.252 30.315 30.077 32.042 30.077C33.879 30.077 34.935 29.01 34.935 27.646Z" fill="white"/>
<g filter="url(#filter0_b_807_5696)">
<path d="M53.9942 40.0043C53.9273 38.4548 53.3025 36.9752 52.2261 35.8167C51.1496 34.6581 49.6877 33.892 48.0885 33.6484C46.4893 33.4047 44.8514 33.6985 43.4527 34.4799C42.054 35.2613 40.9807 36.4822 40.4149 37.9353C40.3617 38.0452 40.2671 38.1318 40.15 38.1776C40.0329 38.2234 39.902 38.2251 39.7837 38.1824C39.6653 38.1396 39.5683 38.0555 39.512 37.947C39.4557 37.8385 39.4444 37.7137 39.4803 37.5975C40.0369 36.1722 41.0236 34.9377 42.3149 34.0511C43.6063 33.1644 45.1438 32.6657 46.7319 32.6184C46.242 30.7277 45.1049 29.0486 43.5022 27.849C41.8995 26.6494 39.9234 25.9984 37.8893 26C35.8552 26.0016 33.8802 26.6555 32.2795 27.8576C30.6788 29.0596 29.5445 30.7404 29.0577 32.6319C28.8814 32.6184 28.705 32.61 28.5287 32.61C26.5721 32.606 24.691 33.3332 23.2856 34.637C21.8803 35.9408 21.0614 37.7182 21.0033 39.5912C20.9452 41.4643 21.6524 43.2851 22.9744 44.6665C24.2965 46.0479 26.1291 46.8809 28.0825 46.9882V47H47.2839C49.1402 46.9245 50.8893 46.1467 52.1474 44.8373C53.4055 43.528 54.0697 41.794 53.9942 40.0161V40.0043Z" fill="#3C70F4" fill-opacity="0.28"/>
<path d="M43.2026 28.2493C44.5494 29.2573 45.545 30.6212 46.0729 32.1614C44.6205 32.311 43.2277 32.8179 42.0319 33.6389C40.6601 34.5808 39.6085 35.8947 39.0145 37.4156L39.0079 37.4325L39.0025 37.4499C38.9276 37.6923 38.9517 37.9529 39.0682 38.1773C39.1842 38.4009 39.3811 38.5685 39.6137 38.6526C39.8461 38.7366 40.1021 38.7333 40.3322 38.6432L40.15 38.1776L40.3322 38.6432C40.5628 38.553 40.7552 38.3801 40.865 38.1531L40.8737 38.1352L40.8809 38.1167C41.4032 36.775 42.3962 35.6429 43.6965 34.9164C44.9972 34.1898 46.5227 33.9156 48.0132 34.1427C49.5036 34.3697 50.862 35.0832 51.8598 36.157C52.8547 37.2277 53.4301 38.5909 53.4942 40.0153V40.0161V40.0267L53.4947 40.0373C53.5642 41.6757 52.9526 43.2777 51.7869 44.4909C50.6227 45.7026 49.0005 46.4272 47.2736 46.5H28.3114L28.1099 46.4889C26.28 46.3884 24.5677 45.6082 23.3356 44.3208C22.1042 43.0342 21.4492 41.3426 21.5031 39.6067C21.5569 37.8708 22.3158 36.2187 23.6257 35.0035C24.9363 33.7877 26.6946 33.1062 28.5276 33.11H28.5287C28.6892 33.11 28.8525 33.1177 29.0195 33.1305L29.4375 33.1625L29.5419 32.7565C29.9997 30.978 31.0674 29.3931 32.5797 28.2574C34.0925 27.1214 35.9619 26.5015 37.8897 26.5C39.8175 26.4985 41.6879 27.1156 43.2026 28.2493Z" stroke="url(#paint0_linear_807_5696)"/>
</g>
<defs>
<filter id="filter0_b_807_5696" x="17" y="22" width="41" height="29" filterUnits="userSpaceOnUse" color-interpolation-filters="sRGB">
<feFlood flood-opacity="0" result="BackgroundImageFix"/>
<feGaussianBlur in="BackgroundImageFix" stdDeviation="2"/>
<feComposite in2="SourceAlpha" operator="in" result="effect1_backgroundBlur_807_5696"/>
<feBlend mode="normal" in="SourceGraphic" in2="effect1_backgroundBlur_807_5696" result="shape"/>
</filter>
<linearGradient id="paint0_linear_807_5696" x1="49.6957" y1="28.7391" x2="35.064" y2="49.703" gradientUnits="userSpaceOnUse">
<stop stop-color="#3C70F4" stop-opacity="0"/>
<stop offset="1" stop-color="white" stop-opacity="0.58"/>
</linearGradient>
</defs>
</svg>
