<svg width="60" height="60" viewBox="0 0 60 60" fill="none" xmlns="http://www.w3.org/2000/svg">
<rect width="60" height="60" fill="white" fill-opacity="0.01"/>
<path d="M23 8.73205C24.8564 7.66025 27.1436 7.66025 29 8.73205L39.4545 14.7679C41.3109 15.8397 42.4545 17.8205 42.4545 19.9641V32.0359C42.4545 34.1795 41.3109 36.1603 39.4545 37.232L29 43.2679C27.1436 44.3397 24.8564 44.3397 23 43.2679L12.5455 37.232C10.6891 36.1603 9.54552 34.1795 9.54552 32.0359V19.9641C9.54552 17.8205 10.6891 15.8397 12.5455 14.7679L23 8.73205Z" fill="#3C70F4"/>
<path d="M30.8387 24.0338C30.8387 24.0975 30.7693 24.2091 30.6307 24.3684C30.492 24.5277 30.3434 24.7157 30.1849 24.9324C30.0264 25.149 29.8778 25.3848 29.7392 25.6397C29.6005 25.8946 29.5311 26.1559 29.5311 26.4235C29.5311 26.6912 29.6005 26.9493 29.7392 27.1978C29.8778 27.4463 30.0264 27.6725 30.1849 27.8765C30.3434 28.0804 30.492 28.2493 30.6307 28.3831C30.7693 28.5169 30.8387 28.6029 30.8387 28.6412V30.6485C30.8387 30.8652 30.7561 31.1105 30.591 31.3846C30.4259 31.6586 30.2212 31.9167 29.9769 32.1588C29.7325 32.401 29.4618 32.6017 29.1646 32.761C28.8675 32.9203 28.5868 33 28.3226 33H18.4764C18.1198 33 17.7929 32.9395 17.4958 32.8184C17.1986 32.6973 16.9377 32.5284 16.7132 32.3118C16.4887 32.0951 16.3137 31.8402 16.1882 31.5471C16.0627 31.2539 16 30.9353 16 30.5912V22.3515C16 22.0966 16.0594 21.8321 16.1783 21.5581C16.2972 21.2841 16.4656 21.0324 16.6835 20.8029C16.9014 20.5735 17.159 20.3824 17.4561 20.2294C17.7533 20.0765 18.0802 20 18.4368 20H28.283C28.6396 20 28.9731 20.0605 29.2835 20.1816C29.5939 20.3027 29.8646 20.4684 30.0958 20.6787C30.3269 20.889 30.5085 21.1407 30.6406 21.4338C30.7726 21.727 30.8387 22.0392 30.8387 22.3706V24.0338ZM37 22.2368V30.9735C37 31.2539 36.9241 31.5025 36.7722 31.7191C36.6203 31.9358 36.3925 32.0441 36.0887 32.0441C35.983 32.0441 35.8476 32.0059 35.6825 31.9294C35.5175 31.8529 35.3524 31.7637 35.1873 31.6618C35.0222 31.5598 34.867 31.4578 34.7217 31.3559C34.5764 31.2539 34.4708 31.1711 34.4047 31.1074C34.233 30.9672 33.9722 30.725 33.6222 30.3809C33.2722 30.0368 32.9189 29.648 32.5623 29.2147C32.2057 28.7814 31.892 28.3353 31.6212 27.8765C31.3505 27.4176 31.2151 26.9971 31.2151 26.6147C31.2151 26.2324 31.3604 25.7958 31.6509 25.3051C31.9415 24.8145 32.2915 24.3333 32.7009 23.8618C33.1104 23.3902 33.5396 22.9537 33.9887 22.5522C34.4377 22.1507 34.8142 21.848 35.1179 21.6441C35.2368 21.5676 35.3986 21.4752 35.6033 21.3669C35.808 21.2586 35.9896 21.2044 36.1481 21.2044C36.5047 21.2044 36.7358 21.3 36.8415 21.4912C36.9472 21.6824 37 21.9181 37 22.1985V22.2368Z" fill="white"/>
<g filter="url(#filter0_b_807_5704)">
<mask id="path-3-inside-1_807_5704" fill="white">
<path fill-rule="evenodd" clip-rule="evenodd" d="M41 50C47.6274 50 53 44.6274 53 38C53 31.3726 47.6274 26 41 26C34.3726 26 29 31.3726 29 38C29 44.6274 34.3726 50 41 50ZM38 43.1962L47 38L38 32.8038L38 43.1962Z"/>
</mask>
<path fill-rule="evenodd" clip-rule="evenodd" d="M41 50C47.6274 50 53 44.6274 53 38C53 31.3726 47.6274 26 41 26C34.3726 26 29 31.3726 29 38C29 44.6274 34.3726 50 41 50ZM38 43.1962L47 38L38 32.8038L38 43.1962Z" fill="#3C70F4" fill-opacity="0.18"/>
<path d="M47 38L47.25 38.433L48 38L47.25 37.567L47 38ZM38 43.1962H37.5V44.0622L38.25 43.6292L38 43.1962ZM38 32.8038L38.25 32.3708L37.5 31.9378V32.8038H38ZM52.5 38C52.5 44.3513 47.3513 49.5 41 49.5V50.5C47.9036 50.5 53.5 44.9036 53.5 38H52.5ZM41 26.5C47.3513 26.5 52.5 31.6487 52.5 38H53.5C53.5 31.0964 47.9036 25.5 41 25.5V26.5ZM29.5 38C29.5 31.6487 34.6487 26.5 41 26.5V25.5C34.0964 25.5 28.5 31.0964 28.5 38H29.5ZM41 49.5C34.6487 49.5 29.5 44.3513 29.5 38H28.5C28.5 44.9036 34.0964 50.5 41 50.5V49.5ZM46.75 37.567L37.75 42.7631L38.25 43.6292L47.25 38.433L46.75 37.567ZM37.75 33.2369L46.75 38.433L47.25 37.567L38.25 32.3708L37.75 33.2369ZM38.5 43.1962L38.5 32.8038H37.5L37.5 43.1962H38.5Z" fill="url(#paint0_linear_807_5704)" mask="url(#path-3-inside-1_807_5704)"/>
</g>
<defs>
<filter id="filter0_b_807_5704" x="25" y="22" width="32" height="32" filterUnits="userSpaceOnUse" color-interpolation-filters="sRGB">
<feFlood flood-opacity="0" result="BackgroundImageFix"/>
<feGaussianBlur in="BackgroundImageFix" stdDeviation="2"/>
<feComposite in2="SourceAlpha" operator="in" result="effect1_backgroundBlur_807_5704"/>
<feBlend mode="normal" in="SourceGraphic" in2="effect1_backgroundBlur_807_5704" result="shape"/>
</filter>
<linearGradient id="paint0_linear_807_5704" x1="49.8696" y1="29.1304" x2="32.1304" y2="45.3043" gradientUnits="userSpaceOnUse">
<stop stop-color="#3C70F4" stop-opacity="0"/>
<stop offset="1" stop-color="white" stop-opacity="0.58"/>
</linearGradient>
</defs>
</svg>
